<svg width="729" height="777" viewBox="0 0 729 777" fill="none" xmlns="http://www.w3.org/2000/svg">
<g opacity="0.05" clip-path="url(#clip0_1_209)">
<path d="M471.872 646.569H528.87V779.868H471.872V646.569Z" fill="#333333"/>
<path d="M502.962 639.844H528.87V647.431H502.962V639.844Z" fill="#333333"/>
<path d="M513.843 635.532H528.87V639.844H513.843V635.532Z" fill="#333333"/>
<path opacity="0.06" d="M495.707 655.881H505.034V662.779H495.707V655.881Z" fill="white"/>
<path opacity="0.12" d="M495.707 672.953H505.034V679.851H495.707V672.953Z" fill="white"/>
<path opacity="0.19" d="M495.707 707.097H505.034V713.995H495.707V707.097Z" fill="white"/>
<path opacity="0.14" d="M495.707 741.241H505.034V748.139H495.707V741.241Z" fill="white"/>
<path opacity="0.1" d="M495.707 758.313H505.034V765.211H495.707V758.313Z" fill="white"/>
<path d="M614.884 661.054H692.954V732.445H614.884V661.054Z" fill="#333333"/>
<path d="M627.147 654.673H680.518V685.368H627.147V654.673Z" fill="#333333"/>
<path d="M609.185 706.061H687.254V777.453H609.185V706.061Z" fill="#333333"/>
<path d="M621.62 699.681H674.991V730.376H621.62V699.681Z" fill="#333333"/>
<path d="M505.207 696.577H583.276V778.833H505.207V696.577Z" fill="#333333"/>
<path d="M517.47 689.334H570.841V724.858H517.47V689.334Z" fill="#333333"/>
<path d="M243.881 721.582H321.951V801.079H243.881V721.582Z" fill="#333333"/>
<path d="M256.144 714.512H309.515V748.828H256.144V714.512Z" fill="#333333"/>
<path d="M413.147 557.415H500.371V778.661H413.147V557.415Z" fill="#333333"/>
<path opacity="0.46" d="M474.981 567.417H496.053V571.383H474.981V567.417Z" fill="#E6E6E6"/>
<path opacity="0.34" d="M446.136 567.417H467.208V571.383H446.136V567.417Z" fill="#E6E6E6"/>
<path opacity="0.52" d="M417.465 567.417H438.537V571.383H417.465V567.417Z" fill="#E6E6E6"/>
<path opacity="0.54" d="M474.981 576.556H496.053V580.523H474.981V576.556Z" fill="#E6E6E6"/>
<path opacity="0.3" d="M446.136 576.556H467.208V580.523H446.136V576.556Z" fill="#E6E6E6"/>
<path opacity="0.06" d="M417.465 576.556H438.537V580.523H417.465V576.556Z" fill="#E6E6E6"/>
<path opacity="0.15" d="M474.981 585.696H496.053V589.662H474.981V585.696Z" fill="#E6E6E6"/>
<path opacity="0.42" d="M446.136 585.696H467.208V589.662H446.136V585.696Z" fill="#E6E6E6"/>
<path opacity="0.48" d="M417.465 585.696H438.537V589.662H417.465V585.696Z" fill="#E6E6E6"/>
<path opacity="0.18" d="M474.981 594.835H496.053V598.802H474.981V594.835Z" fill="#E6E6E6"/>
<path opacity="0.28" d="M417.465 594.835H438.537V598.802H417.465V594.835Z" fill="#E6E6E6"/>
<path opacity="0.29" d="M474.981 603.975H496.053V607.941H474.981V603.975Z" fill="#E6E6E6"/>
<path opacity="0.28" d="M446.136 603.975H467.208V607.941H446.136V603.975Z" fill="#E6E6E6"/>
<path opacity="0.56" d="M417.465 603.975H438.537V607.941H417.465V603.975Z" fill="#E6E6E6"/>
<path opacity="0.41" d="M474.981 613.115H496.053V617.081H474.981V613.115Z" fill="#E6E6E6"/>
<path opacity="0.16" d="M446.136 613.115H467.208V617.081H446.136V613.115Z" fill="#E6E6E6"/>
<path opacity="0.4" d="M417.465 613.115H438.537V617.081H417.465V613.115Z" fill="#E6E6E6"/>
<path opacity="0.1" d="M474.981 622.254H496.053V626.221H474.981V622.254Z" fill="#E6E6E6"/>
<path opacity="0.17" d="M446.136 622.254H467.208V626.221H446.136V622.254Z" fill="#E6E6E6"/>
<path opacity="0.08" d="M417.465 622.254H438.537V626.221H417.465V622.254Z" fill="#E6E6E6"/>
<path opacity="0.49" d="M474.981 631.394H496.053V635.36H474.981V631.394Z" fill="#E6E6E6"/>
<path opacity="0.58" d="M446.136 631.394H467.208V635.36H446.136V631.394Z" fill="#E6E6E6"/>
<path opacity="0.58" d="M417.465 631.394H438.537V635.36H417.465V631.394Z" fill="#E6E6E6"/>
<path opacity="0.26" d="M474.981 640.533H496.053V644.5H474.981V640.533Z" fill="#E6E6E6"/>
<path opacity="0.37" d="M446.136 640.533H467.208V644.5H446.136V640.533Z" fill="#E6E6E6"/>
<path opacity="0.34" d="M417.465 640.533H438.537V644.5H417.465V640.533Z" fill="#E6E6E6"/>
<path opacity="0.55" d="M474.981 649.673H496.053V653.639H474.981V649.673Z" fill="#E6E6E6"/>
<path opacity="0.12" d="M446.136 649.673H467.208V653.639H446.136V649.673Z" fill="#E6E6E6"/>
<path opacity="0.6" d="M417.465 649.673H438.537V653.639H417.465V649.673Z" fill="#E6E6E6"/>
<path opacity="0.02" d="M474.981 658.812H496.053V662.779H474.981V658.812Z" fill="#E6E6E6"/>
<path opacity="0.28" d="M446.136 658.812H467.208V662.779H446.136V658.812Z" fill="#E6E6E6"/>
<path opacity="0.21" d="M417.465 658.812H438.537V662.779H417.465V658.812Z" fill="#E6E6E6"/>
<path opacity="0.57" d="M474.981 667.952H496.053V671.918H474.981V667.952Z" fill="#E6E6E6"/>
<path opacity="0.38" d="M446.136 667.952H467.208V671.918H446.136V667.952Z" fill="#E6E6E6"/>
<path opacity="0.25" d="M417.465 667.952H438.537V671.918H417.465V667.952Z" fill="#E6E6E6"/>
<path opacity="0.15" d="M474.981 677.091H496.053V681.058H474.981V677.091Z" fill="#E6E6E6"/>
<path opacity="0.47" d="M446.136 677.091H467.208V681.058H446.136V677.091Z" fill="#E6E6E6"/>
<path opacity="0.3" d="M417.465 677.091H438.537V681.058H417.465V677.091Z" fill="#E6E6E6"/>
<path opacity="0.4" d="M474.981 686.231H496.053V690.197H474.981V686.231Z" fill="#E6E6E6"/>
<path opacity="0.39" d="M446.136 686.231H467.208V690.197H446.136V686.231Z" fill="#E6E6E6"/>
<path opacity="0.24" d="M417.465 686.231H438.537V690.197H417.465V686.231Z" fill="#E6E6E6"/>
<path opacity="0.46" d="M474.981 695.37H496.053V699.337H474.981V695.37Z" fill="#E6E6E6"/>
<path opacity="0.22" d="M446.136 695.37H467.208V699.337H446.136V695.37Z" fill="#E6E6E6"/>
<path opacity="0.11" d="M417.465 695.37H438.537V699.337H417.465V695.37Z" fill="#E6E6E6"/>
<path opacity="0.11" d="M446.136 704.51H467.208V708.476H446.136V704.51Z" fill="#E6E6E6"/>
<path opacity="0.02" d="M417.465 704.51H438.537V708.476H417.465V704.51Z" fill="#E6E6E6"/>
<path opacity="0.27" d="M474.981 713.65H496.053V717.616H474.981V713.65Z" fill="#E6E6E6"/>
<path opacity="0.21" d="M446.136 713.65H467.208V717.616H446.136V713.65Z" fill="#E6E6E6"/>
<path opacity="0.49" d="M417.465 713.65H438.537V717.616H417.465V713.65Z" fill="#E6E6E6"/>
<path opacity="0.6" d="M474.981 722.789H496.053V726.756H474.981V722.789Z" fill="#E6E6E6"/>
<path opacity="0.31" d="M446.136 722.789H467.208V726.756H446.136V722.789Z" fill="#E6E6E6"/>
<path opacity="0.22" d="M417.465 722.789H438.537V726.756H417.465V722.789Z" fill="#E6E6E6"/>
<path opacity="0.54" d="M474.981 731.929H496.053V735.895H474.981V731.929Z" fill="#E6E6E6"/>
<path opacity="0.6" d="M446.136 731.929H467.208V735.895H446.136V731.929Z" fill="#E6E6E6"/>
<path opacity="0.08" d="M417.465 731.929H438.537V735.895H417.465V731.929Z" fill="#E6E6E6"/>
<path opacity="0.55" d="M446.136 741.068H467.208V745.035H446.136V741.068Z" fill="#E6E6E6"/>
<path d="M417.465 741.068H438.537V745.035H417.465V741.068Z" fill="#E6E6E6"/>
<path opacity="0.6" d="M473.599 567.417H474.981V745.035H473.599V567.417Z" fill="#E6E6E6"/>
<path opacity="0.6" d="M438.537 567.417H439.919V745.035H438.537V567.417Z" fill="#E6E6E6"/>
<path d="M369.621 557.415H413.147V778.661H369.621V557.415Z" fill="#4D4D4D"/>
<path opacity="0.69" d="M376.012 567.417H408.829V571.383H376.012V567.417Z" fill="#E6E6E6"/>
<path opacity="0.79" d="M376.012 576.556H408.829V580.523H376.012V576.556Z" fill="#E6E6E6"/>
<path opacity="0.19" d="M376.012 585.696H408.829V589.662H376.012V585.696Z" fill="#E6E6E6"/>
<path opacity="0.88" d="M376.012 594.835H408.829V598.802H376.012V594.835Z" fill="#E6E6E6"/>
<path opacity="0.5" d="M376.012 603.975H408.829V607.941H376.012V603.975Z" fill="#E6E6E6"/>
<path opacity="0.25" d="M376.012 613.115H408.829V617.081H376.012V613.115Z" fill="#E6E6E6"/>
<path opacity="0.91" d="M376.012 622.254H408.829V626.221H376.012V622.254Z" fill="#E6E6E6"/>
<path opacity="0.02" d="M376.012 631.394H408.829V635.36H376.012V631.394Z" fill="#E6E6E6"/>
<path opacity="0.53" d="M376.012 640.533H408.829V644.5H376.012V640.533Z" fill="#E6E6E6"/>
<path opacity="0.65" d="M376.012 649.673H408.829V653.639H376.012V649.673Z" fill="#E6E6E6"/>
<path d="M376.012 658.812H408.829V662.779H376.012V658.812Z" fill="#E6E6E6"/>
<path opacity="0.8" d="M376.012 667.952H408.829V671.918H376.012V667.952Z" fill="#E6E6E6"/>
<path opacity="0.82" d="M376.012 677.091H408.829V681.058H376.012V677.091Z" fill="#E6E6E6"/>
<path opacity="0.75" d="M376.012 686.231H408.829V690.197H376.012V686.231Z" fill="#E6E6E6"/>
<path opacity="0.31" d="M376.012 695.37H408.829V699.337H376.012V695.37Z" fill="#E6E6E6"/>
<path opacity="0.22" d="M376.012 704.51H408.829V708.476H376.012V704.51Z" fill="#E6E6E6"/>
<path opacity="0.43" d="M376.012 713.65H408.829V717.616H376.012V713.65Z" fill="#E6E6E6"/>
<path opacity="0.68" d="M376.012 722.789H408.829V726.756H376.012V722.789Z" fill="#E6E6E6"/>
<path opacity="0.38" d="M376.012 731.929H408.829V735.895H376.012V731.929Z" fill="#E6E6E6"/>
<path opacity="0.84" d="M376.012 741.068H408.829V745.035H376.012V741.068Z" fill="#E6E6E6"/>
<path d="M484.999 545.689V557.415H428.519V545.689H484.999ZM472.39 553.621H478.262V549.655H472.39V553.621ZM463.236 553.621H468.936V549.655H463.236V553.621ZM453.909 553.621H459.609V549.655H453.909V553.621ZM444.582 553.621H450.454V549.655H444.582V553.621ZM435.255 553.621H441.128V549.655H435.255V553.621Z" fill="#333333"/>
<path d="M418.156 549.655H419.71V553.621H418.156V549.655Z" fill="#333333"/>
<path d="M428.519 545.689V557.415H401.92V545.689H428.519ZM418.156 553.621H423.856V549.655H418.156V553.621ZM405.893 553.621H411.592V549.655H405.893V553.621Z" fill="#4D4D4D"/>
<path d="M406.065 549.655H407.62V553.621H406.065V549.655Z" fill="#333333"/>
<path d="M401.575 793.663H519.024L401.575 707.096V793.663Z" fill="#333333"/>
<path d="M576.713 510.51H586.213V546.551H576.713V510.51Z" fill="#4D4D4D"/>
<path d="M586.04 510.51H595.712V546.551H586.04V510.51Z" fill="#333333"/>
<path d="M566.868 510.51H576.54V546.551H566.868V510.51Z" fill="#666666"/>
<path d="M538.887 571.21H565.832V776.764H538.887V571.21Z" fill="#666666"/>
<path d="M597.439 571.21H620.929V776.764H597.439V571.21Z" fill="#333333"/>
<path d="M565.832 571.21H597.612V776.764H565.832V571.21Z" fill="#4D4D4D"/>
<path opacity="0.6" d="M614.193 577.246H617.648V774.005H614.193V577.246Z" fill="#E6E6E6"/>
<path opacity="0.6" d="M607.457 577.246H610.912V774.005H607.457V577.246Z" fill="#E6E6E6"/>
<path opacity="0.6" d="M600.721 577.246H604.175V774.005H600.721V577.246Z" fill="#E6E6E6"/>
<path d="M560.477 577.246H563.932V774.005H560.477V577.246Z" fill="#E6E6E6"/>
<path d="M553.741 577.246H557.196V774.005H553.741V577.246Z" fill="#E6E6E6"/>
<path d="M540.615 577.246H544.069V774.005H540.615V577.246Z" fill="#E6E6E6"/>
<path d="M547.005 577.246H550.46V774.005H547.005V577.246Z" fill="#E6E6E6"/>
<path opacity="0.8" d="M593.64 774.005H569.804V577.246H593.64V774.005ZM589.84 580.695H573.604V770.556H589.84V580.695Z" fill="#E6E6E6"/>
<path opacity="0.8" d="M586.731 767.28H576.54V583.799H586.731V767.28ZM583.276 588.11H582.067H581.376H579.995V762.969H581.376H582.067H583.276V588.11Z" fill="#E6E6E6"/>
<path opacity="0.8" d="M581.376 588.11H582.067V762.969H581.376V588.11Z" fill="#E6E6E6"/>
<path d="M569.459 535.17H593.294V571.211H569.459V535.17Z" fill="#4D4D4D"/>
<path d="M569.459 535.17H593.294V571.211H569.459V535.17Z" fill="#4D4D4D"/>
<path d="M545.623 535.17H569.459V571.211H545.623V535.17Z" fill="#666666"/>
<path d="M593.294 535.17H617.13V571.211H593.294V535.17Z" fill="#333333"/>
<path d="M567.041 510.51H595.712L586.213 517.063H576.54L567.041 510.51Z" fill="#808080"/>
<path d="M54.5796 497.232H68.3971V537.756H54.5796V497.232Z" fill="#4D4D4D"/>
<path d="M68.5701 497.232H82.3877V537.756H68.5701V497.232Z" fill="#333333"/>
<path d="M40.7618 497.232H54.5796V537.756H40.7618V497.232Z" fill="#666666"/>
<path d="M0 565.692H39.0347V797.285H0V565.692Z" fill="#666666"/>
<path d="M84.9785 565.692H118.832V797.285H84.9785V565.692Z" fill="#333333"/>
<path d="M39.0348 565.692H84.9784V797.285H39.0348V565.692Z" fill="#4D4D4D"/>
<path opacity="0.4" d="M109.159 572.59H114.168V794.181H109.159V572.59Z" fill="#E6E6E6"/>
<path opacity="0.4" d="M99.3141 572.59H104.323V794.181H99.3141V572.59Z" fill="#E6E6E6"/>
<path opacity="0.4" d="M89.469 572.59H94.478V794.181H89.469V572.59Z" fill="#E6E6E6"/>
<path d="M31.2623 572.59H36.2712V794.181H31.2623V572.59Z" fill="#E6E6E6"/>
<path d="M21.4172 572.59H26.4263V794.181H21.4172V572.59Z" fill="#E6E6E6"/>
<path d="M2.59082 572.59H7.59973V794.181H2.59082V572.59Z" fill="#E6E6E6"/>
<path d="M11.7449 572.59H16.7539V794.181H11.7449V572.59Z" fill="#E6E6E6"/>
<path d="M79.106 794.181H44.5618V572.59H79.106V794.181ZM73.7516 576.384H50.2615V790.387H73.7516V576.384Z" fill="#E6E6E6"/>
<path d="M69.4336 786.766H54.5796V580.005H69.4336V786.766ZM64.252 584.834H62.352H61.4884H59.5885V781.937H61.4884H62.352H64.252V584.834Z" fill="#E6E6E6"/>
<path d="M61.4884 584.833H62.3519V781.937H61.4884V584.833Z" fill="#E6E6E6"/>
<path d="M44.2163 525.168H78.7605V565.692H44.2163V525.168Z" fill="#4D4D4D"/>
<path d="M44.2163 525.168H78.7605V565.692H44.2163V525.168Z" fill="#4D4D4D"/>
<path d="M9.67236 525.168H44.2163V565.692H9.67236V525.168Z" fill="#666666"/>
<path d="M78.5876 525.168H113.132V565.692H78.5876V525.168Z" fill="#333333"/>
<path d="M40.5894 497.232H82.3877L68.3973 504.647H54.5797L40.5894 497.232Z" fill="#808080"/>
<path d="M154.239 597.766H248.717V629.151H154.239V597.766Z" fill="#E6E6E6"/>
<path d="M211.582 597.766H248.717V629.151H211.582V597.766Z" fill="#B3B3B3"/>
<path d="M211.582 629.324H284.989V781.764H211.582V629.324Z" fill="#333333"/>
<path d="M96.8961 629.324H211.582V781.764H96.8961V629.324Z" fill="#4D4D4D"/>
<path d="M220.564 613.804H277.043V629.323H220.564V613.804Z" fill="#333333"/>
<path d="M113.995 613.804H194.656V629.323H113.995V613.804Z" fill="#4D4D4D"/>
<path d="M179.284 585.867H211.582V597.766H179.284V585.867Z" fill="#E6E6E6"/>
<path d="M195.519 573.796H211.582V585.695H195.519V573.796Z" fill="#4D4D4D"/>
<path d="M211.755 573.796H227.818V585.695H211.755V573.796Z" fill="#333333"/>
<path d="M211.582 585.867H236.281V597.766H211.582V585.867Z" fill="#B3B3B3"/>
<path d="M212.619 573.796L211.582 546.205L210.719 573.796H212.619Z" fill="#333333"/>
<path opacity="0.12" d="M261.844 635.531H267.889V641.567H261.844V635.531Z" fill="white"/>
<path opacity="0.25" d="M253.553 635.531H259.599V641.567H253.553V635.531Z" fill="white"/>
<path opacity="0.36" d="M245.263 635.531H251.308V641.567H245.263V635.531Z" fill="white"/>
<path opacity="0.12" d="M236.972 635.531H243.018V641.567H236.972V635.531Z" fill="white"/>
<path opacity="0.14" d="M228.682 635.531H234.727V641.567H228.682V635.531Z" fill="white"/>
<path opacity="0.28" d="M261.844 643.464H267.889V649.499H261.844V643.464Z" fill="white"/>
<path opacity="0.4" d="M253.553 643.464H259.599V649.499H253.553V643.464Z" fill="white"/>
<path opacity="0.16" d="M245.263 643.464H251.308V649.499H245.263V643.464Z" fill="white"/>
<path opacity="0.17" d="M228.682 643.464H234.727V649.499H228.682V643.464Z" fill="white"/>
<path opacity="0.27" d="M261.844 651.396H267.889V657.432H261.844V651.396Z" fill="white"/>
<path opacity="0.45" d="M253.553 651.396H259.599V657.432H253.553V651.396Z" fill="white"/>
<path opacity="0.45" d="M245.263 651.396H251.308V657.432H245.263V651.396Z" fill="white"/>
<path opacity="0.48" d="M236.972 651.396H243.018V657.432H236.972V651.396Z" fill="white"/>
<path opacity="0.25" d="M228.682 651.396H234.727V657.432H228.682V651.396Z" fill="white"/>
<path opacity="0.28" d="M261.844 659.329H267.889V665.364H261.844V659.329Z" fill="white"/>
<path opacity="0.13" d="M253.553 659.329H259.599V665.364H253.553V659.329Z" fill="white"/>
<path opacity="0.07" d="M245.263 659.329H251.308V665.364H245.263V659.329Z" fill="white"/>
<path opacity="0.39" d="M236.972 659.329H243.018V665.364H236.972V659.329Z" fill="white"/>
<path opacity="0.47" d="M228.682 659.329H234.727V665.364H228.682V659.329Z" fill="white"/>
<path opacity="0.28" d="M261.844 667.261H267.889V673.297H261.844V667.261Z" fill="white"/>
<path opacity="0.2" d="M253.553 667.261H259.599V673.297H253.553V667.261Z" fill="white"/>
<path opacity="0.04" d="M245.263 667.261H251.308V673.297H245.263V667.261Z" fill="white"/>
<path opacity="0.43" d="M236.972 667.261H243.018V673.297H236.972V667.261Z" fill="white"/>
<path opacity="0.48" d="M228.682 667.261H234.727V673.297H228.682V667.261Z" fill="white"/>
<path opacity="0.28" d="M261.844 675.193H267.889V681.229H261.844V675.193Z" fill="white"/>
<path opacity="0.19" d="M253.553 675.193H259.599V681.229H253.553V675.193Z" fill="white"/>
<path opacity="0.01" d="M245.263 675.193H251.308V681.229H245.263V675.193Z" fill="white"/>
<path opacity="0.27" d="M236.972 675.193H243.018V681.229H236.972V675.193Z" fill="white"/>
<path opacity="0.24" d="M228.682 675.193H234.727V681.229H228.682V675.193Z" fill="white"/>
<path opacity="0.07" d="M261.844 683.298H267.889V689.334H261.844V683.298Z" fill="white"/>
<path opacity="0.25" d="M253.553 683.298H259.599V689.334H253.553V683.298Z" fill="white"/>
<path opacity="0.26" d="M245.263 683.298H251.308V689.334H245.263V683.298Z" fill="white"/>
<path opacity="0.39" d="M236.972 683.298H243.018V689.334H236.972V683.298Z" fill="white"/>
<path opacity="0.22" d="M228.682 683.298H234.727V689.334H228.682V683.298Z" fill="white"/>
<path opacity="0.15" d="M261.844 691.231H267.889V697.266H261.844V691.231Z" fill="white"/>
<path opacity="0.23" d="M253.553 691.231H259.599V697.266H253.553V691.231Z" fill="white"/>
<path opacity="0.05" d="M245.263 691.231H251.308V697.266H245.263V691.231Z" fill="white"/>
<path opacity="0.2" d="M236.972 691.231H243.018V697.266H236.972V691.231Z" fill="white"/>
<path opacity="0.31" d="M228.682 691.231H234.727V697.266H228.682V691.231Z" fill="white"/>
<path opacity="0.15" d="M261.844 699.163H267.889V705.199H261.844V699.163Z" fill="white"/>
<path opacity="0.33" d="M253.553 699.163H259.599V705.199H253.553V699.163Z" fill="white"/>
<path opacity="0.46" d="M245.263 699.163H251.308V705.199H245.263V699.163Z" fill="white"/>
<path opacity="0.25" d="M236.972 699.163H243.018V705.199H236.972V699.163Z" fill="white"/>
<path opacity="0.43" d="M228.682 699.163H234.727V705.199H228.682V699.163Z" fill="white"/>
<path opacity="0.4" d="M261.844 707.096H267.889V713.131H261.844V707.096Z" fill="white"/>
<path opacity="0.39" d="M253.553 707.096H259.599V713.131H253.553V707.096Z" fill="white"/>
<path opacity="0.01" d="M245.263 707.096H251.308V713.131H245.263V707.096Z" fill="white"/>
<path opacity="0.12" d="M236.972 707.096H243.018V713.131H236.972V707.096Z" fill="white"/>
<path opacity="0.07" d="M228.682 707.096H234.727V713.131H228.682V707.096Z" fill="white"/>
<path opacity="0.07" d="M261.844 715.028H267.889V721.064H261.844V715.028Z" fill="white"/>
<path opacity="0.02" d="M253.553 715.028H259.599V721.064H253.553V715.028Z" fill="white"/>
<path opacity="0.12" d="M245.263 715.028H251.308V721.064H245.263V715.028Z" fill="white"/>
<path opacity="0.23" d="M236.972 715.028H243.018V721.064H236.972V715.028Z" fill="white"/>
<path opacity="0.26" d="M228.682 715.028H234.727V721.064H228.682V715.028Z" fill="white"/>
<path opacity="0.27" d="M261.844 722.961H267.889V728.996H261.844V722.961Z" fill="white"/>
<path opacity="0.38" d="M253.553 722.961H259.599V728.996H253.553V722.961Z" fill="white"/>
<path opacity="0.05" d="M245.263 722.961H251.308V728.996H245.263V722.961Z" fill="white"/>
<path opacity="0.45" d="M236.972 722.961H243.018V728.996H236.972V722.961Z" fill="white"/>
<path opacity="0.15" d="M228.682 722.961H234.727V728.996H228.682V722.961Z" fill="white"/>
<path opacity="0.06" d="M261.844 730.893H267.889V736.929H261.844V730.893Z" fill="white"/>
<path opacity="0.47" d="M253.553 730.893H259.599V736.929H253.553V730.893Z" fill="white"/>
<path opacity="0.15" d="M245.263 730.893H251.308V736.929H245.263V730.893Z" fill="white"/>
<path opacity="0.44" d="M236.972 730.893H243.018V736.929H236.972V730.893Z" fill="white"/>
<path opacity="0.14" d="M228.682 730.893H234.727V736.929H228.682V730.893Z" fill="white"/>
<path opacity="0.15" d="M261.844 738.826H267.889V744.861H261.844V738.826Z" fill="white"/>
<path opacity="0.43" d="M253.553 738.826H259.599V744.861H253.553V738.826Z" fill="white"/>
<path opacity="0.07" d="M245.263 738.826H251.308V744.861H245.263V738.826Z" fill="white"/>
<path opacity="0.47" d="M236.972 738.826H243.018V744.861H236.972V738.826Z" fill="white"/>
<path opacity="0.11" d="M228.682 738.826H234.727V744.861H228.682V738.826Z" fill="white"/>
<path opacity="0.07" d="M261.844 746.758H267.889V752.794H261.844V746.758Z" fill="white"/>
<path opacity="0.34" d="M253.553 746.758H259.599V752.794H253.553V746.758Z" fill="white"/>
<path opacity="0.5" d="M245.263 746.758H251.308V752.794H245.263V746.758Z" fill="white"/>
<path opacity="0.36" d="M236.972 746.758H243.018V752.794H236.972V746.758Z" fill="white"/>
<path opacity="0.34" d="M228.682 746.758H234.727V752.794H228.682V746.758Z" fill="white"/>
<path opacity="0.47" d="M261.844 754.691H267.889V760.726H261.844V754.691Z" fill="white"/>
<path opacity="0.41" d="M253.553 754.691H259.599V760.726H253.553V754.691Z" fill="white"/>
<path opacity="0.3" d="M245.263 754.691H251.308V760.726H245.263V754.691Z" fill="white"/>
<path opacity="0.33" d="M236.972 754.691H243.018V760.726H236.972V754.691Z" fill="white"/>
<path opacity="0.12" d="M228.682 754.691H234.727V760.726H228.682V754.691Z" fill="white"/>
<path opacity="0.24" d="M261.844 762.623H267.889V768.658H261.844V762.623Z" fill="white"/>
<path opacity="0.29" d="M253.553 762.623H259.599V768.658H253.553V762.623Z" fill="white"/>
<path opacity="0.27" d="M236.972 762.623H243.018V768.658H236.972V762.623Z" fill="white"/>
<path opacity="0.04" d="M228.682 762.623H234.727V768.658H228.682V762.623Z" fill="white"/>
<path opacity="0.11" d="M261.844 770.555H267.889V776.591H261.844V770.555Z" fill="white"/>
<path opacity="0.05" d="M253.553 770.555H259.599V776.591H253.553V770.555Z" fill="white"/>
<path opacity="0.04" d="M245.263 770.555H251.308V776.591H245.263V770.555Z" fill="white"/>
<path opacity="0.02" d="M236.972 770.555H243.018V776.591H236.972V770.555Z" fill="white"/>
<path opacity="0.3" d="M191.547 635.531H197.592V641.567H191.547V635.531Z" fill="white"/>
<path opacity="0.72" d="M183.602 635.531H189.647V641.567H183.602V635.531Z" fill="white"/>
<path opacity="0.7" d="M175.484 635.531H181.529V641.567H175.484V635.531Z" fill="white"/>
<path opacity="0.52" d="M167.366 635.531H173.411V641.567H167.366V635.531Z" fill="white"/>
<path opacity="0.2" d="M159.248 635.531H165.294V641.567H159.248V635.531Z" fill="white"/>
<path opacity="0.32" d="M151.303 635.531H157.348V641.567H151.303V635.531Z" fill="white"/>
<path opacity="0.13" d="M143.185 635.531H149.23V641.567H143.185V635.531Z" fill="white"/>
<path opacity="0.38" d="M135.067 635.531H141.113V641.567H135.067V635.531Z" fill="white"/>
<path opacity="0.61" d="M127.122 635.531H133.167V641.567H127.122V635.531Z" fill="white"/>
<path d="M119.004 635.531H125.05V641.567H119.004V635.531Z" fill="white"/>
<path opacity="0.91" d="M110.887 635.531H116.932V641.567H110.887V635.531Z" fill="white"/>
<path opacity="0.66" d="M191.547 643.464H197.592V649.499H191.547V643.464Z" fill="white"/>
<path opacity="0.31" d="M183.602 643.464H189.647V649.499H183.602V643.464Z" fill="white"/>
<path opacity="0.95" d="M175.484 643.464H181.529V649.499H175.484V643.464Z" fill="white"/>
<path opacity="0.7" d="M167.366 643.464H173.411V649.499H167.366V643.464Z" fill="white"/>
<path opacity="0.12" d="M159.248 643.464H165.294V649.499H159.248V643.464Z" fill="white"/>
<path opacity="0.24" d="M151.303 643.464H157.348V649.499H151.303V643.464Z" fill="white"/>
<path opacity="0.66" d="M143.185 643.464H149.23V649.499H143.185V643.464Z" fill="white"/>
<path opacity="0.71" d="M135.067 643.464H141.113V649.499H135.067V643.464Z" fill="white"/>
<path opacity="0.42" d="M127.122 643.464H133.167V649.499H127.122V643.464Z" fill="white"/>
<path opacity="0.09" d="M119.004 643.464H125.05V649.499H119.004V643.464Z" fill="white"/>
<path opacity="0.32" d="M110.887 643.464H116.932V649.499H110.887V643.464Z" fill="white"/>
<path opacity="0.65" d="M191.547 651.396H197.592V657.432H191.547V651.396Z" fill="white"/>
<path d="M183.602 651.396H189.647V657.432H183.602V651.396Z" fill="white"/>
<path d="M175.484 651.396H181.529V657.432H175.484V651.396Z" fill="white"/>
<path opacity="0.71" d="M167.366 651.396H173.411V657.432H167.366V651.396Z" fill="white"/>
<path opacity="0.2" d="M159.248 651.396H165.294V657.432H159.248V651.396Z" fill="white"/>
<path opacity="0.19" d="M151.303 651.396H157.348V657.432H151.303V651.396Z" fill="white"/>
<path opacity="0.62" d="M143.185 651.396H149.23V657.432H143.185V651.396Z" fill="white"/>
<path opacity="0.93" d="M135.067 651.396H141.113V657.432H135.067V651.396Z" fill="white"/>
<path opacity="0.56" d="M127.122 651.396H133.167V657.432H127.122V651.396Z" fill="white"/>
<path opacity="0.57" d="M119.004 651.396H125.05V657.432H119.004V651.396Z" fill="white"/>
<path opacity="0.52" d="M110.887 651.396H116.932V657.432H110.887V651.396Z" fill="white"/>
<path opacity="0.74" d="M191.547 659.329H197.592V665.364H191.547V659.329Z" fill="white"/>
<path opacity="0.56" d="M183.602 659.329H189.647V665.364H183.602V659.329Z" fill="white"/>
<path opacity="0.78" d="M175.484 659.329H181.529V665.364H175.484V659.329Z" fill="white"/>
<path opacity="0.41" d="M167.366 659.329H173.411V665.364H167.366V659.329Z" fill="white"/>
<path opacity="0.14" d="M159.248 659.329H165.294V665.364H159.248V659.329Z" fill="white"/>
<path opacity="0.28" d="M151.303 659.329H157.348V665.364H151.303V659.329Z" fill="white"/>
<path opacity="0.36" d="M143.185 659.329H149.23V665.364H143.185V659.329Z" fill="white"/>
<path opacity="0.14" d="M135.067 659.329H141.113V665.364H135.067V659.329Z" fill="white"/>
<path opacity="0.5" d="M127.122 659.329H133.167V665.364H127.122V659.329Z" fill="white"/>
<path opacity="0.98" d="M119.004 659.329H125.05V665.364H119.004V659.329Z" fill="white"/>
<path opacity="0.59" d="M110.887 659.329H116.932V665.364H110.887V659.329Z" fill="white"/>
<path opacity="0.07" d="M191.547 667.261H197.592V673.297H191.547V667.261Z" fill="white"/>
<path opacity="0.1" d="M183.602 667.261H189.647V673.297H183.602V667.261Z" fill="white"/>
<path opacity="0.88" d="M175.484 667.261H181.529V673.297H175.484V667.261Z" fill="white"/>
<path opacity="0.68" d="M167.366 667.261H173.411V673.297H167.366V667.261Z" fill="white"/>
<path opacity="0.81" d="M159.248 667.261H165.294V673.297H159.248V667.261Z" fill="white"/>
<path opacity="0.62" d="M151.303 667.261H157.348V673.297H151.303V667.261Z" fill="white"/>
<path opacity="0.97" d="M143.185 667.261H149.23V673.297H143.185V667.261Z" fill="white"/>
<path opacity="0.81" d="M135.067 667.261H141.113V673.297H135.067V667.261Z" fill="white"/>
<path opacity="0.79" d="M127.122 667.261H133.167V673.297H127.122V667.261Z" fill="white"/>
<path opacity="0.03" d="M119.004 667.261H125.05V673.297H119.004V667.261Z" fill="white"/>
<path opacity="0.95" d="M110.887 667.261H116.932V673.297H110.887V667.261Z" fill="white"/>
<path opacity="0.62" d="M191.547 675.193H197.592V681.229H191.547V675.193Z" fill="white"/>
<path opacity="0.22" d="M183.602 675.193H189.647V681.229H183.602V675.193Z" fill="white"/>
<path opacity="0.42" d="M175.484 675.193H181.529V681.229H175.484V675.193Z" fill="white"/>
<path opacity="0.56" d="M167.366 675.193H173.411V681.229H167.366V675.193Z" fill="white"/>
<path opacity="0.03" d="M159.248 675.193H165.294V681.229H159.248V675.193Z" fill="white"/>
<path opacity="0.64" d="M151.303 675.193H157.348V681.229H151.303V675.193Z" fill="white"/>
<path opacity="0.82" d="M143.185 675.193H149.23V681.229H143.185V675.193Z" fill="white"/>
<path opacity="0.52" d="M135.067 675.193H141.113V681.229H135.067V675.193Z" fill="white"/>
<path opacity="0.46" d="M127.122 675.193H133.167V681.229H127.122V675.193Z" fill="white"/>
<path opacity="0.27" d="M119.004 675.193H125.05V681.229H119.004V675.193Z" fill="white"/>
<path opacity="0.46" d="M110.887 675.193H116.932V681.229H110.887V675.193Z" fill="white"/>
<path opacity="0.66" d="M191.547 683.298H197.592V689.334H191.547V683.298Z" fill="white"/>
<path opacity="0.7" d="M183.602 683.298H189.647V689.334H183.602V683.298Z" fill="white"/>
<path opacity="0.94" d="M175.484 683.298H181.529V689.334H175.484V683.298Z" fill="white"/>
<path opacity="0.5" d="M167.366 683.298H173.411V689.334H167.366V683.298Z" fill="white"/>
<path opacity="0.12" d="M159.248 683.298H165.294V689.334H159.248V683.298Z" fill="white"/>
<path opacity="0.36" d="M151.303 683.298H157.348V689.334H151.303V683.298Z" fill="white"/>
<path opacity="0.51" d="M143.185 683.298H149.23V689.334H143.185V683.298Z" fill="white"/>
<path opacity="0.37" d="M135.067 683.298H141.113V689.334H135.067V683.298Z" fill="white"/>
<path opacity="0.66" d="M127.122 683.298H133.167V689.334H127.122V683.298Z" fill="white"/>
<path opacity="0.42" d="M119.004 683.298H125.05V689.334H119.004V683.298Z" fill="white"/>
<path opacity="0.5" d="M110.887 683.298H116.932V689.334H110.887V683.298Z" fill="white"/>
<path opacity="0.52" d="M191.547 691.231H197.592V697.266H191.547V691.231Z" fill="white"/>
<path opacity="0.61" d="M183.602 691.231H189.647V697.266H183.602V691.231Z" fill="white"/>
<path opacity="0.84" d="M175.484 691.231H181.529V697.266H175.484V691.231Z" fill="white"/>
<path opacity="0.89" d="M167.366 691.231H173.411V697.266H167.366V691.231Z" fill="white"/>
<path opacity="0.33" d="M159.248 691.231H165.294V697.266H159.248V691.231Z" fill="white"/>
<path opacity="0.25" d="M151.303 691.231H157.348V697.266H151.303V691.231Z" fill="white"/>
<path opacity="0.95" d="M143.185 691.231H149.23V697.266H143.185V691.231Z" fill="white"/>
<path opacity="0.09" d="M135.067 691.231H141.113V697.266H135.067V691.231Z" fill="white"/>
<path opacity="0.44" d="M127.122 691.231H133.167V697.266H127.122V691.231Z" fill="white"/>
<path opacity="0.51" d="M119.004 691.231H125.05V697.266H119.004V691.231Z" fill="white"/>
<path opacity="0.97" d="M110.887 691.231H116.932V697.266H110.887V691.231Z" fill="white"/>
<path opacity="0.26" d="M191.547 699.163H197.592V705.199H191.547V699.163Z" fill="white"/>
<path opacity="0.92" d="M183.602 699.163H189.647V705.199H183.602V699.163Z" fill="white"/>
<path opacity="0.33" d="M175.484 699.163H181.529V705.199H175.484V699.163Z" fill="white"/>
<path opacity="0.23" d="M167.366 699.163H173.411V705.199H167.366V699.163Z" fill="white"/>
<path opacity="0.42" d="M159.248 699.163H165.294V705.199H159.248V699.163Z" fill="white"/>
<path opacity="0.57" d="M151.303 699.163H157.348V705.199H151.303V699.163Z" fill="white"/>
<path opacity="0.73" d="M143.185 699.163H149.23V705.199H143.185V699.163Z" fill="white"/>
<path opacity="0.87" d="M135.067 699.163H141.113V705.199H135.067V699.163Z" fill="white"/>
<path opacity="0.22" d="M127.122 699.163H133.167V705.199H127.122V699.163Z" fill="white"/>
<path opacity="0.89" d="M119.004 699.163H125.05V705.199H119.004V699.163Z" fill="white"/>
<path opacity="0.73" d="M110.887 699.163H116.932V705.199H110.887V699.163Z" fill="white"/>
<path opacity="0.35" d="M191.547 707.096H197.592V713.131H191.547V707.096Z" fill="white"/>
<path opacity="0.81" d="M183.602 707.096H189.647V713.131H183.602V707.096Z" fill="white"/>
<path opacity="0.56" d="M175.484 707.096H181.529V713.131H175.484V707.096Z" fill="white"/>
<path opacity="0.81" d="M167.366 707.096H173.411V713.131H167.366V707.096Z" fill="white"/>
<path opacity="0.87" d="M159.248 707.096H165.294V713.131H159.248V707.096Z" fill="white"/>
<path opacity="0.39" d="M151.303 707.096H157.348V713.131H151.303V707.096Z" fill="white"/>
<path opacity="0.31" d="M143.185 707.096H149.23V713.131H143.185V707.096Z" fill="white"/>
<path opacity="0.98" d="M135.067 707.096H141.113V713.131H135.067V707.096Z" fill="white"/>
<path opacity="0.17" d="M127.122 707.096H133.167V713.131H127.122V707.096Z" fill="white"/>
<path opacity="0.06" d="M119.004 707.096H125.05V713.131H119.004V707.096Z" fill="white"/>
<path opacity="0.57" d="M110.887 707.096H116.932V713.131H110.887V707.096Z" fill="white"/>
<path opacity="0.67" d="M191.547 715.028H197.592V721.064H191.547V715.028Z" fill="white"/>
<path opacity="0.83" d="M183.602 715.028H189.647V721.064H183.602V715.028Z" fill="white"/>
<path opacity="0.99" d="M175.484 715.028H181.529V721.064H175.484V715.028Z" fill="white"/>
<path opacity="0.62" d="M167.366 715.028H173.411V721.064H167.366V715.028Z" fill="white"/>
<path opacity="0.87" d="M159.248 715.028H165.294V721.064H159.248V715.028Z" fill="white"/>
<path opacity="0.14" d="M151.303 715.028H157.348V721.064H151.303V715.028Z" fill="white"/>
<path opacity="0.12" d="M143.185 715.028H149.23V721.064H143.185V715.028Z" fill="white"/>
<path opacity="0.11" d="M135.067 715.028H141.113V721.064H135.067V715.028Z" fill="white"/>
<path opacity="0.39" d="M127.122 715.028H133.167V721.064H127.122V715.028Z" fill="white"/>
<path opacity="0.58" d="M119.004 715.028H125.05V721.064H119.004V715.028Z" fill="white"/>
<path opacity="0.54" d="M110.887 715.028H116.932V721.064H110.887V715.028Z" fill="white"/>
<path opacity="0.99" d="M191.547 722.961H197.592V728.996H191.547V722.961Z" fill="white"/>
<path opacity="0.28" d="M183.602 722.961H189.647V728.996H183.602V722.961Z" fill="white"/>
<path opacity="0.78" d="M175.484 722.961H181.529V728.996H175.484V722.961Z" fill="white"/>
<path opacity="0.65" d="M167.366 722.961H173.411V728.996H167.366V722.961Z" fill="white"/>
<path opacity="0.32" d="M159.248 722.961H165.294V728.996H159.248V722.961Z" fill="white"/>
<path opacity="0.55" d="M151.303 722.961H157.348V728.996H151.303V722.961Z" fill="white"/>
<path opacity="0.4" d="M143.185 722.961H149.23V728.996H143.185V722.961Z" fill="white"/>
<path opacity="0.22" d="M135.067 722.961H141.113V728.996H135.067V722.961Z" fill="white"/>
<path opacity="0.87" d="M127.122 722.961H133.167V728.996H127.122V722.961Z" fill="white"/>
<path opacity="0.02" d="M119.004 722.961H125.05V728.996H119.004V722.961Z" fill="white"/>
<path opacity="0.39" d="M110.887 722.961H116.932V728.996H110.887V722.961Z" fill="white"/>
<path opacity="0.89" d="M191.547 730.893H197.592V736.929H191.547V730.893Z" fill="white"/>
<path opacity="0.97" d="M183.602 730.893H189.647V736.929H183.602V730.893Z" fill="white"/>
<path opacity="0.79" d="M175.484 730.893H181.529V736.929H175.484V730.893Z" fill="white"/>
<path opacity="0.41" d="M167.366 730.893H173.411V736.929H167.366V730.893Z" fill="white"/>
<path opacity="0.13" d="M159.248 730.893H165.294V736.929H159.248V730.893Z" fill="white"/>
<path opacity="0.9" d="M151.303 730.893H157.348V736.929H151.303V730.893Z" fill="white"/>
<path opacity="0.98" d="M143.185 730.893H149.23V736.929H143.185V730.893Z" fill="white"/>
<path opacity="0.67" d="M135.067 730.893H141.113V736.929H135.067V730.893Z" fill="white"/>
<path opacity="0.65" d="M127.122 730.893H133.167V736.929H127.122V730.893Z" fill="white"/>
<path opacity="0.89" d="M119.004 730.893H125.05V736.929H119.004V730.893Z" fill="white"/>
<path opacity="0.98" d="M110.887 730.893H116.932V736.929H110.887V730.893Z" fill="white"/>
<path opacity="0.29" d="M191.547 738.826H197.592V744.861H191.547V738.826Z" fill="white"/>
<path opacity="0.74" d="M183.602 738.826H189.647V744.861H183.602V738.826Z" fill="white"/>
<path opacity="0.64" d="M175.484 738.826H181.529V744.861H175.484V738.826Z" fill="white"/>
<path opacity="0.65" d="M167.366 738.826H173.411V744.861H167.366V738.826Z" fill="white"/>
<path opacity="0.07" d="M159.248 738.826H165.294V744.861H159.248V738.826Z" fill="white"/>
<path opacity="0.16" d="M151.303 738.826H157.348V744.861H151.303V738.826Z" fill="white"/>
<path opacity="0.84" d="M143.185 738.826H149.23V744.861H143.185V738.826Z" fill="white"/>
<path opacity="0.88" d="M135.067 738.826H141.113V744.861H135.067V738.826Z" fill="white"/>
<path opacity="0.57" d="M127.122 738.826H133.167V744.861H127.122V738.826Z" fill="white"/>
<path opacity="0.31" d="M119.004 738.826H125.05V744.861H119.004V738.826Z" fill="white"/>
<path opacity="0.03" d="M110.887 738.826H116.932V744.861H110.887V738.826Z" fill="white"/>
<path opacity="0.3" d="M191.547 746.758H197.592V752.794H191.547V746.758Z" fill="white"/>
<path opacity="0.59" d="M183.602 746.758H189.647V752.794H183.602V746.758Z" fill="white"/>
<path opacity="0.93" d="M175.484 746.758H181.529V752.794H175.484V746.758Z" fill="white"/>
<path opacity="0.06" d="M167.366 746.758H173.411V752.794H167.366V746.758Z" fill="white"/>
<path opacity="0.74" d="M159.248 746.758H165.294V752.794H159.248V746.758Z" fill="white"/>
<path opacity="0.22" d="M151.303 746.758H157.348V752.794H151.303V746.758Z" fill="white"/>
<path opacity="0.51" d="M143.185 746.758H149.23V752.794H143.185V746.758Z" fill="white"/>
<path opacity="0.7" d="M135.067 746.758H141.113V752.794H135.067V746.758Z" fill="white"/>
<path opacity="0.47" d="M127.122 746.758H133.167V752.794H127.122V746.758Z" fill="white"/>
<path opacity="0.08" d="M119.004 746.758H125.05V752.794H119.004V746.758Z" fill="white"/>
<path opacity="0.93" d="M110.887 746.758H116.932V752.794H110.887V746.758Z" fill="white"/>
<path opacity="0.81" d="M191.547 754.691H197.592V760.726H191.547V754.691Z" fill="white"/>
<path opacity="0.9" d="M183.602 754.691H189.647V760.726H183.602V754.691Z" fill="white"/>
<path opacity="0.55" d="M175.484 754.691H181.529V760.726H175.484V754.691Z" fill="white"/>
<path opacity="0.14" d="M167.366 754.691H173.411V760.726H167.366V754.691Z" fill="white"/>
<path opacity="0.66" d="M159.248 754.691H165.294V760.726H159.248V754.691Z" fill="white"/>
<path opacity="0.92" d="M151.303 754.691H157.348V760.726H151.303V754.691Z" fill="white"/>
<path opacity="0.4" d="M143.185 754.691H149.23V760.726H143.185V754.691Z" fill="white"/>
<path opacity="0.6" d="M135.067 754.691H141.113V760.726H135.067V754.691Z" fill="white"/>
<path opacity="0.99" d="M127.122 754.691H133.167V760.726H127.122V754.691Z" fill="white"/>
<path opacity="0.68" d="M119.004 754.691H125.05V760.726H119.004V754.691Z" fill="white"/>
<path opacity="0.01" d="M110.887 754.691H116.932V760.726H110.887V754.691Z" fill="white"/>
<path opacity="0.82" d="M191.547 762.623H197.592V768.658H191.547V762.623Z" fill="white"/>
<path opacity="0.92" d="M183.602 762.623H189.647V768.658H183.602V762.623Z" fill="white"/>
<path opacity="0.29" d="M175.484 762.623H181.529V768.658H175.484V762.623Z" fill="white"/>
<path opacity="0.73" d="M167.366 762.623H173.411V768.658H167.366V762.623Z" fill="white"/>
<path opacity="0.42" d="M159.248 762.623H165.294V768.658H159.248V762.623Z" fill="white"/>
<path opacity="0.06" d="M151.303 762.623H157.348V768.658H151.303V762.623Z" fill="white"/>
<path opacity="0.7" d="M143.185 762.623H149.23V768.658H143.185V762.623Z" fill="white"/>
<path opacity="0.97" d="M135.067 762.623H141.113V768.658H135.067V762.623Z" fill="white"/>
<path opacity="0.51" d="M127.122 762.623H133.167V768.658H127.122V762.623Z" fill="white"/>
<path opacity="0.69" d="M119.004 762.623H125.05V768.658H119.004V762.623Z" fill="white"/>
<path opacity="0.49" d="M110.887 762.623H116.932V768.658H110.887V762.623Z" fill="white"/>
<path opacity="0.45" d="M191.547 770.555H197.592V776.591H191.547V770.555Z" fill="white"/>
<path opacity="0.46" d="M183.602 770.555H189.647V776.591H183.602V770.555Z" fill="white"/>
<path opacity="0.04" d="M175.484 770.555H181.529V776.591H175.484V770.555Z" fill="white"/>
<path opacity="0.56" d="M167.366 770.555H173.411V776.591H167.366V770.555Z" fill="white"/>
<path opacity="0.4" d="M159.248 770.555H165.294V776.591H159.248V770.555Z" fill="white"/>
<path opacity="0.59" d="M151.303 770.555H157.348V776.591H151.303V770.555Z" fill="white"/>
<path opacity="0.82" d="M143.185 770.555H149.23V776.591H143.185V770.555Z" fill="white"/>
<path opacity="0.99" d="M135.067 770.555H141.113V776.591H135.067V770.555Z" fill="white"/>
<path opacity="0.1" d="M127.122 770.555H133.167V776.591H127.122V770.555Z" fill="white"/>
<path opacity="0.87" d="M119.004 770.555H125.05V776.591H119.004V770.555Z" fill="white"/>
<path d="M110.887 770.555H116.932V776.591H110.887V770.555Z" fill="white"/>
<path d="M293.625 596.732H350.622V775.04H293.625V596.732Z" fill="#333333"/>
<path d="M324.714 587.765H350.622V597.766H324.714V587.765Z" fill="#333333"/>
<path d="M335.596 581.902H350.622V587.765H335.596V581.902Z" fill="#333333"/>
<path opacity="0.25" d="M317.633 609.32H326.96V618.632H317.633V609.32Z" fill="white"/>
<path opacity="0.15" d="M317.633 632.255H326.96V641.567H317.633V632.255Z" fill="white"/>
<path opacity="0.19" d="M317.633 677.953H326.96V687.265H317.633V677.953Z" fill="white"/>
<path opacity="0.17" d="M317.633 700.716H326.96V710.028H317.633V700.716Z" fill="white"/>
<path opacity="0.22" d="M317.633 723.478H326.96V732.79H317.633V723.478Z" fill="white"/>
<path d="M317.633 746.414H326.96V755.726H317.633V746.414Z" fill="white"/>
<path d="M335.941 696.06H389.312V711.752H335.941V696.06Z" fill="#333333"/>
<path d="M309.342 696.06H335.941V711.752H309.342V696.06Z" fill="#4D4D4D"/>
<path d="M389.312 696.06L372.73 688.127L335.941 696.06H389.312Z" fill="#333333"/>
<path d="M372.73 688.127L335.941 696.06H309.342L372.73 688.127Z" fill="#4D4D4D"/>
<path d="M323.505 707.096H401.575V778.488H323.505V707.096Z" fill="#333333"/>
<path d="M297.597 707.096H323.505V778.488H297.597V707.096Z" fill="#4D4D4D"/>
<path opacity="0.81" d="M303.642 712.097H317.633V717.27H303.642V712.097Z" fill="white"/>
<path opacity="0.76" d="M303.642 721.581H317.633V726.754H303.642V721.581Z" fill="white"/>
<path opacity="0.32" d="M303.642 731.066H317.633V736.239H303.642V731.066Z" fill="white"/>
<path opacity="0.49" d="M303.642 740.723H317.633V745.896H303.642V740.723Z" fill="white"/>
<path opacity="0.99" d="M303.642 759.691H317.633V764.865H303.642V759.691Z" fill="white"/>
<path opacity="0.1" d="M375.148 712.097H389.139V717.27H375.148V712.097Z" fill="white"/>
<path opacity="0.04" d="M355.631 712.097H369.622V717.27H355.631V712.097Z" fill="white"/>
<path opacity="0.07" d="M335.941 712.097H349.931V717.27H335.941V712.097Z" fill="white"/>
<path opacity="0.06" d="M375.148 721.582H389.139V726.755H375.148V721.582Z" fill="white"/>
<path opacity="0.44" d="M355.631 721.582H369.622V726.755H355.631V721.582Z" fill="white"/>
<path opacity="0.24" d="M335.941 721.582H349.931V726.755H335.941V721.582Z" fill="white"/>
<path opacity="0.55" d="M375.148 731.066H389.139V736.239H375.148V731.066Z" fill="white"/>
<path opacity="0.02" d="M355.631 731.066H369.622V736.239H355.631V731.066Z" fill="white"/>
<path opacity="0.14" d="M335.941 731.066H349.931V736.239H335.941V731.066Z" fill="white"/>
<path opacity="0.43" d="M375.148 740.723H389.139V745.896H375.148V740.723Z" fill="white"/>
<path opacity="0.41" d="M355.631 740.723H369.622V745.896H355.631V740.723Z" fill="white"/>
<path opacity="0.46" d="M335.941 740.723H349.931V745.896H335.941V740.723Z" fill="white"/>
<path opacity="0.45" d="M375.148 750.207H389.139V755.38H375.148V750.207Z" fill="white"/>
<path opacity="0.33" d="M355.631 750.207H369.622V755.38H355.631V750.207Z" fill="white"/>
<path opacity="0.05" d="M335.941 750.207H349.931V755.38H335.941V750.207Z" fill="white"/>
<path opacity="0.27" d="M375.148 759.692H389.139V764.865H375.148V759.692Z" fill="white"/>
<path opacity="0.15" d="M355.631 759.692H369.622V764.865H355.631V759.692Z" fill="white"/>
<path opacity="0.7" d="M335.941 759.692H349.931V764.865H335.941V759.692Z" fill="white"/>
<path d="M703.317 635.704H751.679V784.524H703.317V635.704Z" fill="#333333"/>
<path d="M648.219 635.704H703.144V784.524H648.219V635.704Z" fill="#4D4D4D"/>
<path d="M703.317 648.293H751.679V650.88H703.317V648.293Z" fill="#4D4D4D"/>
<path d="M648.219 648.293H703.144V650.88H648.219V648.293Z" fill="#333333"/>
<path opacity="0.32" d="M728.361 653.811H733.543V658.984H728.361V653.811Z" fill="white"/>
<path opacity="0.25" d="M721.28 653.811H726.462V658.984H721.28V653.811Z" fill="white"/>
<path opacity="0.12" d="M707.117 653.811H712.298V658.984H707.117V653.811Z" fill="white"/>
<path opacity="0.22" d="M728.361 660.881H733.543V666.055H728.361V660.881Z" fill="white"/>
<path opacity="0.47" d="M721.28 660.881H726.462V666.055H721.28V660.881Z" fill="white"/>
<path opacity="0.22" d="M714.198 660.881H719.38V666.055H714.198V660.881Z" fill="white"/>
<path opacity="0.32" d="M707.117 660.881H712.298V666.055H707.117V660.881Z" fill="white"/>
<path opacity="0.18" d="M728.361 667.952H733.543V673.125H728.361V667.952Z" fill="white"/>
<path opacity="0.28" d="M721.28 667.952H726.462V673.125H721.28V667.952Z" fill="white"/>
<path opacity="0.2" d="M707.117 667.952H712.298V673.125H707.117V667.952Z" fill="white"/>
<path opacity="0.33" d="M728.361 675.022H733.543V680.195H728.361V675.022Z" fill="white"/>
<path opacity="0.05" d="M721.28 675.022H726.462V680.195H721.28V675.022Z" fill="white"/>
<path opacity="0.08" d="M714.198 675.022H719.38V680.195H714.198V675.022Z" fill="white"/>
<path opacity="0.08" d="M721.28 682.092H726.462V687.265H721.28V682.092Z" fill="white"/>
<path opacity="0.02" d="M714.198 682.092H719.38V687.265H714.198V682.092Z" fill="white"/>
<path opacity="0.05" d="M728.361 689.162H733.543V694.336H728.361V689.162Z" fill="white"/>
<path opacity="0.2" d="M721.28 689.162H726.462V694.336H721.28V689.162Z" fill="white"/>
<path opacity="0.23" d="M714.198 689.162H719.38V694.336H714.198V689.162Z" fill="white"/>
<path opacity="0.14" d="M728.361 696.233H733.543V701.406H728.361V696.233Z" fill="white"/>
<path opacity="0.24" d="M714.198 696.233H719.38V701.406H714.198V696.233Z" fill="white"/>
<path opacity="0.23" d="M728.361 703.303H733.543V708.476H728.361V703.303Z" fill="white"/>
<path opacity="0.02" d="M721.28 703.303H726.462V708.476H721.28V703.303Z" fill="white"/>
<path opacity="0.04" d="M714.198 703.303H719.38V708.476H714.198V703.303Z" fill="white"/>
<path opacity="0.3" d="M707.117 703.303H712.298V708.476H707.117V703.303Z" fill="white"/>
<path opacity="0.4" d="M707.117 710.2H712.298V715.374H707.117V710.2Z" fill="white"/>
<path opacity="0.12" d="M728.361 717.271H733.543V722.444H728.361V717.271Z" fill="white"/>
<path opacity="0.19" d="M714.198 717.271H719.38V722.444H714.198V717.271Z" fill="white"/>
<path opacity="0.43" d="M707.117 717.271H712.298V722.444H707.117V717.271Z" fill="white"/>
<path opacity="0.42" d="M721.28 724.341H726.462V729.514H721.28V724.341Z" fill="white"/>
<path opacity="0.31" d="M707.117 724.341H712.298V729.514H707.117V724.341Z" fill="white"/>
<path opacity="0.31" d="M721.28 731.411H726.462V736.585H721.28V731.411Z" fill="white"/>
<path opacity="0.33" d="M707.117 731.411H712.298V736.585H707.117V731.411Z" fill="white"/>
<path opacity="0.17" d="M721.28 738.481H726.462V743.655H721.28V738.481Z" fill="white"/>
<path opacity="0.01" d="M714.198 738.481H719.38V743.655H714.198V738.481Z" fill="white"/>
<path opacity="0.48" d="M707.117 738.481H712.298V743.655H707.117V738.481Z" fill="white"/>
<path opacity="0.28" d="M728.361 745.551H733.543V750.725H728.361V745.551Z" fill="white"/>
<path opacity="0.02" d="M721.28 745.551H726.462V750.725H721.28V745.551Z" fill="white"/>
<path opacity="0.17" d="M714.198 745.551H719.38V750.725H714.198V745.551Z" fill="white"/>
<path opacity="0.42" d="M707.117 745.551H712.298V750.725H707.117V745.551Z" fill="white"/>
<path opacity="0.11" d="M728.361 752.622H733.543V757.795H728.361V752.622Z" fill="white"/>
<path opacity="0.02" d="M721.28 752.622H726.462V757.795H721.28V752.622Z" fill="white"/>
<path opacity="0.3" d="M707.117 752.622H712.298V757.795H707.117V752.622Z" fill="white"/>
<path opacity="0.19" d="M728.361 759.692H733.543V764.865H728.361V759.692Z" fill="white"/>
<path opacity="0.05" d="M721.28 759.692H726.462V764.865H721.28V759.692Z" fill="white"/>
<path opacity="0.2" d="M707.117 759.692H712.298V764.865H707.117V759.692Z" fill="white"/>
<path opacity="0.27" d="M721.28 766.762H726.462V771.936H721.28V766.762Z" fill="white"/>
<path opacity="0.13" d="M714.198 766.762H719.38V771.936H714.198V766.762Z" fill="white"/>
<path opacity="0.46" d="M728.361 773.832H733.543V779.006H728.361V773.832Z" fill="white"/>
<path opacity="0.12" d="M721.28 773.832H726.462V779.006H721.28V773.832Z" fill="white"/>
<path opacity="0.04" d="M714.198 773.832H719.38V779.006H714.198V773.832Z" fill="white"/>
<path opacity="0.3" d="M707.117 773.832H712.298V779.006H707.117V773.832Z" fill="white"/>
<path opacity="0.08" d="M714.198 653.811H719.38V658.984H714.198V653.811Z" fill="white"/>
<path opacity="0.08" d="M714.198 667.952H719.38V673.125H714.198V667.952Z" fill="white"/>
<path opacity="0.01" d="M707.117 675.022H712.298V680.195H707.117V675.022Z" fill="white"/>
<path opacity="0.15" d="M728.361 682.092H733.543V687.265H728.361V682.092Z" fill="white"/>
<path opacity="0.12" d="M707.117 682.092H712.298V687.265H707.117V682.092Z" fill="white"/>
<path opacity="0.13" d="M721.28 696.233H726.462V701.406H721.28V696.233Z" fill="white"/>
<path opacity="0.07" d="M707.117 696.233H712.298V701.406H707.117V696.233Z" fill="white"/>
<path opacity="0.02" d="M728.361 710.2H733.543V715.374H728.361V710.2Z" fill="white"/>
<path opacity="0.02" d="M721.28 710.2H726.462V715.374H721.28V710.2Z" fill="white"/>
<path opacity="0.14" d="M714.198 710.2H719.38V715.374H714.198V710.2Z" fill="white"/>
<path opacity="0.09" d="M728.361 724.341H733.543V729.514H728.361V724.341Z" fill="white"/>
<path opacity="0.02" d="M714.198 724.341H719.38V729.514H714.198V724.341Z" fill="white"/>
<path opacity="0.19" d="M728.361 731.411H733.543V736.585H728.361V731.411Z" fill="white"/>
<path opacity="0.06" d="M714.198 731.411H719.38V736.585H714.198V731.411Z" fill="white"/>
<path opacity="0.16" d="M728.361 738.481H733.543V743.655H728.361V738.481Z" fill="white"/>
<path opacity="0.04" d="M714.198 752.622H719.38V757.795H714.198V752.622Z" fill="white"/>
<path opacity="0.04" d="M714.198 759.692H719.38V764.865H714.198V759.692Z" fill="white"/>
<path opacity="0.18" d="M707.117 766.762H712.298V771.936H707.117V766.762Z" fill="white"/>
<g opacity="0.7">
<path opacity="0.7" d="M692.781 650.879H698.135V777.971H692.781V650.879Z" fill="#E6E6E6"/>
<path opacity="0.7" d="M683.627 650.879H688.981V777.971H683.627V650.879Z" fill="#E6E6E6"/>
<path opacity="0.7" d="M674.3 650.879H679.654V777.971H674.3V650.879Z" fill="#E6E6E6"/>
<path opacity="0.7" d="M664.973 650.879H670.327V777.971H664.973V650.879Z" fill="#E6E6E6"/>
<path opacity="0.7" d="M655.646 650.879H661V777.971H655.646V650.879Z" fill="#E6E6E6"/>
</g>
<path d="M620.584 777.971H728.016L620.584 684.506V777.971Z" fill="#333333"/>
<path d="M629.738 761.417H666.7V782.11H629.738V761.417Z" fill="#4D4D4D"/>
<path d="M632.502 756.588H663.937V766.245H632.502V756.588Z" fill="#4D4D4D"/>
<path d="M636.129 759.52H660.483L652.019 745.379H644.592L636.129 759.52Z" fill="#4D4D4D"/>
<path d="M639.583 765.555H656.855V778.144H639.583V765.555Z" fill="white"/>
<path d="M637.511 770.556H658.928V773.143H637.511V770.556Z" fill="#4D4D4D"/>
<path d="M464.79 795.388C464.272 808.839 474.635 820.392 488.28 820.91C501.752 821.427 513.325 810.908 513.843 797.457C514.361 784.007 503.998 772.453 490.353 771.936C476.881 771.418 465.481 781.937 464.79 795.388Z" fill="#333333"/>
<path d="M468.935 788.662C468.59 796.422 474.635 802.975 482.408 803.32C490.18 803.665 496.743 797.63 497.089 789.87C497.434 782.11 491.389 775.557 483.617 775.212C475.844 774.867 469.281 780.902 468.935 788.662Z" fill="#4D4D4D"/>
<path d="M711.435 770.039C711.435 773.315 714.198 776.074 717.48 776.074C720.762 776.074 723.525 773.315 723.525 770.039C723.525 766.762 720.762 764.003 717.48 764.003C714.198 764.003 711.435 766.59 711.435 770.039Z" fill="#333333"/>
<path d="M709.362 776.074C709.362 780.558 712.989 784.179 717.48 784.179C721.971 784.179 725.598 780.558 725.598 776.074C725.598 771.591 721.971 767.969 717.48 767.969C712.989 767.969 709.362 771.591 709.362 776.074Z" fill="#333333"/>
<path d="M713.507 764.865C713.507 767.107 715.235 769.004 717.48 769.004C719.725 769.004 721.453 767.107 721.453 764.865C721.453 762.624 719.725 760.727 717.48 760.727C715.235 760.727 713.507 762.624 713.507 764.865Z" fill="#333333"/>
<path d="M712.298 770.039C712.298 771.936 713.853 773.488 715.753 773.488C717.653 773.488 719.207 771.936 719.207 770.039C719.207 768.142 717.653 766.59 715.753 766.59C713.853 766.59 712.298 768.142 712.298 770.039Z" fill="#4D4D4D"/>
<path d="M714.026 765.383C714.026 766.762 715.235 767.969 716.616 767.969C717.998 767.969 719.207 766.762 719.207 765.383C719.207 764.003 717.998 762.796 716.616 762.796C715.235 762.624 714.026 763.831 714.026 765.383Z" fill="#4D4D4D"/>
<path d="M596.23 782.627C596.23 786.938 599.857 790.56 604.175 790.56C608.493 790.56 612.121 786.938 612.121 782.627C612.121 778.316 608.666 774.694 604.175 774.694C599.857 774.694 596.23 778.316 596.23 782.627Z" fill="#333333"/>
<path d="M598.994 775.902C598.994 778.833 601.239 781.248 604.175 781.248C607.112 781.248 609.357 778.833 609.357 775.902C609.357 772.97 607.112 770.556 604.175 770.556C601.412 770.556 598.994 772.97 598.994 775.902Z" fill="#333333"/>
<path d="M599.685 776.419C599.685 778.316 601.239 779.868 603.139 779.868C605.039 779.868 606.594 778.316 606.594 776.419C606.594 774.522 605.039 772.97 603.139 772.97C601.239 772.97 599.685 774.522 599.685 776.419Z" fill="#4D4D4D"/>
<path d="M606.939 788.49C607.803 796.768 615.23 802.631 623.347 801.769C631.638 800.906 637.511 793.491 636.647 785.386C635.783 777.109 628.356 771.246 620.239 772.108C612.121 772.97 606.075 780.213 606.939 788.49Z" fill="#333333"/>
<path d="M610.739 775.212C611.257 780.73 616.093 784.869 621.62 784.352C626.975 783.834 630.947 778.834 630.429 773.315C629.911 767.797 625.075 763.658 619.548 764.176C614.021 764.693 610.221 769.694 610.739 775.212Z" fill="#333333"/>
<path d="M612.121 776.247C612.466 779.868 615.748 782.455 619.202 782.11C622.829 781.765 625.42 778.489 625.075 775.04C624.729 771.418 621.448 768.832 617.993 769.177C614.366 769.521 611.775 772.798 612.121 776.247Z" fill="#4D4D4D"/>
<path d="M528.697 781.248C528.697 788.835 534.742 794.871 542.342 794.871C549.942 794.871 555.987 788.835 555.987 781.248C555.987 773.66 549.942 767.625 542.342 767.625C534.915 767.625 528.697 773.66 528.697 781.248Z" fill="#333333"/>
<path d="M533.533 769.521C533.533 774.695 537.506 778.833 542.514 778.833C547.523 778.833 551.496 774.695 551.496 769.521C551.496 764.348 547.523 760.209 542.514 760.209C537.506 760.382 533.533 764.52 533.533 769.521Z" fill="#333333"/>
<path d="M530.769 781.248C530.769 785.559 534.224 789.18 538.715 789.18C543.033 789.18 546.66 785.731 546.66 781.248C546.66 776.937 543.205 773.315 538.715 773.315C534.397 773.488 530.769 776.937 530.769 781.248Z" fill="#4D4D4D"/>
<path d="M534.742 770.728C534.742 774.005 537.333 776.764 540.787 776.764C544.069 776.764 546.832 774.177 546.832 770.728C546.832 767.452 544.242 764.865 540.787 764.865C537.333 764.693 534.742 767.452 534.742 770.728Z" fill="#4D4D4D"/>
<path d="M558.923 792.629C558.923 802.286 566.868 810.218 576.54 810.218C586.213 810.218 594.158 802.286 594.158 792.629C594.158 782.972 586.213 775.039 576.54 775.039C566.868 775.039 558.923 782.799 558.923 792.629Z" fill="#333333"/>
<path d="M564.968 777.454C564.968 784.006 570.15 789.352 576.54 789.352C582.931 789.352 588.113 784.006 588.113 777.454C588.113 770.901 582.931 765.555 576.54 765.555C570.15 765.555 564.968 770.901 564.968 777.454Z" fill="#333333"/>
<path d="M566.523 779.006C566.523 783.317 569.977 786.593 574.295 786.593C578.613 786.593 582.068 783.144 582.068 779.006C582.068 774.695 578.613 771.246 574.295 771.246C569.977 771.246 566.523 774.695 566.523 779.006Z" fill="#4D4D4D"/>
<path d="M516.261 779.523C516.261 781.592 517.815 783.144 519.715 783.144C521.615 783.144 523.17 781.592 523.17 779.523C523.17 777.454 521.615 775.902 519.715 775.902C517.815 775.902 516.261 777.454 516.261 779.523Z" fill="#333333"/>
<path d="M441.991 775.212C441.991 781.937 447.346 787.283 454.082 787.283C460.818 787.283 466.172 781.937 466.172 775.212C466.172 768.487 460.818 763.141 454.082 763.141C447.346 763.141 441.991 768.487 441.991 775.212Z" fill="#333333"/>
<path d="M437.846 787.283C437.846 796.251 445.1 803.493 454.082 803.493C463.063 803.493 470.317 796.251 470.317 787.283C470.317 778.316 463.063 771.074 454.082 771.074C445.1 771.074 437.846 778.316 437.846 787.283Z" fill="#333333"/>
<path d="M446.136 764.866C446.136 769.349 449.764 773.143 454.082 773.143C458.4 773.143 462.027 769.522 462.027 764.866C462.027 760.382 458.4 756.588 454.082 756.588C449.764 756.588 446.136 760.382 446.136 764.866Z" fill="#333333"/>
<path d="M443.891 775.212C443.891 779.006 447 782.11 450.8 782.11C454.6 782.11 457.709 779.006 457.709 775.212C457.709 771.418 454.6 768.314 450.8 768.314C447 768.314 443.891 771.418 443.891 775.212Z" fill="#4D4D4D"/>
<path d="M447.173 765.9C447.173 768.832 449.591 771.246 452.527 771.246C455.463 771.246 457.881 768.832 457.881 765.9C457.881 762.969 455.463 760.555 452.527 760.555C449.591 760.555 447.173 762.969 447.173 765.9Z" fill="#4D4D4D"/>
<path d="M396.911 790.387C396.911 799.354 404.165 806.597 413.147 806.597C422.128 806.597 429.383 799.354 429.383 790.387C429.383 781.42 422.128 774.177 413.147 774.177C404.165 774.35 396.911 781.593 396.911 790.387Z" fill="#333333"/>
<path d="M402.611 776.592C402.611 782.627 407.447 787.628 413.147 787.628C419.02 787.628 423.856 782.8 423.856 776.592C423.856 770.556 419.02 765.728 413.147 765.728C407.275 765.728 402.611 770.556 402.611 776.592Z" fill="#333333"/>
<path d="M403.993 777.971C403.993 781.938 407.102 785.042 411.074 785.042C415.047 785.042 418.156 781.938 418.156 777.971C418.156 774.005 415.047 770.901 411.074 770.901C407.102 770.901 403.993 774.005 403.993 777.971Z" fill="#4D4D4D"/>
<path d="M132.649 796.94C132.649 811.77 144.567 823.669 159.421 823.669C174.275 823.669 186.193 811.77 186.193 796.94C186.193 782.11 174.275 770.211 159.421 770.211C144.567 770.211 132.649 782.282 132.649 796.94Z" fill="#333333"/>
<path d="M136.622 789.525C136.622 797.975 143.531 804.873 151.994 804.873C160.457 804.873 167.366 797.975 167.366 789.525C167.366 781.075 160.457 774.178 151.994 774.178C143.531 774.178 136.622 781.075 136.622 789.525Z" fill="#4D4D4D"/>
<path d="M98.2778 785.386C98.2778 797.802 108.468 807.977 120.904 807.977C133.34 807.977 143.531 797.802 143.531 785.386C143.531 772.97 133.34 762.796 120.904 762.796C108.296 762.796 98.2778 772.798 98.2778 785.386Z" fill="#333333"/>
<path d="M101.732 779.006C101.732 786.249 107.605 791.939 114.686 791.939C121.941 791.939 127.64 786.076 127.64 779.006C127.64 771.936 121.768 766.073 114.686 766.073C107.605 766.073 101.732 771.936 101.732 779.006Z" fill="#4D4D4D"/>
<path d="M155.966 789.008C155.966 801.424 166.157 811.598 178.593 811.598C191.029 811.598 201.219 801.424 201.219 789.008C201.219 776.592 191.029 766.417 178.593 766.417C165.984 766.417 155.966 776.419 155.966 789.008Z" fill="#333333"/>
<path d="M159.421 782.627C159.421 789.87 165.293 795.56 172.375 795.56C179.456 795.56 185.329 789.697 185.329 782.627C185.329 775.385 179.456 769.694 172.375 769.694C165.293 769.694 159.421 775.385 159.421 782.627Z" fill="#4D4D4D"/>
<path d="M225.745 794.181C225.745 806.597 235.936 816.771 248.372 816.771C260.808 816.771 270.998 806.597 270.998 794.181C270.998 781.765 260.808 771.591 248.372 771.591C235.763 771.591 225.745 781.765 225.745 794.181Z" fill="#333333"/>
<path d="M229.2 787.801C229.2 795.044 235.072 800.734 242.154 800.734C249.408 800.734 255.108 794.871 255.108 787.801C255.108 780.558 249.235 774.868 242.154 774.868C235.072 774.868 229.2 780.731 229.2 787.801Z" fill="#4D4D4D"/>
<path d="M253.035 790.387C253.035 802.803 263.226 812.978 275.662 812.978C288.098 812.978 298.288 802.803 298.288 790.387C298.288 777.971 288.098 767.797 275.662 767.797C263.226 767.797 253.035 777.799 253.035 790.387Z" fill="#333333"/>
<path d="M256.49 784.007C256.49 791.25 262.362 796.94 269.444 796.94C276.698 796.94 282.398 791.077 282.398 784.007C282.398 776.764 276.525 771.074 269.444 771.074C262.362 771.074 256.49 776.764 256.49 784.007Z" fill="#4D4D4D"/>
<path d="M235.418 786.766C235.418 794.008 241.29 799.699 248.372 799.699C255.626 799.699 261.326 793.836 261.326 786.766C261.326 779.523 255.453 773.832 248.372 773.832C241.118 773.832 235.418 779.695 235.418 786.766Z" fill="#4D4D4D"/>
<path d="M331.968 787.8C331.968 795.905 338.532 802.63 346.822 802.63C354.94 802.63 361.676 796.078 361.676 787.8C361.676 779.695 355.113 772.97 346.822 772.97C338.532 773.142 331.968 779.695 331.968 787.8Z" fill="#333333"/>
<path d="M334.214 783.662C334.214 788.318 338.014 792.111 342.677 792.111C347.34 792.111 351.14 788.318 351.14 783.662C351.14 779.006 347.34 775.212 342.677 775.212C338.014 775.212 334.214 779.006 334.214 783.662Z" fill="#4D4D4D"/>
<path d="M720.071 776.074C720.071 782.972 725.598 788.49 732.507 788.49C739.416 788.49 744.943 782.972 744.943 776.074C744.943 769.176 739.416 763.658 732.507 763.658C725.771 763.486 720.071 769.176 720.071 776.074Z" fill="#333333"/>
<path d="M715.926 788.49C715.926 797.802 723.353 805.217 732.68 805.217C742.006 805.217 749.433 797.802 749.433 788.49C749.433 779.178 742.006 771.763 732.68 771.763C723.353 771.763 715.926 779.178 715.926 788.49Z" fill="#333333"/>
<path d="M724.389 765.383C724.389 770.039 728.016 773.832 732.68 773.832C737.17 773.832 740.97 770.039 740.97 765.383C740.97 760.727 737.343 756.933 732.68 756.933C728.016 756.933 724.389 760.727 724.389 765.383Z" fill="#333333"/>
<path d="M721.971 776.074C721.971 780.04 725.253 783.317 729.225 783.317C733.198 783.317 736.479 780.04 736.479 776.074C736.479 772.108 733.198 768.831 729.225 768.831C725.253 768.831 721.971 772.108 721.971 776.074Z" fill="#4D4D4D"/>
<path d="M725.425 766.417C725.425 769.349 727.843 771.936 730.952 771.936C733.889 771.936 736.479 769.521 736.479 766.417C736.479 763.486 734.061 760.899 730.952 760.899C728.016 760.899 725.425 763.313 725.425 766.417Z" fill="#4D4D4D"/>
<path d="M661.173 780.903C661.173 786.421 665.664 790.905 671.191 790.905C676.718 790.905 681.209 786.421 681.209 780.903C681.209 775.385 676.718 770.901 671.191 770.901C665.664 770.901 661.173 775.385 661.173 780.903Z" fill="#333333"/>
<path d="M664.628 772.281C664.628 776.075 667.564 779.179 671.191 779.179C674.818 779.179 677.755 776.075 677.755 772.281C677.755 768.487 674.818 765.383 671.191 765.383C667.564 765.556 664.628 768.487 664.628 772.281Z" fill="#333333"/>
<path d="M662.728 780.903C662.728 784.179 665.319 786.766 668.6 786.766C671.882 786.766 674.473 784.179 674.473 780.903C674.473 777.799 671.882 775.212 668.6 775.212C665.319 775.04 662.728 777.627 662.728 780.903Z" fill="#4D4D4D"/>
<path d="M665.491 773.143C665.491 775.557 667.391 777.454 669.809 777.454C672.227 777.454 674.127 775.557 674.127 773.143C674.127 770.729 672.227 768.832 669.809 768.832C667.391 768.659 665.491 770.729 665.491 773.143Z" fill="#4D4D4D"/>
</g>
<defs>
<clipPath id="clip0_1_209">
<rect width="1127" height="776" fill="white" transform="matrix(-1 0 0 1 1127 0.194336)"/>
</clipPath>
</defs>
</svg>
