<svg width="729" height="777" viewBox="0 0 729 777" fill="none" xmlns="http://www.w3.org/2000/svg">
<g opacity="0.05" clip-path="url(#clip0_1_1421)">
<path d="M257.128 646.569H200.13V779.868H257.128V646.569Z" fill="#333333"/>
<path d="M226.038 639.844H200.13V647.431H226.038V639.844Z" fill="#333333"/>
<path d="M215.157 635.532H200.13V639.844H215.157V635.532Z" fill="#333333"/>
<path opacity="0.06" d="M233.293 655.881H223.966V662.779H233.293V655.881Z" fill="white"/>
<path opacity="0.12" d="M233.293 672.953H223.966V679.851H233.293V672.953Z" fill="white"/>
<path opacity="0.19" d="M233.293 707.097H223.966V713.995H233.293V707.097Z" fill="white"/>
<path opacity="0.14" d="M233.293 741.241H223.966V748.139H233.293V741.241Z" fill="white"/>
<path opacity="0.1" d="M233.293 758.313H223.966V765.211H233.293V758.313Z" fill="white"/>
<path d="M114.116 661.054H36.0461V732.445H114.116V661.054Z" fill="#333333"/>
<path d="M101.853 654.673H48.482V685.368H101.853V654.673Z" fill="#333333"/>
<path d="M119.815 706.061H41.7458V777.453H119.815V706.061Z" fill="#333333"/>
<path d="M107.38 699.681H54.009V730.376H107.38V699.681Z" fill="#333333"/>
<path d="M223.793 696.577H145.724V778.833H223.793V696.577Z" fill="#333333"/>
<path d="M211.53 689.334H158.159V724.858H211.53V689.334Z" fill="#333333"/>
<path d="M485.119 721.582H407.049V801.079H485.119V721.582Z" fill="#333333"/>
<path d="M472.856 714.512H419.485V748.828H472.856V714.512Z" fill="#333333"/>
<path d="M315.853 557.415H228.629V778.661H315.853V557.415Z" fill="#333333"/>
<path opacity="0.46" d="M254.019 567.417H232.947V571.383H254.019V567.417Z" fill="#E6E6E6"/>
<path opacity="0.34" d="M282.863 567.417H261.792V571.383H282.863V567.417Z" fill="#E6E6E6"/>
<path opacity="0.52" d="M311.535 567.417H290.463V571.383H311.535V567.417Z" fill="#E6E6E6"/>
<path opacity="0.54" d="M254.019 576.556H232.947V580.523H254.019V576.556Z" fill="#E6E6E6"/>
<path opacity="0.3" d="M282.863 576.556H261.792V580.523H282.863V576.556Z" fill="#E6E6E6"/>
<path opacity="0.06" d="M311.535 576.556H290.463V580.523H311.535V576.556Z" fill="#E6E6E6"/>
<path opacity="0.15" d="M254.019 585.696H232.947V589.662H254.019V585.696Z" fill="#E6E6E6"/>
<path opacity="0.42" d="M282.863 585.696H261.792V589.662H282.863V585.696Z" fill="#E6E6E6"/>
<path opacity="0.48" d="M311.535 585.696H290.463V589.662H311.535V585.696Z" fill="#E6E6E6"/>
<path opacity="0.18" d="M254.019 594.835H232.947V598.802H254.019V594.835Z" fill="#E6E6E6"/>
<path opacity="0.28" d="M311.535 594.835H290.463V598.802H311.535V594.835Z" fill="#E6E6E6"/>
<path opacity="0.29" d="M254.019 603.975H232.947V607.941H254.019V603.975Z" fill="#E6E6E6"/>
<path opacity="0.28" d="M282.863 603.975H261.792V607.941H282.863V603.975Z" fill="#E6E6E6"/>
<path opacity="0.56" d="M311.535 603.975H290.463V607.941H311.535V603.975Z" fill="#E6E6E6"/>
<path opacity="0.41" d="M254.019 613.115H232.947V617.081H254.019V613.115Z" fill="#E6E6E6"/>
<path opacity="0.16" d="M282.863 613.115H261.792V617.081H282.863V613.115Z" fill="#E6E6E6"/>
<path opacity="0.4" d="M311.535 613.115H290.463V617.081H311.535V613.115Z" fill="#E6E6E6"/>
<path opacity="0.1" d="M254.019 622.254H232.947V626.221H254.019V622.254Z" fill="#E6E6E6"/>
<path opacity="0.17" d="M282.863 622.254H261.792V626.221H282.863V622.254Z" fill="#E6E6E6"/>
<path opacity="0.08" d="M311.535 622.254H290.463V626.221H311.535V622.254Z" fill="#E6E6E6"/>
<path opacity="0.49" d="M254.019 631.394H232.947V635.36H254.019V631.394Z" fill="#E6E6E6"/>
<path opacity="0.58" d="M282.863 631.394H261.792V635.36H282.863V631.394Z" fill="#E6E6E6"/>
<path opacity="0.58" d="M311.535 631.394H290.463V635.36H311.535V631.394Z" fill="#E6E6E6"/>
<path opacity="0.26" d="M254.019 640.533H232.947V644.5H254.019V640.533Z" fill="#E6E6E6"/>
<path opacity="0.37" d="M282.863 640.533H261.792V644.5H282.863V640.533Z" fill="#E6E6E6"/>
<path opacity="0.34" d="M311.535 640.533H290.463V644.5H311.535V640.533Z" fill="#E6E6E6"/>
<path opacity="0.55" d="M254.019 649.673H232.947V653.639H254.019V649.673Z" fill="#E6E6E6"/>
<path opacity="0.12" d="M282.863 649.673H261.792V653.639H282.863V649.673Z" fill="#E6E6E6"/>
<path opacity="0.6" d="M311.535 649.673H290.463V653.639H311.535V649.673Z" fill="#E6E6E6"/>
<path opacity="0.02" d="M254.019 658.812H232.947V662.779H254.019V658.812Z" fill="#E6E6E6"/>
<path opacity="0.28" d="M282.863 658.812H261.792V662.779H282.863V658.812Z" fill="#E6E6E6"/>
<path opacity="0.21" d="M311.535 658.812H290.463V662.779H311.535V658.812Z" fill="#E6E6E6"/>
<path opacity="0.57" d="M254.019 667.952H232.947V671.918H254.019V667.952Z" fill="#E6E6E6"/>
<path opacity="0.38" d="M282.863 667.952H261.792V671.918H282.863V667.952Z" fill="#E6E6E6"/>
<path opacity="0.25" d="M311.535 667.952H290.463V671.918H311.535V667.952Z" fill="#E6E6E6"/>
<path opacity="0.15" d="M254.019 677.091H232.947V681.058H254.019V677.091Z" fill="#E6E6E6"/>
<path opacity="0.47" d="M282.863 677.091H261.792V681.058H282.863V677.091Z" fill="#E6E6E6"/>
<path opacity="0.3" d="M311.535 677.091H290.463V681.058H311.535V677.091Z" fill="#E6E6E6"/>
<path opacity="0.4" d="M254.019 686.231H232.947V690.197H254.019V686.231Z" fill="#E6E6E6"/>
<path opacity="0.39" d="M282.863 686.231H261.792V690.197H282.863V686.231Z" fill="#E6E6E6"/>
<path opacity="0.24" d="M311.535 686.231H290.463V690.197H311.535V686.231Z" fill="#E6E6E6"/>
<path opacity="0.46" d="M254.019 695.37H232.947V699.337H254.019V695.37Z" fill="#E6E6E6"/>
<path opacity="0.22" d="M282.863 695.37H261.792V699.337H282.863V695.37Z" fill="#E6E6E6"/>
<path opacity="0.11" d="M311.535 695.37H290.463V699.337H311.535V695.37Z" fill="#E6E6E6"/>
<path opacity="0.11" d="M282.863 704.51H261.792V708.476H282.863V704.51Z" fill="#E6E6E6"/>
<path opacity="0.02" d="M311.535 704.51H290.463V708.476H311.535V704.51Z" fill="#E6E6E6"/>
<path opacity="0.27" d="M254.019 713.65H232.947V717.616H254.019V713.65Z" fill="#E6E6E6"/>
<path opacity="0.21" d="M282.863 713.65H261.792V717.616H282.863V713.65Z" fill="#E6E6E6"/>
<path opacity="0.49" d="M311.535 713.65H290.463V717.616H311.535V713.65Z" fill="#E6E6E6"/>
<path opacity="0.6" d="M254.019 722.789H232.947V726.756H254.019V722.789Z" fill="#E6E6E6"/>
<path opacity="0.31" d="M282.863 722.789H261.792V726.756H282.863V722.789Z" fill="#E6E6E6"/>
<path opacity="0.22" d="M311.535 722.789H290.463V726.756H311.535V722.789Z" fill="#E6E6E6"/>
<path opacity="0.54" d="M254.019 731.929H232.947V735.895H254.019V731.929Z" fill="#E6E6E6"/>
<path opacity="0.6" d="M282.863 731.929H261.792V735.895H282.863V731.929Z" fill="#E6E6E6"/>
<path opacity="0.08" d="M311.535 731.929H290.463V735.895H311.535V731.929Z" fill="#E6E6E6"/>
<path opacity="0.55" d="M282.863 741.068H261.792V745.035H282.863V741.068Z" fill="#E6E6E6"/>
<path d="M311.535 741.068H290.463V745.035H311.535V741.068Z" fill="#E6E6E6"/>
<path opacity="0.6" d="M255.401 567.417H254.019V745.035H255.401V567.417Z" fill="#E6E6E6"/>
<path opacity="0.6" d="M290.463 567.417H289.081V745.035H290.463V567.417Z" fill="#E6E6E6"/>
<path d="M359.378 557.415H315.853V778.661H359.378V557.415Z" fill="#4D4D4D"/>
<path opacity="0.69" d="M352.988 567.417H320.171V571.383H352.988V567.417Z" fill="#E6E6E6"/>
<path opacity="0.79" d="M352.988 576.556H320.171V580.523H352.988V576.556Z" fill="#E6E6E6"/>
<path opacity="0.19" d="M352.988 585.696H320.171V589.662H352.988V585.696Z" fill="#E6E6E6"/>
<path opacity="0.88" d="M352.988 594.835H320.171V598.802H352.988V594.835Z" fill="#E6E6E6"/>
<path opacity="0.5" d="M352.988 603.975H320.171V607.941H352.988V603.975Z" fill="#E6E6E6"/>
<path opacity="0.25" d="M352.988 613.115H320.171V617.081H352.988V613.115Z" fill="#E6E6E6"/>
<path opacity="0.91" d="M352.988 622.254H320.171V626.221H352.988V622.254Z" fill="#E6E6E6"/>
<path opacity="0.02" d="M352.988 631.394H320.171V635.36H352.988V631.394Z" fill="#E6E6E6"/>
<path opacity="0.53" d="M352.988 640.533H320.171V644.5H352.988V640.533Z" fill="#E6E6E6"/>
<path opacity="0.65" d="M352.988 649.673H320.171V653.639H352.988V649.673Z" fill="#E6E6E6"/>
<path d="M352.988 658.812H320.171V662.779H352.988V658.812Z" fill="#E6E6E6"/>
<path opacity="0.8" d="M352.988 667.952H320.171V671.918H352.988V667.952Z" fill="#E6E6E6"/>
<path opacity="0.82" d="M352.988 677.091H320.171V681.058H352.988V677.091Z" fill="#E6E6E6"/>
<path opacity="0.75" d="M352.988 686.231H320.171V690.197H352.988V686.231Z" fill="#E6E6E6"/>
<path opacity="0.31" d="M352.988 695.37H320.171V699.337H352.988V695.37Z" fill="#E6E6E6"/>
<path opacity="0.22" d="M352.988 704.51H320.171V708.476H352.988V704.51Z" fill="#E6E6E6"/>
<path opacity="0.43" d="M352.988 713.65H320.171V717.616H352.988V713.65Z" fill="#E6E6E6"/>
<path opacity="0.68" d="M352.988 722.789H320.171V726.756H352.988V722.789Z" fill="#E6E6E6"/>
<path opacity="0.38" d="M352.988 731.929H320.171V735.895H352.988V731.929Z" fill="#E6E6E6"/>
<path opacity="0.84" d="M352.988 741.068H320.171V745.035H352.988V741.068Z" fill="#E6E6E6"/>
<path d="M244.001 545.689V557.415H300.481V545.689H244.001ZM256.61 553.621H250.737V549.655H256.61V553.621ZM265.764 553.621H260.064V549.655H265.764V553.621ZM275.091 553.621H269.391V549.655H275.091V553.621ZM284.418 553.621H278.545V549.655H284.418V553.621ZM293.745 553.621H287.872V549.655H293.745V553.621Z" fill="#333333"/>
<path d="M310.844 549.655H309.29V553.621H310.844V549.655Z" fill="#333333"/>
<path d="M300.481 545.689V557.415H327.08V545.689H300.481ZM310.844 553.621H305.144V549.655H310.844V553.621ZM323.107 553.621H317.408V549.655H323.107V553.621Z" fill="#4D4D4D"/>
<path d="M322.935 549.655H321.38V553.621H322.935V549.655Z" fill="#333333"/>
<path d="M327.425 793.663H209.976L327.425 707.096V793.663Z" fill="#333333"/>
<path d="M152.287 510.51H142.787V546.551H152.287V510.51Z" fill="#4D4D4D"/>
<path d="M142.96 510.51H133.288V546.551H142.96V510.51Z" fill="#333333"/>
<path d="M162.132 510.51H152.46V546.551H162.132V510.51Z" fill="#666666"/>
<path d="M190.113 571.21H163.168V776.764H190.113V571.21Z" fill="#666666"/>
<path d="M131.561 571.21H108.071V776.764H131.561V571.21Z" fill="#333333"/>
<path d="M163.168 571.21H131.388V776.764H163.168V571.21Z" fill="#4D4D4D"/>
<path opacity="0.6" d="M114.807 577.246H111.352V774.005H114.807V577.246Z" fill="#E6E6E6"/>
<path opacity="0.6" d="M121.543 577.246H118.088V774.005H121.543V577.246Z" fill="#E6E6E6"/>
<path opacity="0.6" d="M128.279 577.246H124.825V774.005H128.279V577.246Z" fill="#E6E6E6"/>
<path d="M168.523 577.246H165.068V774.005H168.523V577.246Z" fill="#E6E6E6"/>
<path d="M175.259 577.246H171.804V774.005H175.259V577.246Z" fill="#E6E6E6"/>
<path d="M188.385 577.246H184.931V774.005H188.385V577.246Z" fill="#E6E6E6"/>
<path d="M181.995 577.246H178.54V774.005H181.995V577.246Z" fill="#E6E6E6"/>
<path opacity="0.8" d="M135.36 774.005H159.196V577.246H135.36V774.005ZM139.16 580.695H155.396V770.556H139.16V580.695Z" fill="#E6E6E6"/>
<path opacity="0.8" d="M142.269 767.28H152.46V583.799H142.269V767.28ZM145.724 588.11H146.933H147.624H149.005V762.969H147.624H146.933H145.724V588.11Z" fill="#E6E6E6"/>
<path opacity="0.8" d="M147.624 588.11H146.933V762.969H147.624V588.11Z" fill="#E6E6E6"/>
<path d="M159.541 535.17H135.706V571.211H159.541V535.17Z" fill="#4D4D4D"/>
<path d="M159.541 535.17H135.706V571.211H159.541V535.17Z" fill="#4D4D4D"/>
<path d="M183.377 535.17H159.541V571.211H183.377V535.17Z" fill="#666666"/>
<path d="M135.706 535.17H111.87V571.211H135.706V535.17Z" fill="#333333"/>
<path d="M161.959 510.51H133.288L142.787 517.063H152.46L161.959 510.51Z" fill="#808080"/>
<path d="M674.42 497.232H660.603V537.756H674.42V497.232Z" fill="#4D4D4D"/>
<path d="M660.43 497.232H646.612V537.756H660.43V497.232Z" fill="#333333"/>
<path d="M688.238 497.232H674.42V537.756H688.238V497.232Z" fill="#666666"/>
<path d="M729 565.692H689.965V797.285H729V565.692Z" fill="#666666"/>
<path d="M644.021 565.692H610.168V797.285H644.021V565.692Z" fill="#333333"/>
<path d="M689.965 565.692H644.022V797.285H689.965V565.692Z" fill="#4D4D4D"/>
<path opacity="0.4" d="M619.841 572.59H614.832V794.181H619.841V572.59Z" fill="#E6E6E6"/>
<path opacity="0.4" d="M629.686 572.59H624.677V794.181H629.686V572.59Z" fill="#E6E6E6"/>
<path opacity="0.4" d="M639.531 572.59H634.522V794.181H639.531V572.59Z" fill="#E6E6E6"/>
<path d="M697.738 572.59H692.729V794.181H697.738V572.59Z" fill="#E6E6E6"/>
<path d="M707.583 572.59H702.574V794.181H707.583V572.59Z" fill="#E6E6E6"/>
<path d="M726.409 572.59H721.4V794.181H726.409V572.59Z" fill="#E6E6E6"/>
<path d="M717.255 572.59H712.246V794.181H717.255V572.59Z" fill="#E6E6E6"/>
<path d="M649.894 794.181H684.438V572.59H649.894V794.181ZM655.248 576.384H678.738V790.387H655.248V576.384Z" fill="#E6E6E6"/>
<path d="M659.566 786.766H674.42V580.005H659.566V786.766ZM664.748 584.834H666.648H667.512H669.411V781.937H667.512H666.648H664.748V584.834Z" fill="#E6E6E6"/>
<path d="M667.512 584.833H666.648V781.937H667.512V584.833Z" fill="#E6E6E6"/>
<path d="M684.784 525.168H650.24V565.692H684.784V525.168Z" fill="#4D4D4D"/>
<path d="M684.784 525.168H650.24V565.692H684.784V525.168Z" fill="#4D4D4D"/>
<path d="M719.328 525.168H684.784V565.692H719.328V525.168Z" fill="#666666"/>
<path d="M650.412 525.168H615.868V565.692H650.412V525.168Z" fill="#333333"/>
<path d="M688.411 497.232H646.612L660.603 504.647H674.42L688.411 497.232Z" fill="#808080"/>
<path d="M574.761 597.766H480.283V629.151H574.761V597.766Z" fill="#E6E6E6"/>
<path d="M517.418 597.766H480.283V629.151H517.418V597.766Z" fill="#B3B3B3"/>
<path d="M517.418 629.324H444.011V781.764H517.418V629.324Z" fill="#333333"/>
<path d="M632.104 629.324H517.418V781.764H632.104V629.324Z" fill="#4D4D4D"/>
<path d="M508.436 613.804H451.957V629.323H508.436V613.804Z" fill="#333333"/>
<path d="M615.005 613.804H534.344V629.323H615.005V613.804Z" fill="#4D4D4D"/>
<path d="M549.716 585.867H517.418V597.766H549.716V585.867Z" fill="#E6E6E6"/>
<path d="M533.481 573.796H517.418V585.695H533.481V573.796Z" fill="#4D4D4D"/>
<path d="M517.245 573.796H501.182V585.695H517.245V573.796Z" fill="#333333"/>
<path d="M517.418 585.867H492.719V597.766H517.418V585.867Z" fill="#B3B3B3"/>
<path d="M516.381 573.796L517.418 546.205L518.281 573.796H516.381Z" fill="#333333"/>
<path opacity="0.12" d="M467.156 635.531H461.111V641.567H467.156V635.531Z" fill="white"/>
<path opacity="0.25" d="M475.447 635.531H469.401V641.567H475.447V635.531Z" fill="white"/>
<path opacity="0.36" d="M483.737 635.531H477.692V641.567H483.737V635.531Z" fill="white"/>
<path opacity="0.12" d="M492.028 635.531H485.982V641.567H492.028V635.531Z" fill="white"/>
<path opacity="0.14" d="M500.318 635.531H494.273V641.567H500.318V635.531Z" fill="white"/>
<path opacity="0.28" d="M467.156 643.464H461.111V649.499H467.156V643.464Z" fill="white"/>
<path opacity="0.4" d="M475.447 643.464H469.401V649.499H475.447V643.464Z" fill="white"/>
<path opacity="0.16" d="M483.737 643.464H477.692V649.499H483.737V643.464Z" fill="white"/>
<path opacity="0.17" d="M500.318 643.464H494.273V649.499H500.318V643.464Z" fill="white"/>
<path opacity="0.27" d="M467.156 651.396H461.111V657.432H467.156V651.396Z" fill="white"/>
<path opacity="0.45" d="M475.447 651.396H469.401V657.432H475.447V651.396Z" fill="white"/>
<path opacity="0.45" d="M483.737 651.396H477.692V657.432H483.737V651.396Z" fill="white"/>
<path opacity="0.48" d="M492.028 651.396H485.982V657.432H492.028V651.396Z" fill="white"/>
<path opacity="0.25" d="M500.318 651.396H494.273V657.432H500.318V651.396Z" fill="white"/>
<path opacity="0.28" d="M467.156 659.329H461.111V665.364H467.156V659.329Z" fill="white"/>
<path opacity="0.13" d="M475.447 659.329H469.401V665.364H475.447V659.329Z" fill="white"/>
<path opacity="0.07" d="M483.737 659.329H477.692V665.364H483.737V659.329Z" fill="white"/>
<path opacity="0.39" d="M492.028 659.329H485.982V665.364H492.028V659.329Z" fill="white"/>
<path opacity="0.47" d="M500.318 659.329H494.273V665.364H500.318V659.329Z" fill="white"/>
<path opacity="0.28" d="M467.156 667.261H461.111V673.297H467.156V667.261Z" fill="white"/>
<path opacity="0.2" d="M475.447 667.261H469.401V673.297H475.447V667.261Z" fill="white"/>
<path opacity="0.04" d="M483.737 667.261H477.692V673.297H483.737V667.261Z" fill="white"/>
<path opacity="0.43" d="M492.028 667.261H485.982V673.297H492.028V667.261Z" fill="white"/>
<path opacity="0.48" d="M500.318 667.261H494.273V673.297H500.318V667.261Z" fill="white"/>
<path opacity="0.28" d="M467.156 675.193H461.111V681.229H467.156V675.193Z" fill="white"/>
<path opacity="0.19" d="M475.447 675.193H469.401V681.229H475.447V675.193Z" fill="white"/>
<path opacity="0.01" d="M483.737 675.193H477.692V681.229H483.737V675.193Z" fill="white"/>
<path opacity="0.27" d="M492.028 675.193H485.982V681.229H492.028V675.193Z" fill="white"/>
<path opacity="0.24" d="M500.318 675.193H494.273V681.229H500.318V675.193Z" fill="white"/>
<path opacity="0.07" d="M467.156 683.298H461.111V689.334H467.156V683.298Z" fill="white"/>
<path opacity="0.25" d="M475.447 683.298H469.401V689.334H475.447V683.298Z" fill="white"/>
<path opacity="0.26" d="M483.737 683.298H477.692V689.334H483.737V683.298Z" fill="white"/>
<path opacity="0.39" d="M492.028 683.298H485.982V689.334H492.028V683.298Z" fill="white"/>
<path opacity="0.22" d="M500.318 683.298H494.273V689.334H500.318V683.298Z" fill="white"/>
<path opacity="0.15" d="M467.156 691.231H461.111V697.266H467.156V691.231Z" fill="white"/>
<path opacity="0.23" d="M475.447 691.231H469.401V697.266H475.447V691.231Z" fill="white"/>
<path opacity="0.05" d="M483.737 691.231H477.692V697.266H483.737V691.231Z" fill="white"/>
<path opacity="0.2" d="M492.028 691.231H485.982V697.266H492.028V691.231Z" fill="white"/>
<path opacity="0.31" d="M500.318 691.231H494.273V697.266H500.318V691.231Z" fill="white"/>
<path opacity="0.15" d="M467.156 699.163H461.111V705.199H467.156V699.163Z" fill="white"/>
<path opacity="0.33" d="M475.447 699.163H469.401V705.199H475.447V699.163Z" fill="white"/>
<path opacity="0.46" d="M483.737 699.163H477.692V705.199H483.737V699.163Z" fill="white"/>
<path opacity="0.25" d="M492.028 699.163H485.982V705.199H492.028V699.163Z" fill="white"/>
<path opacity="0.43" d="M500.318 699.163H494.273V705.199H500.318V699.163Z" fill="white"/>
<path opacity="0.4" d="M467.156 707.096H461.111V713.131H467.156V707.096Z" fill="white"/>
<path opacity="0.39" d="M475.447 707.096H469.401V713.131H475.447V707.096Z" fill="white"/>
<path opacity="0.01" d="M483.737 707.096H477.692V713.131H483.737V707.096Z" fill="white"/>
<path opacity="0.12" d="M492.028 707.096H485.982V713.131H492.028V707.096Z" fill="white"/>
<path opacity="0.07" d="M500.318 707.096H494.273V713.131H500.318V707.096Z" fill="white"/>
<path opacity="0.07" d="M467.156 715.028H461.111V721.064H467.156V715.028Z" fill="white"/>
<path opacity="0.02" d="M475.447 715.028H469.401V721.064H475.447V715.028Z" fill="white"/>
<path opacity="0.12" d="M483.737 715.028H477.692V721.064H483.737V715.028Z" fill="white"/>
<path opacity="0.23" d="M492.028 715.028H485.982V721.064H492.028V715.028Z" fill="white"/>
<path opacity="0.26" d="M500.318 715.028H494.273V721.064H500.318V715.028Z" fill="white"/>
<path opacity="0.27" d="M467.156 722.961H461.111V728.996H467.156V722.961Z" fill="white"/>
<path opacity="0.38" d="M475.447 722.961H469.401V728.996H475.447V722.961Z" fill="white"/>
<path opacity="0.05" d="M483.737 722.961H477.692V728.996H483.737V722.961Z" fill="white"/>
<path opacity="0.45" d="M492.028 722.961H485.982V728.996H492.028V722.961Z" fill="white"/>
<path opacity="0.15" d="M500.318 722.961H494.273V728.996H500.318V722.961Z" fill="white"/>
<path opacity="0.06" d="M467.156 730.893H461.111V736.929H467.156V730.893Z" fill="white"/>
<path opacity="0.47" d="M475.447 730.893H469.401V736.929H475.447V730.893Z" fill="white"/>
<path opacity="0.15" d="M483.737 730.893H477.692V736.929H483.737V730.893Z" fill="white"/>
<path opacity="0.44" d="M492.028 730.893H485.982V736.929H492.028V730.893Z" fill="white"/>
<path opacity="0.14" d="M500.318 730.893H494.273V736.929H500.318V730.893Z" fill="white"/>
<path opacity="0.15" d="M467.156 738.826H461.111V744.861H467.156V738.826Z" fill="white"/>
<path opacity="0.43" d="M475.447 738.826H469.401V744.861H475.447V738.826Z" fill="white"/>
<path opacity="0.07" d="M483.737 738.826H477.692V744.861H483.737V738.826Z" fill="white"/>
<path opacity="0.47" d="M492.028 738.826H485.982V744.861H492.028V738.826Z" fill="white"/>
<path opacity="0.11" d="M500.318 738.826H494.273V744.861H500.318V738.826Z" fill="white"/>
<path opacity="0.07" d="M467.156 746.758H461.111V752.794H467.156V746.758Z" fill="white"/>
<path opacity="0.34" d="M475.447 746.758H469.401V752.794H475.447V746.758Z" fill="white"/>
<path opacity="0.5" d="M483.737 746.758H477.692V752.794H483.737V746.758Z" fill="white"/>
<path opacity="0.36" d="M492.028 746.758H485.982V752.794H492.028V746.758Z" fill="white"/>
<path opacity="0.34" d="M500.318 746.758H494.273V752.794H500.318V746.758Z" fill="white"/>
<path opacity="0.47" d="M467.156 754.691H461.111V760.726H467.156V754.691Z" fill="white"/>
<path opacity="0.41" d="M475.447 754.691H469.401V760.726H475.447V754.691Z" fill="white"/>
<path opacity="0.3" d="M483.737 754.691H477.692V760.726H483.737V754.691Z" fill="white"/>
<path opacity="0.33" d="M492.028 754.691H485.982V760.726H492.028V754.691Z" fill="white"/>
<path opacity="0.12" d="M500.318 754.691H494.273V760.726H500.318V754.691Z" fill="white"/>
<path opacity="0.24" d="M467.156 762.623H461.111V768.658H467.156V762.623Z" fill="white"/>
<path opacity="0.29" d="M475.447 762.623H469.401V768.658H475.447V762.623Z" fill="white"/>
<path opacity="0.27" d="M492.028 762.623H485.982V768.658H492.028V762.623Z" fill="white"/>
<path opacity="0.04" d="M500.318 762.623H494.273V768.658H500.318V762.623Z" fill="white"/>
<path opacity="0.11" d="M467.156 770.555H461.111V776.591H467.156V770.555Z" fill="white"/>
<path opacity="0.05" d="M475.447 770.555H469.401V776.591H475.447V770.555Z" fill="white"/>
<path opacity="0.04" d="M483.737 770.555H477.692V776.591H483.737V770.555Z" fill="white"/>
<path opacity="0.02" d="M492.028 770.555H485.982V776.591H492.028V770.555Z" fill="white"/>
<path opacity="0.3" d="M537.453 635.531H531.408V641.567H537.453V635.531Z" fill="white"/>
<path opacity="0.72" d="M545.398 635.531H539.353V641.567H545.398V635.531Z" fill="white"/>
<path opacity="0.7" d="M553.516 635.531H547.471V641.567H553.516V635.531Z" fill="white"/>
<path opacity="0.52" d="M561.634 635.531H555.589V641.567H561.634V635.531Z" fill="white"/>
<path opacity="0.2" d="M569.752 635.531H563.706V641.567H569.752V635.531Z" fill="white"/>
<path opacity="0.32" d="M577.697 635.531H571.652V641.567H577.697V635.531Z" fill="white"/>
<path opacity="0.13" d="M585.815 635.531H579.77V641.567H585.815V635.531Z" fill="white"/>
<path opacity="0.38" d="M593.933 635.531H587.887V641.567H593.933V635.531Z" fill="white"/>
<path opacity="0.61" d="M601.878 635.531H595.833V641.567H601.878V635.531Z" fill="white"/>
<path d="M609.996 635.531H603.95V641.567H609.996V635.531Z" fill="white"/>
<path opacity="0.91" d="M618.113 635.531H612.068V641.567H618.113V635.531Z" fill="white"/>
<path opacity="0.66" d="M537.453 643.464H531.408V649.499H537.453V643.464Z" fill="white"/>
<path opacity="0.31" d="M545.398 643.464H539.353V649.499H545.398V643.464Z" fill="white"/>
<path opacity="0.95" d="M553.516 643.464H547.471V649.499H553.516V643.464Z" fill="white"/>
<path opacity="0.7" d="M561.634 643.464H555.589V649.499H561.634V643.464Z" fill="white"/>
<path opacity="0.12" d="M569.752 643.464H563.706V649.499H569.752V643.464Z" fill="white"/>
<path opacity="0.24" d="M577.697 643.464H571.652V649.499H577.697V643.464Z" fill="white"/>
<path opacity="0.66" d="M585.815 643.464H579.77V649.499H585.815V643.464Z" fill="white"/>
<path opacity="0.71" d="M593.933 643.464H587.887V649.499H593.933V643.464Z" fill="white"/>
<path opacity="0.42" d="M601.878 643.464H595.833V649.499H601.878V643.464Z" fill="white"/>
<path opacity="0.09" d="M609.996 643.464H603.95V649.499H609.996V643.464Z" fill="white"/>
<path opacity="0.32" d="M618.113 643.464H612.068V649.499H618.113V643.464Z" fill="white"/>
<path opacity="0.65" d="M537.453 651.396H531.408V657.432H537.453V651.396Z" fill="white"/>
<path d="M545.398 651.396H539.353V657.432H545.398V651.396Z" fill="white"/>
<path d="M553.516 651.396H547.471V657.432H553.516V651.396Z" fill="white"/>
<path opacity="0.71" d="M561.634 651.396H555.589V657.432H561.634V651.396Z" fill="white"/>
<path opacity="0.2" d="M569.752 651.396H563.706V657.432H569.752V651.396Z" fill="white"/>
<path opacity="0.19" d="M577.697 651.396H571.652V657.432H577.697V651.396Z" fill="white"/>
<path opacity="0.62" d="M585.815 651.396H579.77V657.432H585.815V651.396Z" fill="white"/>
<path opacity="0.93" d="M593.933 651.396H587.887V657.432H593.933V651.396Z" fill="white"/>
<path opacity="0.56" d="M601.878 651.396H595.833V657.432H601.878V651.396Z" fill="white"/>
<path opacity="0.57" d="M609.996 651.396H603.95V657.432H609.996V651.396Z" fill="white"/>
<path opacity="0.52" d="M618.113 651.396H612.068V657.432H618.113V651.396Z" fill="white"/>
<path opacity="0.74" d="M537.453 659.329H531.408V665.364H537.453V659.329Z" fill="white"/>
<path opacity="0.56" d="M545.398 659.329H539.353V665.364H545.398V659.329Z" fill="white"/>
<path opacity="0.78" d="M553.516 659.329H547.471V665.364H553.516V659.329Z" fill="white"/>
<path opacity="0.41" d="M561.634 659.329H555.589V665.364H561.634V659.329Z" fill="white"/>
<path opacity="0.14" d="M569.752 659.329H563.706V665.364H569.752V659.329Z" fill="white"/>
<path opacity="0.28" d="M577.697 659.329H571.652V665.364H577.697V659.329Z" fill="white"/>
<path opacity="0.36" d="M585.815 659.329H579.77V665.364H585.815V659.329Z" fill="white"/>
<path opacity="0.14" d="M593.933 659.329H587.887V665.364H593.933V659.329Z" fill="white"/>
<path opacity="0.5" d="M601.878 659.329H595.833V665.364H601.878V659.329Z" fill="white"/>
<path opacity="0.98" d="M609.996 659.329H603.95V665.364H609.996V659.329Z" fill="white"/>
<path opacity="0.59" d="M618.113 659.329H612.068V665.364H618.113V659.329Z" fill="white"/>
<path opacity="0.07" d="M537.453 667.261H531.408V673.297H537.453V667.261Z" fill="white"/>
<path opacity="0.1" d="M545.398 667.261H539.353V673.297H545.398V667.261Z" fill="white"/>
<path opacity="0.88" d="M553.516 667.261H547.471V673.297H553.516V667.261Z" fill="white"/>
<path opacity="0.68" d="M561.634 667.261H555.589V673.297H561.634V667.261Z" fill="white"/>
<path opacity="0.81" d="M569.752 667.261H563.706V673.297H569.752V667.261Z" fill="white"/>
<path opacity="0.62" d="M577.697 667.261H571.652V673.297H577.697V667.261Z" fill="white"/>
<path opacity="0.97" d="M585.815 667.261H579.77V673.297H585.815V667.261Z" fill="white"/>
<path opacity="0.81" d="M593.933 667.261H587.887V673.297H593.933V667.261Z" fill="white"/>
<path opacity="0.79" d="M601.878 667.261H595.833V673.297H601.878V667.261Z" fill="white"/>
<path opacity="0.03" d="M609.996 667.261H603.95V673.297H609.996V667.261Z" fill="white"/>
<path opacity="0.95" d="M618.113 667.261H612.068V673.297H618.113V667.261Z" fill="white"/>
<path opacity="0.62" d="M537.453 675.193H531.408V681.229H537.453V675.193Z" fill="white"/>
<path opacity="0.22" d="M545.398 675.193H539.353V681.229H545.398V675.193Z" fill="white"/>
<path opacity="0.42" d="M553.516 675.193H547.471V681.229H553.516V675.193Z" fill="white"/>
<path opacity="0.56" d="M561.634 675.193H555.589V681.229H561.634V675.193Z" fill="white"/>
<path opacity="0.03" d="M569.752 675.193H563.706V681.229H569.752V675.193Z" fill="white"/>
<path opacity="0.64" d="M577.697 675.193H571.652V681.229H577.697V675.193Z" fill="white"/>
<path opacity="0.82" d="M585.815 675.193H579.77V681.229H585.815V675.193Z" fill="white"/>
<path opacity="0.52" d="M593.933 675.193H587.887V681.229H593.933V675.193Z" fill="white"/>
<path opacity="0.46" d="M601.878 675.193H595.833V681.229H601.878V675.193Z" fill="white"/>
<path opacity="0.27" d="M609.996 675.193H603.95V681.229H609.996V675.193Z" fill="white"/>
<path opacity="0.46" d="M618.113 675.193H612.068V681.229H618.113V675.193Z" fill="white"/>
<path opacity="0.66" d="M537.453 683.298H531.408V689.334H537.453V683.298Z" fill="white"/>
<path opacity="0.7" d="M545.398 683.298H539.353V689.334H545.398V683.298Z" fill="white"/>
<path opacity="0.94" d="M553.516 683.298H547.471V689.334H553.516V683.298Z" fill="white"/>
<path opacity="0.5" d="M561.634 683.298H555.589V689.334H561.634V683.298Z" fill="white"/>
<path opacity="0.12" d="M569.752 683.298H563.706V689.334H569.752V683.298Z" fill="white"/>
<path opacity="0.36" d="M577.697 683.298H571.652V689.334H577.697V683.298Z" fill="white"/>
<path opacity="0.51" d="M585.815 683.298H579.77V689.334H585.815V683.298Z" fill="white"/>
<path opacity="0.37" d="M593.933 683.298H587.887V689.334H593.933V683.298Z" fill="white"/>
<path opacity="0.66" d="M601.878 683.298H595.833V689.334H601.878V683.298Z" fill="white"/>
<path opacity="0.42" d="M609.996 683.298H603.95V689.334H609.996V683.298Z" fill="white"/>
<path opacity="0.5" d="M618.113 683.298H612.068V689.334H618.113V683.298Z" fill="white"/>
<path opacity="0.52" d="M537.453 691.231H531.408V697.266H537.453V691.231Z" fill="white"/>
<path opacity="0.61" d="M545.398 691.231H539.353V697.266H545.398V691.231Z" fill="white"/>
<path opacity="0.84" d="M553.516 691.231H547.471V697.266H553.516V691.231Z" fill="white"/>
<path opacity="0.89" d="M561.634 691.231H555.589V697.266H561.634V691.231Z" fill="white"/>
<path opacity="0.33" d="M569.752 691.231H563.706V697.266H569.752V691.231Z" fill="white"/>
<path opacity="0.25" d="M577.697 691.231H571.652V697.266H577.697V691.231Z" fill="white"/>
<path opacity="0.95" d="M585.815 691.231H579.77V697.266H585.815V691.231Z" fill="white"/>
<path opacity="0.09" d="M593.933 691.231H587.887V697.266H593.933V691.231Z" fill="white"/>
<path opacity="0.44" d="M601.878 691.231H595.833V697.266H601.878V691.231Z" fill="white"/>
<path opacity="0.51" d="M609.996 691.231H603.95V697.266H609.996V691.231Z" fill="white"/>
<path opacity="0.97" d="M618.113 691.231H612.068V697.266H618.113V691.231Z" fill="white"/>
<path opacity="0.26" d="M537.453 699.163H531.408V705.199H537.453V699.163Z" fill="white"/>
<path opacity="0.92" d="M545.398 699.163H539.353V705.199H545.398V699.163Z" fill="white"/>
<path opacity="0.33" d="M553.516 699.163H547.471V705.199H553.516V699.163Z" fill="white"/>
<path opacity="0.23" d="M561.634 699.163H555.589V705.199H561.634V699.163Z" fill="white"/>
<path opacity="0.42" d="M569.752 699.163H563.706V705.199H569.752V699.163Z" fill="white"/>
<path opacity="0.57" d="M577.697 699.163H571.652V705.199H577.697V699.163Z" fill="white"/>
<path opacity="0.73" d="M585.815 699.163H579.77V705.199H585.815V699.163Z" fill="white"/>
<path opacity="0.87" d="M593.933 699.163H587.887V705.199H593.933V699.163Z" fill="white"/>
<path opacity="0.22" d="M601.878 699.163H595.833V705.199H601.878V699.163Z" fill="white"/>
<path opacity="0.89" d="M609.996 699.163H603.95V705.199H609.996V699.163Z" fill="white"/>
<path opacity="0.73" d="M618.113 699.163H612.068V705.199H618.113V699.163Z" fill="white"/>
<path opacity="0.35" d="M537.453 707.096H531.408V713.131H537.453V707.096Z" fill="white"/>
<path opacity="0.81" d="M545.398 707.096H539.353V713.131H545.398V707.096Z" fill="white"/>
<path opacity="0.56" d="M553.516 707.096H547.471V713.131H553.516V707.096Z" fill="white"/>
<path opacity="0.81" d="M561.634 707.096H555.589V713.131H561.634V707.096Z" fill="white"/>
<path opacity="0.87" d="M569.752 707.096H563.706V713.131H569.752V707.096Z" fill="white"/>
<path opacity="0.39" d="M577.697 707.096H571.652V713.131H577.697V707.096Z" fill="white"/>
<path opacity="0.31" d="M585.815 707.096H579.77V713.131H585.815V707.096Z" fill="white"/>
<path opacity="0.98" d="M593.933 707.096H587.887V713.131H593.933V707.096Z" fill="white"/>
<path opacity="0.17" d="M601.878 707.096H595.833V713.131H601.878V707.096Z" fill="white"/>
<path opacity="0.06" d="M609.996 707.096H603.95V713.131H609.996V707.096Z" fill="white"/>
<path opacity="0.57" d="M618.113 707.096H612.068V713.131H618.113V707.096Z" fill="white"/>
<path opacity="0.67" d="M537.453 715.028H531.408V721.064H537.453V715.028Z" fill="white"/>
<path opacity="0.83" d="M545.398 715.028H539.353V721.064H545.398V715.028Z" fill="white"/>
<path opacity="0.99" d="M553.516 715.028H547.471V721.064H553.516V715.028Z" fill="white"/>
<path opacity="0.62" d="M561.634 715.028H555.589V721.064H561.634V715.028Z" fill="white"/>
<path opacity="0.87" d="M569.752 715.028H563.706V721.064H569.752V715.028Z" fill="white"/>
<path opacity="0.14" d="M577.697 715.028H571.652V721.064H577.697V715.028Z" fill="white"/>
<path opacity="0.12" d="M585.815 715.028H579.77V721.064H585.815V715.028Z" fill="white"/>
<path opacity="0.11" d="M593.933 715.028H587.887V721.064H593.933V715.028Z" fill="white"/>
<path opacity="0.39" d="M601.878 715.028H595.833V721.064H601.878V715.028Z" fill="white"/>
<path opacity="0.58" d="M609.996 715.028H603.95V721.064H609.996V715.028Z" fill="white"/>
<path opacity="0.54" d="M618.113 715.028H612.068V721.064H618.113V715.028Z" fill="white"/>
<path opacity="0.99" d="M537.453 722.961H531.408V728.996H537.453V722.961Z" fill="white"/>
<path opacity="0.28" d="M545.398 722.961H539.353V728.996H545.398V722.961Z" fill="white"/>
<path opacity="0.78" d="M553.516 722.961H547.471V728.996H553.516V722.961Z" fill="white"/>
<path opacity="0.65" d="M561.634 722.961H555.589V728.996H561.634V722.961Z" fill="white"/>
<path opacity="0.32" d="M569.752 722.961H563.706V728.996H569.752V722.961Z" fill="white"/>
<path opacity="0.55" d="M577.697 722.961H571.652V728.996H577.697V722.961Z" fill="white"/>
<path opacity="0.4" d="M585.815 722.961H579.77V728.996H585.815V722.961Z" fill="white"/>
<path opacity="0.22" d="M593.933 722.961H587.887V728.996H593.933V722.961Z" fill="white"/>
<path opacity="0.87" d="M601.878 722.961H595.833V728.996H601.878V722.961Z" fill="white"/>
<path opacity="0.02" d="M609.996 722.961H603.95V728.996H609.996V722.961Z" fill="white"/>
<path opacity="0.39" d="M618.113 722.961H612.068V728.996H618.113V722.961Z" fill="white"/>
<path opacity="0.89" d="M537.453 730.893H531.408V736.929H537.453V730.893Z" fill="white"/>
<path opacity="0.97" d="M545.398 730.893H539.353V736.929H545.398V730.893Z" fill="white"/>
<path opacity="0.79" d="M553.516 730.893H547.471V736.929H553.516V730.893Z" fill="white"/>
<path opacity="0.41" d="M561.634 730.893H555.589V736.929H561.634V730.893Z" fill="white"/>
<path opacity="0.13" d="M569.752 730.893H563.706V736.929H569.752V730.893Z" fill="white"/>
<path opacity="0.9" d="M577.697 730.893H571.652V736.929H577.697V730.893Z" fill="white"/>
<path opacity="0.98" d="M585.815 730.893H579.77V736.929H585.815V730.893Z" fill="white"/>
<path opacity="0.67" d="M593.933 730.893H587.887V736.929H593.933V730.893Z" fill="white"/>
<path opacity="0.65" d="M601.878 730.893H595.833V736.929H601.878V730.893Z" fill="white"/>
<path opacity="0.89" d="M609.996 730.893H603.95V736.929H609.996V730.893Z" fill="white"/>
<path opacity="0.98" d="M618.113 730.893H612.068V736.929H618.113V730.893Z" fill="white"/>
<path opacity="0.29" d="M537.453 738.826H531.408V744.861H537.453V738.826Z" fill="white"/>
<path opacity="0.74" d="M545.398 738.826H539.353V744.861H545.398V738.826Z" fill="white"/>
<path opacity="0.64" d="M553.516 738.826H547.471V744.861H553.516V738.826Z" fill="white"/>
<path opacity="0.65" d="M561.634 738.826H555.589V744.861H561.634V738.826Z" fill="white"/>
<path opacity="0.07" d="M569.752 738.826H563.706V744.861H569.752V738.826Z" fill="white"/>
<path opacity="0.16" d="M577.697 738.826H571.652V744.861H577.697V738.826Z" fill="white"/>
<path opacity="0.84" d="M585.815 738.826H579.77V744.861H585.815V738.826Z" fill="white"/>
<path opacity="0.88" d="M593.933 738.826H587.887V744.861H593.933V738.826Z" fill="white"/>
<path opacity="0.57" d="M601.878 738.826H595.833V744.861H601.878V738.826Z" fill="white"/>
<path opacity="0.31" d="M609.996 738.826H603.95V744.861H609.996V738.826Z" fill="white"/>
<path opacity="0.03" d="M618.113 738.826H612.068V744.861H618.113V738.826Z" fill="white"/>
<path opacity="0.3" d="M537.453 746.758H531.408V752.794H537.453V746.758Z" fill="white"/>
<path opacity="0.59" d="M545.398 746.758H539.353V752.794H545.398V746.758Z" fill="white"/>
<path opacity="0.93" d="M553.516 746.758H547.471V752.794H553.516V746.758Z" fill="white"/>
<path opacity="0.06" d="M561.634 746.758H555.589V752.794H561.634V746.758Z" fill="white"/>
<path opacity="0.74" d="M569.752 746.758H563.706V752.794H569.752V746.758Z" fill="white"/>
<path opacity="0.22" d="M577.697 746.758H571.652V752.794H577.697V746.758Z" fill="white"/>
<path opacity="0.51" d="M585.815 746.758H579.77V752.794H585.815V746.758Z" fill="white"/>
<path opacity="0.7" d="M593.933 746.758H587.887V752.794H593.933V746.758Z" fill="white"/>
<path opacity="0.47" d="M601.878 746.758H595.833V752.794H601.878V746.758Z" fill="white"/>
<path opacity="0.08" d="M609.996 746.758H603.95V752.794H609.996V746.758Z" fill="white"/>
<path opacity="0.93" d="M618.113 746.758H612.068V752.794H618.113V746.758Z" fill="white"/>
<path opacity="0.81" d="M537.453 754.691H531.408V760.726H537.453V754.691Z" fill="white"/>
<path opacity="0.9" d="M545.398 754.691H539.353V760.726H545.398V754.691Z" fill="white"/>
<path opacity="0.55" d="M553.516 754.691H547.471V760.726H553.516V754.691Z" fill="white"/>
<path opacity="0.14" d="M561.634 754.691H555.589V760.726H561.634V754.691Z" fill="white"/>
<path opacity="0.66" d="M569.752 754.691H563.706V760.726H569.752V754.691Z" fill="white"/>
<path opacity="0.92" d="M577.697 754.691H571.652V760.726H577.697V754.691Z" fill="white"/>
<path opacity="0.4" d="M585.815 754.691H579.77V760.726H585.815V754.691Z" fill="white"/>
<path opacity="0.6" d="M593.933 754.691H587.887V760.726H593.933V754.691Z" fill="white"/>
<path opacity="0.99" d="M601.878 754.691H595.833V760.726H601.878V754.691Z" fill="white"/>
<path opacity="0.68" d="M609.996 754.691H603.95V760.726H609.996V754.691Z" fill="white"/>
<path opacity="0.01" d="M618.113 754.691H612.068V760.726H618.113V754.691Z" fill="white"/>
<path opacity="0.82" d="M537.453 762.623H531.408V768.658H537.453V762.623Z" fill="white"/>
<path opacity="0.92" d="M545.398 762.623H539.353V768.658H545.398V762.623Z" fill="white"/>
<path opacity="0.29" d="M553.516 762.623H547.471V768.658H553.516V762.623Z" fill="white"/>
<path opacity="0.73" d="M561.634 762.623H555.589V768.658H561.634V762.623Z" fill="white"/>
<path opacity="0.42" d="M569.752 762.623H563.706V768.658H569.752V762.623Z" fill="white"/>
<path opacity="0.06" d="M577.697 762.623H571.652V768.658H577.697V762.623Z" fill="white"/>
<path opacity="0.7" d="M585.815 762.623H579.77V768.658H585.815V762.623Z" fill="white"/>
<path opacity="0.97" d="M593.933 762.623H587.887V768.658H593.933V762.623Z" fill="white"/>
<path opacity="0.51" d="M601.878 762.623H595.833V768.658H601.878V762.623Z" fill="white"/>
<path opacity="0.69" d="M609.996 762.623H603.95V768.658H609.996V762.623Z" fill="white"/>
<path opacity="0.49" d="M618.113 762.623H612.068V768.658H618.113V762.623Z" fill="white"/>
<path opacity="0.45" d="M537.453 770.555H531.408V776.591H537.453V770.555Z" fill="white"/>
<path opacity="0.46" d="M545.398 770.555H539.353V776.591H545.398V770.555Z" fill="white"/>
<path opacity="0.04" d="M553.516 770.555H547.471V776.591H553.516V770.555Z" fill="white"/>
<path opacity="0.56" d="M561.634 770.555H555.589V776.591H561.634V770.555Z" fill="white"/>
<path opacity="0.4" d="M569.752 770.555H563.706V776.591H569.752V770.555Z" fill="white"/>
<path opacity="0.59" d="M577.697 770.555H571.652V776.591H577.697V770.555Z" fill="white"/>
<path opacity="0.82" d="M585.815 770.555H579.77V776.591H585.815V770.555Z" fill="white"/>
<path opacity="0.99" d="M593.933 770.555H587.887V776.591H593.933V770.555Z" fill="white"/>
<path opacity="0.1" d="M601.878 770.555H595.833V776.591H601.878V770.555Z" fill="white"/>
<path opacity="0.87" d="M609.996 770.555H603.95V776.591H609.996V770.555Z" fill="white"/>
<path d="M618.113 770.555H612.068V776.591H618.113V770.555Z" fill="white"/>
<path d="M435.375 596.732H378.378V775.04H435.375V596.732Z" fill="#333333"/>
<path d="M404.286 587.765H378.378V597.766H404.286V587.765Z" fill="#333333"/>
<path d="M393.404 581.902H378.378V587.765H393.404V581.902Z" fill="#333333"/>
<path opacity="0.25" d="M411.367 609.32H402.04V618.632H411.367V609.32Z" fill="white"/>
<path opacity="0.15" d="M411.367 632.255H402.04V641.567H411.367V632.255Z" fill="white"/>
<path opacity="0.19" d="M411.367 677.953H402.04V687.265H411.367V677.953Z" fill="white"/>
<path opacity="0.17" d="M411.367 700.716H402.04V710.028H411.367V700.716Z" fill="white"/>
<path opacity="0.22" d="M411.367 723.478H402.04V732.79H411.367V723.478Z" fill="white"/>
<path d="M411.367 746.414H402.04V755.726H411.367V746.414Z" fill="white"/>
<path d="M393.059 696.06H339.688V711.752H393.059V696.06Z" fill="#333333"/>
<path d="M419.658 696.06H393.059V711.752H419.658V696.06Z" fill="#4D4D4D"/>
<path d="M339.688 696.06L356.27 688.127L393.059 696.06H339.688Z" fill="#333333"/>
<path d="M356.27 688.127L393.059 696.06H419.658L356.27 688.127Z" fill="#4D4D4D"/>
<path d="M405.495 707.096H327.425V778.488H405.495V707.096Z" fill="#333333"/>
<path d="M431.403 707.096H405.495V778.488H431.403V707.096Z" fill="#4D4D4D"/>
<path opacity="0.81" d="M425.358 712.097H411.367V717.27H425.358V712.097Z" fill="white"/>
<path opacity="0.76" d="M425.358 721.581H411.367V726.754H425.358V721.581Z" fill="white"/>
<path opacity="0.32" d="M425.358 731.066H411.367V736.239H425.358V731.066Z" fill="white"/>
<path opacity="0.49" d="M425.358 740.723H411.367V745.896H425.358V740.723Z" fill="white"/>
<path opacity="0.99" d="M425.358 759.691H411.367V764.865H425.358V759.691Z" fill="white"/>
<path opacity="0.1" d="M353.852 712.097H339.861V717.27H353.852V712.097Z" fill="white"/>
<path opacity="0.04" d="M373.369 712.097H359.378V717.27H373.369V712.097Z" fill="white"/>
<path opacity="0.07" d="M393.059 712.097H379.069V717.27H393.059V712.097Z" fill="white"/>
<path opacity="0.06" d="M353.852 721.582H339.861V726.755H353.852V721.582Z" fill="white"/>
<path opacity="0.44" d="M373.369 721.582H359.378V726.755H373.369V721.582Z" fill="white"/>
<path opacity="0.24" d="M393.059 721.582H379.069V726.755H393.059V721.582Z" fill="white"/>
<path opacity="0.55" d="M353.852 731.066H339.861V736.239H353.852V731.066Z" fill="white"/>
<path opacity="0.02" d="M373.369 731.066H359.378V736.239H373.369V731.066Z" fill="white"/>
<path opacity="0.14" d="M393.059 731.066H379.069V736.239H393.059V731.066Z" fill="white"/>
<path opacity="0.43" d="M353.852 740.723H339.861V745.896H353.852V740.723Z" fill="white"/>
<path opacity="0.41" d="M373.369 740.723H359.378V745.896H373.369V740.723Z" fill="white"/>
<path opacity="0.46" d="M393.059 740.723H379.069V745.896H393.059V740.723Z" fill="white"/>
<path opacity="0.45" d="M353.852 750.207H339.861V755.38H353.852V750.207Z" fill="white"/>
<path opacity="0.33" d="M373.369 750.207H359.378V755.38H373.369V750.207Z" fill="white"/>
<path opacity="0.05" d="M393.059 750.207H379.069V755.38H393.059V750.207Z" fill="white"/>
<path opacity="0.27" d="M353.852 759.692H339.861V764.865H353.852V759.692Z" fill="white"/>
<path opacity="0.15" d="M373.369 759.692H359.378V764.865H373.369V759.692Z" fill="white"/>
<path opacity="0.7" d="M393.059 759.692H379.069V764.865H393.059V759.692Z" fill="white"/>
<path d="M25.6829 635.704H-22.6788V784.524H25.6829V635.704Z" fill="#333333"/>
<path d="M80.7806 635.704H25.8556V784.524H80.7806V635.704Z" fill="#4D4D4D"/>
<path d="M25.6829 648.293H-22.6788V650.88H25.6829V648.293Z" fill="#4D4D4D"/>
<path d="M80.7806 648.293H25.8556V650.88H80.7806V648.293Z" fill="#333333"/>
<path opacity="0.32" d="M0.638458 653.811H-4.54321V658.984H0.638458V653.811Z" fill="white"/>
<path opacity="0.25" d="M7.71997 653.811H2.53833V658.984H7.71997V653.811Z" fill="white"/>
<path opacity="0.12" d="M21.8831 653.811H16.7014V658.984H21.8831V653.811Z" fill="white"/>
<path opacity="0.22" d="M0.638458 660.881H-4.54321V666.055H0.638458V660.881Z" fill="white"/>
<path opacity="0.47" d="M7.71997 660.881H2.53833V666.055H7.71997V660.881Z" fill="white"/>
<path opacity="0.22" d="M14.8015 660.881H9.61993V666.055H14.8015V660.881Z" fill="white"/>
<path opacity="0.32" d="M21.8831 660.881H16.7014V666.055H21.8831V660.881Z" fill="white"/>
<path opacity="0.18" d="M0.638458 667.952H-4.54321V673.125H0.638458V667.952Z" fill="white"/>
<path opacity="0.28" d="M7.71997 667.952H2.53833V673.125H7.71997V667.952Z" fill="white"/>
<path opacity="0.2" d="M21.8831 667.952H16.7014V673.125H21.8831V667.952Z" fill="white"/>
<path opacity="0.33" d="M0.638458 675.022H-4.54321V680.195H0.638458V675.022Z" fill="white"/>
<path opacity="0.05" d="M7.71997 675.022H2.53833V680.195H7.71997V675.022Z" fill="white"/>
<path opacity="0.08" d="M14.8015 675.022H9.61993V680.195H14.8015V675.022Z" fill="white"/>
<path opacity="0.08" d="M7.71997 682.092H2.53833V687.265H7.71997V682.092Z" fill="white"/>
<path opacity="0.02" d="M14.8015 682.092H9.61993V687.265H14.8015V682.092Z" fill="white"/>
<path opacity="0.05" d="M0.638458 689.162H-4.54321V694.336H0.638458V689.162Z" fill="white"/>
<path opacity="0.2" d="M7.71997 689.162H2.53833V694.336H7.71997V689.162Z" fill="white"/>
<path opacity="0.23" d="M14.8015 689.162H9.61993V694.336H14.8015V689.162Z" fill="white"/>
<path opacity="0.14" d="M0.638458 696.233H-4.54321V701.406H0.638458V696.233Z" fill="white"/>
<path opacity="0.24" d="M14.8015 696.233H9.61993V701.406H14.8015V696.233Z" fill="white"/>
<path opacity="0.23" d="M0.638458 703.303H-4.54321V708.476H0.638458V703.303Z" fill="white"/>
<path opacity="0.02" d="M7.71997 703.303H2.53833V708.476H7.71997V703.303Z" fill="white"/>
<path opacity="0.04" d="M14.8015 703.303H9.61993V708.476H14.8015V703.303Z" fill="white"/>
<path opacity="0.3" d="M21.8831 703.303H16.7014V708.476H21.8831V703.303Z" fill="white"/>
<path opacity="0.4" d="M21.8831 710.2H16.7014V715.374H21.8831V710.2Z" fill="white"/>
<path opacity="0.12" d="M0.638458 717.271H-4.54321V722.444H0.638458V717.271Z" fill="white"/>
<path opacity="0.19" d="M14.8015 717.271H9.61993V722.444H14.8015V717.271Z" fill="white"/>
<path opacity="0.43" d="M21.8831 717.271H16.7014V722.444H21.8831V717.271Z" fill="white"/>
<path opacity="0.42" d="M7.71997 724.341H2.53833V729.514H7.71997V724.341Z" fill="white"/>
<path opacity="0.31" d="M21.8831 724.341H16.7014V729.514H21.8831V724.341Z" fill="white"/>
<path opacity="0.31" d="M7.71997 731.411H2.53833V736.585H7.71997V731.411Z" fill="white"/>
<path opacity="0.33" d="M21.8831 731.411H16.7014V736.585H21.8831V731.411Z" fill="white"/>
<path opacity="0.17" d="M7.71997 738.481H2.53833V743.655H7.71997V738.481Z" fill="white"/>
<path opacity="0.01" d="M14.8015 738.481H9.61993V743.655H14.8015V738.481Z" fill="white"/>
<path opacity="0.48" d="M21.8831 738.481H16.7014V743.655H21.8831V738.481Z" fill="white"/>
<path opacity="0.28" d="M0.638458 745.551H-4.54321V750.725H0.638458V745.551Z" fill="white"/>
<path opacity="0.02" d="M7.71997 745.551H2.53833V750.725H7.71997V745.551Z" fill="white"/>
<path opacity="0.17" d="M14.8015 745.551H9.61993V750.725H14.8015V745.551Z" fill="white"/>
<path opacity="0.42" d="M21.8831 745.551H16.7014V750.725H21.8831V745.551Z" fill="white"/>
<path opacity="0.11" d="M0.638458 752.622H-4.54321V757.795H0.638458V752.622Z" fill="white"/>
<path opacity="0.02" d="M7.71997 752.622H2.53833V757.795H7.71997V752.622Z" fill="white"/>
<path opacity="0.3" d="M21.8831 752.622H16.7014V757.795H21.8831V752.622Z" fill="white"/>
<path opacity="0.19" d="M0.638458 759.692H-4.54321V764.865H0.638458V759.692Z" fill="white"/>
<path opacity="0.05" d="M7.71997 759.692H2.53833V764.865H7.71997V759.692Z" fill="white"/>
<path opacity="0.2" d="M21.8831 759.692H16.7014V764.865H21.8831V759.692Z" fill="white"/>
<path opacity="0.27" d="M7.71997 766.762H2.53833V771.936H7.71997V766.762Z" fill="white"/>
<path opacity="0.13" d="M14.8015 766.762H9.61993V771.936H14.8015V766.762Z" fill="white"/>
<path opacity="0.46" d="M0.638458 773.832H-4.54321V779.006H0.638458V773.832Z" fill="white"/>
<path opacity="0.12" d="M7.71997 773.832H2.53833V779.006H7.71997V773.832Z" fill="white"/>
<path opacity="0.04" d="M14.8015 773.832H9.61993V779.006H14.8015V773.832Z" fill="white"/>
<path opacity="0.3" d="M21.8831 773.832H16.7014V779.006H21.8831V773.832Z" fill="white"/>
<path opacity="0.08" d="M14.8015 653.811H9.61993V658.984H14.8015V653.811Z" fill="white"/>
<path opacity="0.08" d="M14.8015 667.952H9.61993V673.125H14.8015V667.952Z" fill="white"/>
<path opacity="0.01" d="M21.8831 675.022H16.7014V680.195H21.8831V675.022Z" fill="white"/>
<path opacity="0.15" d="M0.638458 682.092H-4.54321V687.265H0.638458V682.092Z" fill="white"/>
<path opacity="0.12" d="M21.8831 682.092H16.7014V687.265H21.8831V682.092Z" fill="white"/>
<path opacity="0.13" d="M7.71997 696.233H2.53833V701.406H7.71997V696.233Z" fill="white"/>
<path opacity="0.07" d="M21.8831 696.233H16.7014V701.406H21.8831V696.233Z" fill="white"/>
<path opacity="0.02" d="M0.638458 710.2H-4.54321V715.374H0.638458V710.2Z" fill="white"/>
<path opacity="0.02" d="M7.71997 710.2H2.53833V715.374H7.71997V710.2Z" fill="white"/>
<path opacity="0.14" d="M14.8015 710.2H9.61993V715.374H14.8015V710.2Z" fill="white"/>
<path opacity="0.09" d="M0.638458 724.341H-4.54321V729.514H0.638458V724.341Z" fill="white"/>
<path opacity="0.02" d="M14.8015 724.341H9.61993V729.514H14.8015V724.341Z" fill="white"/>
<path opacity="0.19" d="M0.638458 731.411H-4.54321V736.585H0.638458V731.411Z" fill="white"/>
<path opacity="0.06" d="M14.8015 731.411H9.61993V736.585H14.8015V731.411Z" fill="white"/>
<path opacity="0.16" d="M0.638458 738.481H-4.54321V743.655H0.638458V738.481Z" fill="white"/>
<path opacity="0.04" d="M14.8015 752.622H9.61993V757.795H14.8015V752.622Z" fill="white"/>
<path opacity="0.04" d="M14.8015 759.692H9.61993V764.865H14.8015V759.692Z" fill="white"/>
<path opacity="0.18" d="M21.8831 766.762H16.7014V771.936H21.8831V766.762Z" fill="white"/>
<g opacity="0.7">
<path opacity="0.7" d="M36.2188 650.879H30.8645V777.971H36.2188V650.879Z" fill="#E6E6E6"/>
<path opacity="0.7" d="M45.373 650.879H40.0187V777.971H45.373V650.879Z" fill="#E6E6E6"/>
<path opacity="0.7" d="M54.6999 650.879H49.3456V777.971H54.6999V650.879Z" fill="#E6E6E6"/>
<path opacity="0.7" d="M64.0268 650.879H58.6725V777.971H64.0268V650.879Z" fill="#E6E6E6"/>
<path opacity="0.7" d="M73.3537 650.879H67.9994V777.971H73.3537V650.879Z" fill="#E6E6E6"/>
</g>
<path d="M108.416 777.971H0.983887L108.416 684.506V777.971Z" fill="#333333"/>
<path d="M99.2618 761.417H62.2997V782.11H99.2618V761.417Z" fill="#4D4D4D"/>
<path d="M96.4983 756.588H65.0632V766.245H96.4983V756.588Z" fill="#4D4D4D"/>
<path d="M92.8712 759.52H68.5176L76.9809 745.379H84.4078L92.8712 759.52Z" fill="#4D4D4D"/>
<path d="M89.4168 765.555H72.1448V778.144H89.4168V765.555Z" fill="white"/>
<path d="M91.4893 770.556H70.072V773.143H91.4893V770.556Z" fill="#4D4D4D"/>
<path d="M264.21 795.388C264.728 808.839 254.365 820.392 240.72 820.91C227.248 821.427 215.675 810.908 215.157 797.457C214.639 784.007 225.002 772.453 238.647 771.936C252.119 771.418 263.519 781.937 264.21 795.388Z" fill="#333333"/>
<path d="M260.064 788.662C260.41 796.422 254.365 802.975 246.592 803.32C238.82 803.665 232.257 797.63 231.911 789.87C231.566 782.11 237.611 775.557 245.383 775.212C253.156 774.867 259.719 780.902 260.064 788.662Z" fill="#4D4D4D"/>
<path d="M17.5651 770.039C17.5651 773.315 14.8015 776.074 11.5198 776.074C8.23814 776.074 5.47461 773.315 5.47461 770.039C5.47461 766.762 8.23814 764.003 11.5198 764.003C14.8015 764.003 17.5651 766.59 17.5651 770.039Z" fill="#333333"/>
<path d="M19.6377 776.074C19.6377 780.558 16.0106 784.179 11.5198 784.179C7.02912 784.179 3.40198 780.558 3.40198 776.074C3.40198 771.591 7.02912 767.969 11.5198 767.969C16.0106 767.969 19.6377 771.591 19.6377 776.074Z" fill="#333333"/>
<path d="M15.4924 764.865C15.4924 767.107 13.7652 769.004 11.5199 769.004C9.27451 769.004 7.5473 767.107 7.5473 764.865C7.5473 762.624 9.27451 760.727 11.5199 760.727C13.7652 760.727 15.4924 762.624 15.4924 764.865Z" fill="#333333"/>
<path d="M16.7014 770.039C16.7014 771.936 15.147 773.488 13.2471 773.488C11.3471 773.488 9.79266 771.936 9.79266 770.039C9.79266 768.142 11.3471 766.59 13.2471 766.59C15.147 766.59 16.7014 768.142 16.7014 770.039Z" fill="#4D4D4D"/>
<path d="M14.9742 765.383C14.9742 766.762 13.7652 767.969 12.3835 767.969C11.0017 767.969 9.79266 766.762 9.79266 765.383C9.79266 764.003 11.0017 762.796 12.3835 762.796C13.7652 762.624 14.9742 763.831 14.9742 765.383Z" fill="#4D4D4D"/>
<path d="M132.77 782.627C132.77 786.938 129.142 790.56 124.824 790.56C120.506 790.56 116.879 786.938 116.879 782.627C116.879 778.316 120.334 774.694 124.824 774.694C129.142 774.694 132.77 778.316 132.77 782.627Z" fill="#333333"/>
<path d="M130.006 775.902C130.006 778.833 127.761 781.248 124.824 781.248C121.888 781.248 119.643 778.833 119.643 775.902C119.643 772.97 121.888 770.556 124.824 770.556C127.588 770.556 130.006 772.97 130.006 775.902Z" fill="#333333"/>
<path d="M129.315 776.419C129.315 778.316 127.761 779.868 125.861 779.868C123.961 779.868 122.406 778.316 122.406 776.419C122.406 774.522 123.961 772.97 125.861 772.97C127.761 772.97 129.315 774.522 129.315 776.419Z" fill="#4D4D4D"/>
<path d="M122.061 788.49C121.197 796.768 113.77 802.631 105.653 801.769C97.3619 800.906 91.4894 793.491 92.353 785.386C93.2166 777.109 100.644 771.246 108.761 772.108C116.879 772.97 122.925 780.213 122.061 788.49Z" fill="#333333"/>
<path d="M118.261 775.212C117.743 780.73 112.907 784.869 107.38 784.352C102.025 783.834 98.0527 778.834 98.5709 773.315C99.0891 767.797 103.925 763.658 109.452 764.176C114.979 764.693 118.779 769.694 118.261 775.212Z" fill="#333333"/>
<path d="M116.879 776.247C116.534 779.868 113.252 782.455 109.798 782.11C106.171 781.765 103.58 778.489 103.925 775.04C104.271 771.418 107.552 768.832 111.007 769.177C114.634 769.521 117.225 772.798 116.879 776.247Z" fill="#4D4D4D"/>
<path d="M200.303 781.248C200.303 788.835 194.258 794.871 186.658 794.871C179.058 794.871 173.013 788.835 173.013 781.248C173.013 773.66 179.058 767.625 186.658 767.625C194.085 767.625 200.303 773.66 200.303 781.248Z" fill="#333333"/>
<path d="M195.467 769.521C195.467 774.695 191.494 778.833 186.486 778.833C181.477 778.833 177.504 774.695 177.504 769.521C177.504 764.348 181.477 760.209 186.486 760.209C191.494 760.382 195.467 764.52 195.467 769.521Z" fill="#333333"/>
<path d="M198.231 781.248C198.231 785.559 194.776 789.18 190.285 789.18C185.967 789.18 182.34 785.731 182.34 781.248C182.34 776.937 185.795 773.315 190.285 773.315C194.603 773.488 198.231 776.937 198.231 781.248Z" fill="#4D4D4D"/>
<path d="M194.258 770.728C194.258 774.005 191.667 776.764 188.213 776.764C184.931 776.764 182.168 774.177 182.168 770.728C182.168 767.452 184.758 764.865 188.213 764.865C191.667 764.693 194.258 767.452 194.258 770.728Z" fill="#4D4D4D"/>
<path d="M170.077 792.629C170.077 802.286 162.132 810.218 152.46 810.218C142.787 810.218 134.842 802.286 134.842 792.629C134.842 782.972 142.787 775.039 152.46 775.039C162.132 775.039 170.077 782.799 170.077 792.629Z" fill="#333333"/>
<path d="M164.032 777.454C164.032 784.006 158.85 789.352 152.46 789.352C146.069 789.352 140.887 784.006 140.887 777.454C140.887 770.901 146.069 765.555 152.46 765.555C158.85 765.555 164.032 770.901 164.032 777.454Z" fill="#333333"/>
<path d="M162.477 779.006C162.477 783.317 159.023 786.593 154.705 786.593C150.387 786.593 146.932 783.144 146.932 779.006C146.932 774.695 150.387 771.246 154.705 771.246C159.023 771.246 162.477 774.695 162.477 779.006Z" fill="#4D4D4D"/>
<path d="M212.739 779.523C212.739 781.592 211.185 783.144 209.285 783.144C207.385 783.144 205.83 781.592 205.83 779.523C205.83 777.454 207.385 775.902 209.285 775.902C211.185 775.902 212.739 777.454 212.739 779.523Z" fill="#333333"/>
<path d="M287.009 775.212C287.009 781.937 281.654 787.283 274.918 787.283C268.182 787.283 262.828 781.937 262.828 775.212C262.828 768.487 268.182 763.141 274.918 763.141C281.654 763.141 287.009 768.487 287.009 775.212Z" fill="#333333"/>
<path d="M291.154 787.283C291.154 796.251 283.9 803.493 274.918 803.493C265.937 803.493 258.683 796.251 258.683 787.283C258.683 778.316 265.937 771.074 274.918 771.074C283.9 771.074 291.154 778.316 291.154 787.283Z" fill="#333333"/>
<path d="M282.864 764.866C282.864 769.349 279.236 773.143 274.918 773.143C270.6 773.143 266.973 769.522 266.973 764.866C266.973 760.382 270.6 756.588 274.918 756.588C279.236 756.588 282.864 760.382 282.864 764.866Z" fill="#333333"/>
<path d="M285.109 775.212C285.109 779.006 282 782.11 278.2 782.11C274.4 782.11 271.291 779.006 271.291 775.212C271.291 771.418 274.4 768.314 278.2 768.314C282 768.314 285.109 771.418 285.109 775.212Z" fill="#4D4D4D"/>
<path d="M281.827 765.9C281.827 768.832 279.409 771.246 276.473 771.246C273.537 771.246 271.119 768.832 271.119 765.9C271.119 762.969 273.537 760.555 276.473 760.555C279.409 760.555 281.827 762.969 281.827 765.9Z" fill="#4D4D4D"/>
<path d="M332.089 790.387C332.089 799.354 324.835 806.597 315.853 806.597C306.872 806.597 299.617 799.354 299.617 790.387C299.617 781.42 306.872 774.177 315.853 774.177C324.835 774.35 332.089 781.593 332.089 790.387Z" fill="#333333"/>
<path d="M326.389 776.592C326.389 782.627 321.553 787.628 315.853 787.628C309.98 787.628 305.144 782.8 305.144 776.592C305.144 770.556 309.98 765.728 315.853 765.728C321.725 765.728 326.389 770.556 326.389 776.592Z" fill="#333333"/>
<path d="M325.007 777.971C325.007 781.938 321.898 785.042 317.926 785.042C313.953 785.042 310.844 781.938 310.844 777.971C310.844 774.005 313.953 770.901 317.926 770.901C321.898 770.901 325.007 774.005 325.007 777.971Z" fill="#4D4D4D"/>
<path d="M596.351 796.94C596.351 811.77 584.433 823.669 569.579 823.669C554.725 823.669 542.807 811.77 542.807 796.94C542.807 782.11 554.725 770.211 569.579 770.211C584.433 770.211 596.351 782.282 596.351 796.94Z" fill="#333333"/>
<path d="M592.378 789.525C592.378 797.975 585.469 804.873 577.006 804.873C568.543 804.873 561.634 797.975 561.634 789.525C561.634 781.075 568.543 774.178 577.006 774.178C585.469 774.178 592.378 781.075 592.378 789.525Z" fill="#4D4D4D"/>
<path d="M630.722 785.386C630.722 797.802 620.532 807.977 608.096 807.977C595.66 807.977 585.469 797.802 585.469 785.386C585.469 772.97 595.66 762.796 608.096 762.796C620.704 762.796 630.722 772.798 630.722 785.386Z" fill="#333333"/>
<path d="M627.268 779.006C627.268 786.249 621.395 791.939 614.314 791.939C607.059 791.939 601.36 786.076 601.36 779.006C601.36 771.936 607.232 766.073 614.314 766.073C621.395 766.073 627.268 771.936 627.268 779.006Z" fill="#4D4D4D"/>
<path d="M573.034 789.008C573.034 801.424 562.843 811.598 550.407 811.598C537.971 811.598 527.781 801.424 527.781 789.008C527.781 776.592 537.971 766.417 550.407 766.417C563.016 766.417 573.034 776.419 573.034 789.008Z" fill="#333333"/>
<path d="M569.579 782.627C569.579 789.87 563.707 795.56 556.625 795.56C549.544 795.56 543.671 789.697 543.671 782.627C543.671 775.385 549.544 769.694 556.625 769.694C563.707 769.694 569.579 775.385 569.579 782.627Z" fill="#4D4D4D"/>
<path d="M503.255 794.181C503.255 806.597 493.064 816.771 480.628 816.771C468.192 816.771 458.002 806.597 458.002 794.181C458.002 781.765 468.192 771.591 480.628 771.591C493.237 771.591 503.255 781.765 503.255 794.181Z" fill="#333333"/>
<path d="M499.8 787.801C499.8 795.044 493.928 800.734 486.846 800.734C479.592 800.734 473.892 794.871 473.892 787.801C473.892 780.558 479.765 774.868 486.846 774.868C493.928 774.868 499.8 780.731 499.8 787.801Z" fill="#4D4D4D"/>
<path d="M475.965 790.387C475.965 802.803 465.774 812.978 453.338 812.978C440.902 812.978 430.712 802.803 430.712 790.387C430.712 777.971 440.902 767.797 453.338 767.797C465.774 767.797 475.965 777.799 475.965 790.387Z" fill="#333333"/>
<path d="M472.51 784.007C472.51 791.25 466.638 796.94 459.556 796.94C452.302 796.94 446.602 791.077 446.602 784.007C446.602 776.764 452.475 771.074 459.556 771.074C466.638 771.074 472.51 776.764 472.51 784.007Z" fill="#4D4D4D"/>
<path d="M493.582 786.766C493.582 794.008 487.71 799.699 480.628 799.699C473.374 799.699 467.674 793.836 467.674 786.766C467.674 779.523 473.547 773.832 480.628 773.832C487.882 773.832 493.582 779.695 493.582 786.766Z" fill="#4D4D4D"/>
<path d="M397.032 787.8C397.032 795.905 390.468 802.63 382.178 802.63C374.06 802.63 367.324 796.078 367.324 787.8C367.324 779.695 373.887 772.97 382.178 772.97C390.468 773.142 397.032 779.695 397.032 787.8Z" fill="#333333"/>
<path d="M394.786 783.662C394.786 788.318 390.986 792.111 386.323 792.111C381.66 792.111 377.86 788.318 377.86 783.662C377.86 779.006 381.66 775.212 386.323 775.212C390.986 775.212 394.786 779.006 394.786 783.662Z" fill="#4D4D4D"/>
<path d="M8.92905 776.074C8.92905 782.972 3.40198 788.49 -3.50683 788.49C-10.4156 788.49 -15.9427 782.972 -15.9427 776.074C-15.9427 769.176 -10.4156 763.658 -3.50683 763.658C3.22926 763.486 8.92905 769.176 8.92905 776.074Z" fill="#333333"/>
<path d="M13.0743 788.49C13.0743 797.802 5.64736 805.217 -3.67952 805.217C-13.0064 805.217 -20.4333 797.802 -20.4333 788.49C-20.4333 779.178 -13.0064 771.763 -3.67952 771.763C5.64736 771.763 13.0743 779.178 13.0743 788.49Z" fill="#333333"/>
<path d="M4.61105 765.383C4.61105 770.039 0.983925 773.832 -3.67952 773.832C-8.17024 773.832 -11.9701 770.039 -11.9701 765.383C-11.9701 760.727 -8.34296 756.933 -3.67952 756.933C0.983925 756.933 4.61105 760.727 4.61105 765.383Z" fill="#333333"/>
<path d="M7.02902 776.074C7.02902 780.04 3.74734 783.317 -0.225235 783.317C-4.19781 783.317 -7.47949 780.04 -7.47949 776.074C-7.47949 772.108 -4.19781 768.831 -0.225235 768.831C3.74734 768.831 7.02902 772.108 7.02902 776.074Z" fill="#4D4D4D"/>
<path d="M3.57465 766.417C3.57465 769.349 1.15656 771.936 -1.95242 771.936C-4.88868 771.936 -7.47949 769.521 -7.47949 766.417C-7.47949 763.486 -5.0614 760.899 -1.95242 760.899C0.983835 760.899 3.57465 763.313 3.57465 766.417Z" fill="#4D4D4D"/>
<path d="M67.8267 780.903C67.8267 786.421 63.336 790.905 57.8089 790.905C52.2818 790.905 47.7911 786.421 47.7911 780.903C47.7911 775.385 52.2818 770.901 57.8089 770.901C63.336 770.901 67.8267 775.385 67.8267 780.903Z" fill="#333333"/>
<path d="M64.3723 772.281C64.3723 776.075 61.436 779.179 57.8089 779.179C54.1817 779.179 51.2455 776.075 51.2455 772.281C51.2455 768.487 54.1817 765.383 57.8089 765.383C61.436 765.556 64.3723 768.487 64.3723 772.281Z" fill="#333333"/>
<path d="M66.2722 780.903C66.2722 784.179 63.6814 786.766 60.3997 786.766C57.118 786.766 54.5272 784.179 54.5272 780.903C54.5272 777.799 57.118 775.212 60.3997 775.212C63.6814 775.04 66.2722 777.627 66.2722 780.903Z" fill="#4D4D4D"/>
<path d="M63.5087 773.143C63.5087 775.557 61.6088 777.454 59.1907 777.454C56.7726 777.454 54.8727 775.557 54.8727 773.143C54.8727 770.729 56.7726 768.832 59.1907 768.832C61.6088 768.659 63.5087 770.729 63.5087 773.143Z" fill="#4D4D4D"/>
</g>
<defs>
<clipPath id="clip0_1_1421">
<rect width="1127" height="776" fill="white" transform="translate(-398 0.194336)"/>
</clipPath>
</defs>
</svg>
