<svg width="589" height="200" viewBox="0 0 589 200" fill="none" xmlns="http://www.w3.org/2000/svg">
<path d="M25.1777 17.8943L26.3777 17.5943V4.79434L25.1777 4.49433V4.19433H30.4777C32.7444 4.19433 34.3777 4.541 35.3777 5.23434C36.3777 5.91434 36.8777 6.86767 36.8777 8.09434C36.8777 8.921 36.6577 9.59434 36.2177 10.1143C35.7777 10.621 35.2111 11.001 34.5177 11.2543C33.7844 11.5343 33.0044 11.681 32.1777 11.6943V11.7943C32.6711 11.821 33.1044 11.8943 33.4777 12.0143C34.4111 12.3077 35.0444 12.8343 35.3777 13.5943L37.1777 17.5943L38.1777 17.8943V18.1943H35.3777C34.2844 18.1943 33.4844 17.6277 32.9777 16.4943L30.9777 11.9943H29.6777V17.5943L31.0777 17.8943V18.1943H25.1777V17.8943ZM30.4777 11.4943C31.4111 11.4943 32.1444 11.201 32.6777 10.6143C33.2111 10.0277 33.4777 9.18767 33.4777 8.09434C33.4777 7.001 33.2111 6.161 32.6777 5.57434C32.1444 4.98767 31.4111 4.69434 30.4777 4.69434H29.6777V11.4943H30.4777ZM45.3863 18.4943C44.0797 18.4943 42.933 18.2143 41.9463 17.6543C40.973 17.081 40.2197 16.2477 39.6863 15.1543C39.153 14.061 38.8863 12.741 38.8863 11.1943C38.8863 9.64767 39.153 8.32767 39.6863 7.23434C40.2197 6.141 40.973 5.31433 41.9463 4.75433C42.933 4.181 44.0797 3.89434 45.3863 3.89434C46.693 3.89434 47.833 4.181 48.8063 4.75433C49.793 5.31433 50.553 6.141 51.0863 7.23434C51.6197 8.32767 51.8863 9.64767 51.8863 11.1943C51.8863 12.741 51.6197 14.061 51.0863 15.1543C50.553 16.2477 49.793 17.081 48.8063 17.6543C47.833 18.2143 46.693 18.4943 45.3863 18.4943ZM45.3863 18.0943C45.9063 18.0943 46.3863 17.8743 46.8263 17.4343C47.2797 16.9943 47.653 16.261 47.9463 15.2343C48.2397 14.2077 48.3863 12.861 48.3863 11.1943C48.3863 9.52767 48.2397 8.181 47.9463 7.15434C47.653 6.12767 47.2797 5.39434 46.8263 4.95433C46.3863 4.51433 45.9063 4.29433 45.3863 4.29433C44.8663 4.29433 44.3797 4.51433 43.9263 4.95433C43.4863 5.39434 43.1197 6.12767 42.8263 7.15434C42.533 8.181 42.3863 9.52767 42.3863 11.1943C42.3863 12.861 42.533 14.2077 42.8263 15.2343C43.1197 16.261 43.4863 16.9943 43.9263 17.4343C44.3797 17.8743 44.8663 18.0943 45.3863 18.0943ZM58.691 18.4943C57.7443 18.4943 56.8577 18.281 56.031 17.8543C55.6577 17.6677 55.3443 17.4477 55.091 17.1943C54.9043 17.501 54.671 17.7743 54.391 18.0143C54.151 18.1877 54.0177 18.281 53.991 18.2943H53.491V14.4943H54.291C54.491 15.1477 54.771 15.7343 55.131 16.2543C55.9443 17.4143 56.9977 17.9943 58.291 17.9943C59.051 17.9943 59.6577 17.7677 60.111 17.3143C60.5643 16.861 60.791 16.2543 60.791 15.4943C60.791 15.0543 60.6577 14.661 60.391 14.3143C60.1377 13.9677 59.8177 13.661 59.431 13.3943C59.0443 13.1277 58.5043 12.7943 57.811 12.3943C56.931 11.901 56.2177 11.4543 55.671 11.0543C55.1243 10.6543 54.6577 10.1543 54.271 9.55434C53.8843 8.941 53.691 8.221 53.691 7.39434C53.691 6.741 53.871 6.15434 54.231 5.63434C54.6043 5.101 55.1577 4.681 55.891 4.37434C56.6243 4.05434 57.5243 3.89434 58.591 3.89434C59.3643 3.89434 60.1377 4.11434 60.911 4.55434C61.2043 4.71434 61.4977 4.92767 61.791 5.19434C62.0177 4.84767 62.251 4.57433 62.491 4.37434C62.731 4.201 62.8643 4.10767 62.891 4.09434H63.391V7.89434H62.591C62.4177 7.25434 62.1577 6.67434 61.811 6.15433C61.491 5.64767 61.091 5.22767 60.611 4.89434C60.1443 4.561 59.6043 4.39433 58.991 4.39433C58.471 4.39433 58.0243 4.601 57.651 5.01434C57.2777 5.42767 57.091 5.95434 57.091 6.59434C57.091 7.08767 57.231 7.53434 57.511 7.93434C57.8043 8.321 58.1577 8.661 58.571 8.95434C58.9977 9.24767 59.571 9.601 60.291 10.0143C61.131 10.4943 61.811 10.921 62.331 11.2943C62.851 11.6677 63.291 12.1343 63.651 12.6943C64.011 13.241 64.191 13.8743 64.191 14.5943C64.191 15.3143 63.9843 15.9743 63.571 16.5743C63.1577 17.161 62.5377 17.6277 61.711 17.9743C60.8843 18.321 59.8777 18.4943 58.691 18.4943ZM68.1855 17.8943L69.3855 17.5943V4.69434H67.0855C67.0855 5.50767 66.8655 6.28767 66.4255 7.03434C66.2389 7.341 66.0255 7.59434 65.7855 7.79434H65.1855V4.19433H76.8855V7.79434H76.2855C76.0322 7.59434 75.8122 7.341 75.6255 7.03434C75.1989 6.31434 74.9855 5.53434 74.9855 4.69434H72.6855V17.5943L73.8855 17.8943V18.1943H68.1855V17.8943ZM84.3902 18.4943C83.0836 18.4943 81.9369 18.2143 80.9502 17.6543C79.9769 17.081 79.2236 16.2477 78.6902 15.1543C78.1569 14.061 77.8902 12.741 77.8902 11.1943C77.8902 9.64767 78.1569 8.32767 78.6902 7.23434C79.2236 6.141 79.9769 5.31433 80.9502 4.75433C81.9369 4.181 83.0836 3.89434 84.3902 3.89434C85.6969 3.89434 86.8369 4.181 87.8102 4.75433C88.7969 5.31433 89.5569 6.141 90.0902 7.23434C90.6236 8.32767 90.8902 9.64767 90.8902 11.1943C90.8902 12.741 90.6236 14.061 90.0902 15.1543C89.5569 16.2477 88.7969 17.081 87.8102 17.6543C86.8369 18.2143 85.6969 18.4943 84.3902 18.4943ZM84.3902 18.0943C84.9102 18.0943 85.3902 17.8743 85.8302 17.4343C86.2836 16.9943 86.6569 16.261 86.9502 15.2343C87.2436 14.2077 87.3902 12.861 87.3902 11.1943C87.3902 9.52767 87.2436 8.181 86.9502 7.15434C86.6569 6.12767 86.2836 5.39434 85.8302 4.95433C85.3902 4.51433 84.9102 4.29433 84.3902 4.29433C83.8702 4.29433 83.3836 4.51433 82.9302 4.95433C82.4902 5.39434 82.1236 6.12767 81.8302 7.15434C81.5369 8.181 81.3902 9.52767 81.3902 11.1943C81.3902 12.861 81.5369 14.2077 81.8302 15.2343C82.1236 16.261 82.4902 16.9943 82.9302 17.4343C83.3836 17.8743 83.8702 18.0943 84.3902 18.0943ZM92.0043 4.79434L91.0043 4.49433V4.19433H93.4043C94.0976 4.19433 94.6643 4.35433 95.1043 4.67433C95.5443 4.981 95.8776 5.38767 96.1043 5.89434L99.6443 13.9543L102.904 5.09434L101.404 4.49433V4.19433H105.104V4.49433L103.504 5.09434L98.6043 18.3943H98.0043L92.0043 4.79434ZM104.409 12.1943V11.2943H112.409V12.1943H104.409ZM120.504 18.4943C119.197 18.4943 118.05 18.2143 117.064 17.6543C116.09 17.081 115.337 16.2477 114.804 15.1543C114.27 14.061 114.004 12.741 114.004 11.1943C114.004 9.64767 114.27 8.32767 114.804 7.23434C115.337 6.141 116.09 5.31433 117.064 4.75433C118.05 4.181 119.197 3.89434 120.504 3.89434C121.81 3.89434 122.95 4.181 123.924 4.75433C124.91 5.31433 125.67 6.141 126.204 7.23434C126.737 8.32767 127.004 9.64767 127.004 11.1943C127.004 12.741 126.737 14.061 126.204 15.1543C125.67 16.2477 124.91 17.081 123.924 17.6543C122.95 18.2143 121.81 18.4943 120.504 18.4943ZM120.504 18.0943C121.024 18.0943 121.504 17.8743 121.944 17.4343C122.397 16.9943 122.77 16.261 123.064 15.2343C123.357 14.2077 123.504 12.861 123.504 11.1943C123.504 9.52767 123.357 8.181 123.064 7.15434C122.77 6.12767 122.397 5.39434 121.944 4.95433C121.504 4.51433 121.024 4.29433 120.504 4.29433C119.984 4.29433 119.497 4.51433 119.044 4.95433C118.604 5.39434 118.237 6.12767 117.944 7.15434C117.65 8.181 117.504 9.52767 117.504 11.1943C117.504 12.861 117.65 14.2077 117.944 15.2343C118.237 16.261 118.604 16.9943 119.044 17.4343C119.497 17.8743 119.984 18.0943 120.504 18.0943ZM130.708 7.59434V17.2943L132.308 17.8943V18.1943H128.508V17.8943L130.108 17.2943V4.89434L128.708 4.49433V4.19433H130.808C131.515 4.19433 132.068 4.321 132.468 4.57433C132.868 4.82767 133.248 5.16767 133.608 5.59433L140.008 13.0943V5.09434L138.408 4.49433V4.19433H142.208V4.49433L140.608 5.09434V18.4943H140.008L130.708 7.59434ZM143.413 12.1943V11.2943H151.413V12.1943H143.413ZM153.107 17.8943L154.307 17.5943V4.79434L153.107 4.49433V4.19433H158.207C160.594 4.19433 162.421 4.80767 163.687 6.03434C164.967 7.261 165.607 8.981 165.607 11.1943C165.607 13.4077 164.967 15.1277 163.687 16.3543C162.421 17.581 160.594 18.1943 158.207 18.1943H153.107V17.8943ZM158.207 17.6943C159.447 17.6943 160.407 17.1943 161.087 16.1943C161.767 15.181 162.107 13.5143 162.107 11.1943C162.107 8.87434 161.767 7.21434 161.087 6.21434C160.407 5.201 159.447 4.69434 158.207 4.69434H157.607V17.6943H158.207ZM173.804 18.4943C172.498 18.4943 171.351 18.2143 170.364 17.6543C169.391 17.081 168.638 16.2477 168.104 15.1543C167.571 14.061 167.304 12.741 167.304 11.1943C167.304 9.64767 167.571 8.32767 168.104 7.23434C168.638 6.141 169.391 5.31433 170.364 4.75433C171.351 4.181 172.498 3.89434 173.804 3.89434C175.111 3.89434 176.251 4.181 177.224 4.75433C178.211 5.31433 178.971 6.141 179.504 7.23434C180.038 8.32767 180.304 9.64767 180.304 11.1943C180.304 12.741 180.038 14.061 179.504 15.1543C178.971 16.2477 178.211 17.081 177.224 17.6543C176.251 18.2143 175.111 18.4943 173.804 18.4943ZM173.804 18.0943C174.324 18.0943 174.804 17.8743 175.244 17.4343C175.698 16.9943 176.071 16.261 176.364 15.2343C176.658 14.2077 176.804 12.861 176.804 11.1943C176.804 9.52767 176.658 8.181 176.364 7.15434C176.071 6.12767 175.698 5.39434 175.244 4.95433C174.804 4.51433 174.324 4.29433 173.804 4.29433C173.284 4.29433 172.798 4.51433 172.344 4.95433C171.904 5.39434 171.538 6.12767 171.244 7.15434C170.951 8.181 170.804 9.52767 170.804 11.1943C170.804 12.861 170.951 14.2077 171.244 15.2343C171.538 16.261 171.904 16.9943 172.344 17.4343C172.798 17.8743 173.284 18.0943 173.804 18.0943ZM184.009 7.59434V17.2943L185.609 17.8943V18.1943H181.809V17.8943L183.409 17.2943V4.89434L182.009 4.49433V4.19433H184.109C184.816 4.19433 185.369 4.321 185.769 4.57433C186.169 4.82767 186.549 5.16767 186.909 5.59433L193.309 13.0943V5.09434L191.709 4.49433V4.19433H195.509V4.49433L193.909 5.09434V18.4943H193.309L184.009 7.59434ZM197.414 20.2943C197.694 20.201 197.974 20.0477 198.254 19.8343C198.827 19.4077 199.18 18.8277 199.314 18.0943L199.054 18.2543C198.88 18.3477 198.667 18.3943 198.414 18.3943C198.014 18.3943 197.66 18.2477 197.354 17.9543C197.06 17.6477 196.914 17.2943 196.914 16.8943C196.914 16.4943 197.06 16.1477 197.354 15.8543C197.66 15.5477 198.014 15.3943 198.414 15.3943C198.88 15.3943 199.26 15.561 199.554 15.8943C199.86 16.2143 200.014 16.6477 200.014 17.1943C200.014 18.421 199.614 19.381 198.814 20.0743C198.467 20.3943 198.067 20.6343 197.614 20.7943L197.414 20.2943ZM209.321 7.59434V17.2943L210.921 17.8943V18.1943H207.121V17.8943L208.721 17.2943V4.89434L207.321 4.49433V4.19433H209.421C210.128 4.19433 210.681 4.321 211.081 4.57433C211.481 4.82767 211.861 5.16767 212.221 5.59433L218.621 13.0943V5.09434L217.021 4.49433V4.19433H220.821V4.49433L219.221 5.09434V18.4943H218.621L209.321 7.59434ZM220.321 17.8943L221.921 17.2943L227.421 3.99434H228.021L233.721 17.5943L234.721 17.8943V18.1943H232.321C231.627 18.1943 231.061 18.041 230.621 17.7343C230.181 17.4143 229.854 17.001 229.641 16.4943L228.621 14.0943H223.841L222.521 17.2943L224.021 17.8943V18.1943H220.321V17.8943ZM224.041 13.5943H228.421L226.221 8.33434L224.041 13.5943ZM237.114 7.59434V17.2943L238.714 17.8943V18.1943H234.914V17.8943L236.514 17.2943V4.89434L235.114 4.49433V4.19433H237.214C237.921 4.19433 238.474 4.321 238.874 4.57433C239.274 4.82767 239.654 5.16767 240.014 5.59433L246.414 13.0943V5.09434L244.814 4.49433V4.19433H248.614V4.49433L247.014 5.09434V18.4943H246.414L237.114 7.59434ZM255.019 18.4943C254.072 18.4943 253.186 18.281 252.359 17.8543C251.986 17.6677 251.672 17.4477 251.419 17.1943C251.232 17.501 250.999 17.7743 250.719 18.0143C250.479 18.1877 250.346 18.281 250.319 18.2943H249.819V14.4943H250.619C250.819 15.1477 251.099 15.7343 251.459 16.2543C252.272 17.4143 253.326 17.9943 254.619 17.9943C255.379 17.9943 255.986 17.7677 256.439 17.3143C256.892 16.861 257.119 16.2543 257.119 15.4943C257.119 15.0543 256.986 14.661 256.719 14.3143C256.466 13.9677 256.146 13.661 255.759 13.3943C255.372 13.1277 254.832 12.7943 254.139 12.3943C253.259 11.901 252.546 11.4543 251.999 11.0543C251.452 10.6543 250.986 10.1543 250.599 9.55434C250.212 8.941 250.019 8.221 250.019 7.39434C250.019 6.741 250.199 6.15434 250.559 5.63434C250.932 5.101 251.486 4.681 252.219 4.37434C252.952 4.05434 253.852 3.89434 254.919 3.89434C255.692 3.89434 256.466 4.11434 257.239 4.55434C257.532 4.71434 257.826 4.92767 258.119 5.19434C258.346 4.84767 258.579 4.57433 258.819 4.37434C259.059 4.201 259.192 4.10767 259.219 4.09434H259.719V7.89434H258.919C258.746 7.25434 258.486 6.67434 258.139 6.15433C257.819 5.64767 257.419 5.22767 256.939 4.89434C256.472 4.561 255.932 4.39433 255.319 4.39433C254.799 4.39433 254.352 4.601 253.979 5.01434C253.606 5.42767 253.419 5.95434 253.419 6.59434C253.419 7.08767 253.559 7.53434 253.839 7.93434C254.132 8.321 254.486 8.661 254.899 8.95434C255.326 9.24767 255.899 9.601 256.619 10.0143C257.459 10.4943 258.139 10.921 258.659 11.2943C259.179 11.6677 259.619 12.1343 259.979 12.6943C260.339 13.241 260.519 13.8743 260.519 14.5943C260.519 15.3143 260.312 15.9743 259.899 16.5743C259.486 17.161 258.866 17.6277 258.039 17.9743C257.212 18.321 256.206 18.4943 255.019 18.4943ZM262.014 17.8943L263.214 17.5943V4.79434L262.014 4.49433V4.19433H272.714V7.79434H272.114C271.86 7.59434 271.64 7.341 271.454 7.03434C271.027 6.31434 270.814 5.53434 270.814 4.69434H266.514V10.9943H268.814C268.907 10.4877 269.08 10.0143 269.334 9.57434C269.44 9.37434 269.567 9.181 269.714 8.99434H270.314V13.4943H269.714C269.567 13.3077 269.44 13.1143 269.334 12.9143C269.08 12.4743 268.907 12.001 268.814 11.4943H266.514V17.6943H271.214C271.214 16.8543 271.427 16.0743 271.854 15.3543C272.04 15.0477 272.26 14.7943 272.514 14.5943H273.114V18.1943H262.014V17.8943ZM276.704 7.59434V17.2943L278.304 17.8943V18.1943H274.504V17.8943L276.104 17.2943V4.89434L274.704 4.49433V4.19433H276.804C277.511 4.19433 278.064 4.321 278.464 4.57433C278.864 4.82767 279.244 5.16767 279.604 5.59433L286.004 13.0943V5.09434L284.404 4.49433V4.19433H288.204V4.49433L286.604 5.09434V18.4943H286.004L276.704 7.59434ZM300.214 18.4943C299.268 18.4943 298.381 18.281 297.554 17.8543C297.181 17.6677 296.868 17.4477 296.614 17.1943C296.428 17.501 296.194 17.7743 295.914 18.0143C295.674 18.1877 295.541 18.281 295.514 18.2943H295.014V14.4943H295.814C296.014 15.1477 296.294 15.7343 296.654 16.2543C297.468 17.4143 298.521 17.9943 299.814 17.9943C300.574 17.9943 301.181 17.7677 301.634 17.3143C302.088 16.861 302.314 16.2543 302.314 15.4943C302.314 15.0543 302.181 14.661 301.914 14.3143C301.661 13.9677 301.341 13.661 300.954 13.3943C300.568 13.1277 300.028 12.7943 299.334 12.3943C298.454 11.901 297.741 11.4543 297.194 11.0543C296.648 10.6543 296.181 10.1543 295.794 9.55434C295.408 8.941 295.214 8.221 295.214 7.39434C295.214 6.741 295.394 6.15434 295.754 5.63434C296.128 5.101 296.681 4.681 297.414 4.37434C298.148 4.05434 299.048 3.89434 300.114 3.89434C300.888 3.89434 301.661 4.11434 302.434 4.55434C302.728 4.71434 303.021 4.92767 303.314 5.19434C303.541 4.84767 303.774 4.57433 304.014 4.37434C304.254 4.201 304.388 4.10767 304.414 4.09434H304.914V7.89434H304.114C303.941 7.25434 303.681 6.67434 303.334 6.15433C303.014 5.64767 302.614 5.22767 302.134 4.89434C301.668 4.561 301.128 4.39433 300.514 4.39433C299.994 4.39433 299.548 4.601 299.174 5.01434C298.801 5.42767 298.614 5.95434 298.614 6.59434C298.614 7.08767 298.754 7.53434 299.034 7.93434C299.328 8.321 299.681 8.661 300.094 8.95434C300.521 9.24767 301.094 9.601 301.814 10.0143C302.654 10.4943 303.334 10.921 303.854 11.2943C304.374 11.6677 304.814 12.1343 305.174 12.6943C305.534 13.241 305.714 13.8743 305.714 14.5943C305.714 15.3143 305.508 15.9743 305.094 16.5743C304.681 17.161 304.061 17.6277 303.234 17.9743C302.408 18.321 301.401 18.4943 300.214 18.4943ZM309.709 17.8943L310.909 17.5943V4.69434H308.609C308.609 5.50767 308.389 6.28767 307.949 7.03434C307.762 7.341 307.549 7.59434 307.309 7.79434H306.709V4.19433H318.409V7.79434H317.809C317.556 7.59434 317.336 7.341 317.149 7.03434C316.722 6.31434 316.509 5.53434 316.509 4.69434H314.209V17.5943L315.409 17.8943V18.1943H309.709V17.8943ZM319.703 18.3943C319.303 18.3943 318.949 18.2477 318.643 17.9543C318.349 17.6477 318.203 17.2943 318.203 16.8943C318.203 16.4943 318.349 16.1477 318.643 15.8543C318.949 15.5477 319.303 15.3943 319.703 15.3943C320.103 15.3943 320.449 15.5477 320.743 15.8543C321.049 16.1477 321.203 16.4943 321.203 16.8943C321.203 17.2943 321.049 17.6477 320.743 17.9543C320.449 18.2477 320.103 18.3943 319.703 18.3943ZM323.507 20.2943C323.787 20.201 324.067 20.0477 324.347 19.8343C324.921 19.4077 325.274 18.8277 325.407 18.0943L325.147 18.2543C324.974 18.3477 324.761 18.3943 324.507 18.3943C324.107 18.3943 323.754 18.2477 323.447 17.9543C323.154 17.6477 323.007 17.2943 323.007 16.8943C323.007 16.4943 323.154 16.1477 323.447 15.8543C323.754 15.5477 324.107 15.3943 324.507 15.3943C324.974 15.3943 325.354 15.561 325.647 15.8943C325.954 16.2143 326.107 16.6477 326.107 17.1943C326.107 18.421 325.707 19.381 324.907 20.0743C324.561 20.3943 324.161 20.6343 323.707 20.7943L323.507 20.2943ZM333.215 17.2943C333.215 16.5077 333.369 15.7943 333.675 15.1543C333.995 14.501 334.382 13.9343 334.835 13.4543C335.289 12.9743 335.882 12.4077 336.615 11.7543C337.295 11.1543 337.829 10.6543 338.215 10.2543C338.602 9.841 338.929 9.381 339.195 8.87434C339.462 8.35434 339.595 7.79434 339.595 7.19434C339.595 6.31434 339.382 5.62767 338.955 5.13433C338.529 4.641 337.975 4.39433 337.295 4.39433C336.909 4.39433 336.515 4.44767 336.115 4.55434L335.695 4.69434V7.89434L335.435 7.95434C335.222 7.981 335.042 7.99433 334.895 7.99433C334.442 7.99433 334.075 7.861 333.795 7.59434C333.529 7.31434 333.395 6.94767 333.395 6.49434C333.395 6.06767 333.555 5.65434 333.875 5.25434C334.209 4.85434 334.695 4.52767 335.335 4.27434C335.989 4.021 336.775 3.89434 337.695 3.89434C339.495 3.89434 340.829 4.25434 341.695 4.97434C342.562 5.69434 342.995 6.701 342.995 7.99433C342.995 8.80767 342.782 9.50767 342.355 10.0943C341.942 10.681 341.429 11.1677 340.815 11.5543C340.215 11.941 339.409 12.381 338.395 12.8743C337.542 13.2877 336.849 13.6543 336.315 13.9743C335.795 14.281 335.309 14.6543 334.855 15.0943C334.415 15.5343 334.102 16.0343 333.915 16.5943H341.315C341.409 15.8743 341.635 15.2743 341.995 14.7943C342.142 14.5677 342.315 14.3677 342.515 14.1943H343.115V18.1943H333.215V17.2943ZM348.919 18.4943C347.999 18.4943 347.212 18.3677 346.559 18.1143C345.919 17.861 345.432 17.5343 345.099 17.1343C344.779 16.7343 344.619 16.321 344.619 15.8943C344.619 15.441 344.752 15.081 345.019 14.8143C345.299 14.5343 345.666 14.3943 346.119 14.3943C346.226 14.3943 346.332 14.4077 346.439 14.4343C346.546 14.4477 346.619 14.4543 346.659 14.4543L346.919 14.4943V17.6943C346.932 17.6943 347.072 17.7477 347.339 17.8543C347.686 17.9477 348.079 17.9943 348.519 17.9943C349.452 17.9943 350.166 17.7143 350.659 17.1543C351.166 16.581 351.419 15.7277 351.419 14.5943C351.419 13.4343 351.172 12.561 350.679 11.9743C350.199 11.3877 349.546 11.0943 348.719 11.0943H347.719V10.5943H348.719C349.319 10.5943 349.819 10.3277 350.219 9.79434C350.619 9.261 350.819 8.49434 350.819 7.49434C350.819 6.49434 350.612 5.72767 350.199 5.19434C349.786 4.661 349.259 4.39433 348.619 4.39433C348.272 4.39433 347.939 4.44767 347.619 4.55434C347.579 4.56767 347.446 4.61434 347.219 4.69434V7.89434L346.959 7.95434C346.746 7.981 346.566 7.99433 346.419 7.99433C345.966 7.99433 345.599 7.861 345.319 7.59434C345.052 7.31434 344.919 6.94767 344.919 6.49434C344.919 6.081 345.079 5.67434 345.399 5.27434C345.719 4.87433 346.186 4.54767 346.799 4.29433C347.426 4.02767 348.166 3.89434 349.019 3.89434C350.139 3.89434 351.086 4.061 351.859 4.39433C352.646 4.71434 353.232 5.14767 353.619 5.69434C354.019 6.241 354.219 6.841 354.219 7.49434C354.219 8.25434 354.026 8.861 353.639 9.31434C353.252 9.75434 352.746 10.1077 352.119 10.3743C351.506 10.6143 350.806 10.7543 350.019 10.7943V10.8943C350.899 10.9343 351.699 11.0877 352.419 11.3543C354.019 11.9943 354.819 13.0743 354.819 14.5943C354.819 15.7677 354.332 16.7143 353.359 17.4343C352.399 18.141 350.919 18.4943 348.919 18.4943ZM361.123 18.4943C360.336 18.4943 359.643 18.3677 359.043 18.1143C358.456 17.8477 358.003 17.5143 357.683 17.1143C357.376 16.7143 357.223 16.3077 357.223 15.8943C357.223 15.441 357.356 15.081 357.623 14.8143C357.903 14.5343 358.27 14.3943 358.723 14.3943C358.83 14.3943 358.936 14.4077 359.043 14.4343C359.15 14.4477 359.223 14.4543 359.263 14.4543L359.523 14.4943V17.6943L359.903 17.8543C360.143 17.9477 360.416 17.9943 360.723 17.9943C361.376 17.9943 361.91 17.821 362.323 17.4743C362.736 17.1277 363.056 16.4877 363.283 15.5543C363.51 14.621 363.623 13.301 363.623 11.5943C363.503 11.7943 363.316 11.9943 363.063 12.1943C362.556 12.5943 361.976 12.7943 361.323 12.7943C360.35 12.7943 359.496 12.6143 358.763 12.2543C358.043 11.881 357.49 11.3677 357.103 10.7143C356.716 10.061 356.523 9.321 356.523 8.49434C356.523 7.06767 356.963 5.94767 357.843 5.13433C358.736 4.30767 359.996 3.89434 361.623 3.89434C363.303 3.89434 364.623 4.49434 365.583 5.69434C366.543 6.89434 367.023 8.72767 367.023 11.1943C367.023 13.5943 366.496 15.4143 365.443 16.6543C364.403 17.881 362.963 18.4943 361.123 18.4943ZM361.723 12.2943C362.27 12.2943 362.703 12.0277 363.023 11.4943C363.356 10.961 363.523 10.1277 363.523 8.99434C363.523 7.301 363.336 6.09434 362.963 5.37434C362.603 4.65434 362.156 4.29433 361.623 4.29433C361.356 4.29433 361.09 4.42767 360.823 4.69434C360.57 4.961 360.356 5.39434 360.183 5.99434C360.01 6.59434 359.923 7.361 359.923 8.29434C359.923 9.22767 360.01 9.99434 360.183 10.5943C360.37 11.1943 360.596 11.6277 360.863 11.8943C361.143 12.161 361.43 12.2943 361.723 12.2943ZM379.531 18.4943C378.584 18.4943 377.698 18.281 376.871 17.8543C376.498 17.6677 376.184 17.4477 375.931 17.1943C375.744 17.501 375.511 17.7743 375.231 18.0143C374.991 18.1877 374.858 18.281 374.831 18.2943H374.331V14.4943H375.131C375.331 15.1477 375.611 15.7343 375.971 16.2543C376.784 17.4143 377.838 17.9943 379.131 17.9943C379.891 17.9943 380.498 17.7677 380.951 17.3143C381.404 16.861 381.631 16.2543 381.631 15.4943C381.631 15.0543 381.498 14.661 381.231 14.3143C380.978 13.9677 380.658 13.661 380.271 13.3943C379.884 13.1277 379.344 12.7943 378.651 12.3943C377.771 11.901 377.058 11.4543 376.511 11.0543C375.964 10.6543 375.498 10.1543 375.111 9.55434C374.724 8.941 374.531 8.221 374.531 7.39434C374.531 6.741 374.711 6.15434 375.071 5.63434C375.444 5.101 375.998 4.681 376.731 4.37434C377.464 4.05434 378.364 3.89434 379.431 3.89434C380.204 3.89434 380.978 4.11434 381.751 4.55434C382.044 4.71434 382.338 4.92767 382.631 5.19434C382.858 4.84767 383.091 4.57433 383.331 4.37434C383.571 4.201 383.704 4.10767 383.731 4.09434H384.231V7.89434H383.431C383.258 7.25434 382.998 6.67434 382.651 6.15433C382.331 5.64767 381.931 5.22767 381.451 4.89434C380.984 4.561 380.444 4.39433 379.831 4.39433C379.311 4.39433 378.864 4.601 378.491 5.01434C378.118 5.42767 377.931 5.95434 377.931 6.59434C377.931 7.08767 378.071 7.53434 378.351 7.93434C378.644 8.321 378.998 8.661 379.411 8.95434C379.838 9.24767 380.411 9.601 381.131 10.0143C381.971 10.4943 382.651 10.921 383.171 11.2943C383.691 11.6677 384.131 12.1343 384.491 12.6943C384.851 13.241 385.031 13.8743 385.031 14.5943C385.031 15.3143 384.824 15.9743 384.411 16.5743C383.998 17.161 383.378 17.6277 382.551 17.9743C381.724 18.321 380.718 18.4943 379.531 18.4943ZM386.525 18.1943V17.8943L387.725 17.5943V4.79434L386.525 4.49433V4.19433H392.225V4.49433L391.025 4.79434V10.9943H395.325V4.79434L394.125 4.49433V4.19433H399.825V4.49433L398.625 4.79434V17.5943L399.825 17.8943V18.1943H394.125V17.8943L395.325 17.5943V11.4943H391.025V17.5943L392.225 17.8943V18.1943H386.525ZM408.218 18.4943C406.912 18.4943 405.765 18.2143 404.778 17.6543C403.805 17.081 403.052 16.2477 402.518 15.1543C401.985 14.061 401.718 12.741 401.718 11.1943C401.718 9.64767 401.985 8.32767 402.518 7.23434C403.052 6.141 403.805 5.31433 404.778 4.75433C405.765 4.181 406.912 3.89434 408.218 3.89434C409.525 3.89434 410.665 4.181 411.638 4.75433C412.625 5.31433 413.385 6.141 413.918 7.23434C414.452 8.32767 414.718 9.64767 414.718 11.1943C414.718 12.741 414.452 14.061 413.918 15.1543C413.385 16.2477 412.625 17.081 411.638 17.6543C410.665 18.2143 409.525 18.4943 408.218 18.4943ZM408.218 18.0943C408.738 18.0943 409.218 17.8743 409.658 17.4343C410.112 16.9943 410.485 16.261 410.778 15.2343C411.072 14.2077 411.218 12.861 411.218 11.1943C411.218 9.52767 411.072 8.181 410.778 7.15434C410.485 6.12767 410.112 5.39434 409.658 4.95433C409.218 4.51433 408.738 4.29433 408.218 4.29433C407.698 4.29433 407.212 4.51433 406.758 4.95433C406.318 5.39434 405.952 6.12767 405.658 7.15434C405.365 8.181 405.218 9.52767 405.218 11.1943C405.218 12.861 405.365 14.2077 405.658 15.2343C405.952 16.261 406.318 16.9943 406.758 17.4343C407.212 17.8743 407.698 18.0943 408.218 18.0943ZM416.623 17.8943L417.823 17.5943V4.79434L416.623 4.49433V4.19433H422.223C424.436 4.19433 426.023 4.561 426.983 5.29434C427.943 6.01434 428.423 7.081 428.423 8.49434C428.423 9.90767 427.943 10.981 426.983 11.7143C426.023 12.4343 424.436 12.7943 422.223 12.7943H421.123V17.5943L422.323 17.8943V18.1943H416.623V17.8943ZM422.223 12.2943C423.063 12.2943 423.736 11.9743 424.243 11.3343C424.763 10.6943 425.023 9.74767 425.023 8.49434C425.023 7.25434 424.763 6.31434 424.243 5.67434C423.736 5.021 423.063 4.69434 422.223 4.69434H421.123V12.2943H422.223ZM430.119 17.8943L431.319 17.5943V4.79434L430.119 4.49433V4.19433H435.719C437.932 4.19433 439.519 4.561 440.479 5.29434C441.439 6.01434 441.919 7.081 441.919 8.49434C441.919 9.90767 441.439 10.981 440.479 11.7143C439.519 12.4343 437.932 12.7943 435.719 12.7943H434.619V17.5943L435.819 17.8943V18.1943H430.119V17.8943ZM435.719 12.2943C436.559 12.2943 437.232 11.9743 437.739 11.3343C438.259 10.6943 438.519 9.74767 438.519 8.49434C438.519 7.25434 438.259 6.31434 437.739 5.67434C437.232 5.021 436.559 4.69434 435.719 4.69434H434.619V12.2943H435.719ZM443.615 18.1943V17.8943L444.815 17.5943V4.79434L443.615 4.49433V4.19433H449.315V4.49433L448.115 4.79434V17.5943L449.315 17.8943V18.1943H443.615ZM452.915 7.59434V17.2943L454.515 17.8943V18.1943H450.715V17.8943L452.315 17.2943V4.89434L450.915 4.49433V4.19433H453.015C453.722 4.19433 454.275 4.321 454.675 4.57433C455.075 4.82767 455.455 5.16767 455.815 5.59433L462.215 13.0943V5.09434L460.615 4.49433V4.19433H464.415V4.49433L462.815 5.09434V18.4943H462.215L452.915 7.59434ZM471.42 18.4943C470.407 18.4943 469.473 18.2077 468.62 17.6343C467.767 17.061 467.087 16.2277 466.58 15.1343C466.073 14.0277 465.82 12.7143 465.82 11.1943C465.82 9.661 466.08 8.34767 466.6 7.25433C467.133 6.14767 467.873 5.31433 468.82 4.75433C469.78 4.181 470.887 3.89434 472.14 3.89434C472.9 3.89434 473.667 4.11434 474.44 4.55434C474.733 4.71434 475.027 4.92767 475.32 5.19434C475.547 4.84767 475.78 4.57433 476.02 4.37434C476.26 4.201 476.393 4.10767 476.42 4.09434H476.92V7.89434H476.12C475.947 7.25434 475.687 6.67434 475.34 6.15433C475.02 5.64767 474.62 5.22767 474.14 4.89434C473.673 4.561 473.133 4.39433 472.52 4.39433C471.6 4.39433 470.833 4.92767 470.22 5.99434C469.62 7.061 469.32 8.79434 469.32 11.1943C469.32 13.5943 469.587 15.2943 470.12 16.2943C470.667 17.2943 471.367 17.7943 472.22 17.7943C472.713 17.7943 473.16 17.5277 473.56 16.9943C473.707 16.7943 473.86 16.5277 474.02 16.1943V11.5943L472.82 11.2943V10.9943H478.52V11.2943L477.32 11.5943V18.2943H477.02C476.047 18.2943 475.307 18.0277 474.8 17.4943C474.573 17.2543 474.413 16.9877 474.32 16.6943C474.133 17.0277 473.913 17.3277 473.66 17.5943C473.06 18.1943 472.313 18.4943 471.42 18.4943ZM492.229 18.4943C490.096 18.4943 488.429 17.861 487.229 16.5943C486.029 15.3277 485.429 13.5277 485.429 11.1943C485.429 9.661 485.689 8.34767 486.209 7.25433C486.743 6.14767 487.483 5.31433 488.429 4.75433C489.389 4.181 490.496 3.89434 491.749 3.89434C492.509 3.89434 493.276 4.11434 494.049 4.55434C494.343 4.71434 494.636 4.92767 494.929 5.19434C495.156 4.84767 495.389 4.57433 495.629 4.37434C495.869 4.201 496.003 4.10767 496.029 4.09434H496.529V7.89434H495.729C495.556 7.25434 495.296 6.67434 494.949 6.15433C494.629 5.64767 494.229 5.22767 493.749 4.89434C493.283 4.561 492.743 4.39433 492.129 4.39433C491.209 4.39433 490.443 4.92767 489.829 5.99434C489.229 7.061 488.929 8.79434 488.929 11.1943C488.929 13.6343 489.256 15.381 489.909 16.4343C490.576 17.4743 491.483 17.9943 492.629 17.9943C493.256 17.9943 493.849 17.821 494.409 17.4743C494.983 17.1143 495.443 16.641 495.789 16.0543C496.149 15.4677 496.329 14.8477 496.329 14.1943H496.829C496.829 14.9543 496.623 15.6677 496.209 16.3343C495.809 16.9877 495.256 17.5143 494.549 17.9143C493.856 18.301 493.083 18.4943 492.229 18.4943ZM498.537 17.8943L499.737 17.5943V4.79434L498.537 4.49433V4.19433H509.237V7.79434H508.637C508.384 7.59434 508.164 7.341 507.977 7.03434C507.55 6.31434 507.337 5.53434 507.337 4.69434H503.037V10.9943H505.337C505.43 10.4877 505.604 10.0143 505.857 9.57434C505.964 9.37434 506.09 9.181 506.237 8.99434H506.837V13.4943H506.237C506.09 13.3077 505.964 13.1143 505.857 12.9143C505.604 12.4743 505.43 12.001 505.337 11.4943H503.037V17.6943H507.737C507.737 16.8543 507.95 16.0743 508.377 15.3543C508.564 15.0477 508.784 14.7943 509.037 14.5943H509.637V18.1943H498.537V17.8943ZM513.228 7.59434V17.2943L514.828 17.8943V18.1943H511.028V17.8943L512.628 17.2943V4.89434L511.228 4.49433V4.19433H513.328C514.034 4.19433 514.588 4.321 514.988 4.57433C515.388 4.82767 515.768 5.16767 516.128 5.59433L522.528 13.0943V5.09434L520.928 4.49433V4.19433H524.728V4.49433L523.128 5.09434V18.4943H522.528L513.228 7.59434ZM528.732 17.8943L529.932 17.5943V4.69434H527.632C527.632 5.50767 527.412 6.28767 526.972 7.03434C526.786 7.341 526.572 7.59434 526.332 7.79434H525.732V4.19433H537.432V7.79434H536.832C536.579 7.59434 536.359 7.341 536.172 7.03434C535.746 6.31434 535.532 5.53434 535.532 4.69434H533.232V17.5943L534.432 17.8943V18.1943H528.732V17.8943ZM538.928 17.8943L540.128 17.5943V4.79434L538.928 4.49433V4.19433H549.628V7.79434H549.028C548.774 7.59434 548.554 7.341 548.368 7.03434C547.941 6.31434 547.728 5.53434 547.728 4.69434H543.428V10.9943H545.728C545.821 10.4877 545.994 10.0143 546.248 9.57434C546.354 9.37434 546.481 9.181 546.628 8.99434H547.228V13.4943H546.628C546.481 13.3077 546.354 13.1143 546.248 12.9143C545.994 12.4743 545.821 12.001 545.728 11.4943H543.428V17.6943H548.128C548.128 16.8543 548.341 16.0743 548.768 15.3543C548.954 15.0477 549.174 14.7943 549.428 14.5943H550.028V18.1943H538.928V17.8943ZM551.818 17.8943L553.018 17.5943V4.79434L551.818 4.49433V4.19433H557.118C559.385 4.19433 561.018 4.541 562.018 5.23434C563.018 5.91434 563.518 6.86767 563.518 8.09434C563.518 8.921 563.298 9.59434 562.858 10.1143C562.418 10.621 561.852 11.001 561.158 11.2543C560.425 11.5343 559.645 11.681 558.818 11.6943V11.7943C559.312 11.821 559.745 11.8943 560.118 12.0143C561.052 12.3077 561.685 12.8343 562.018 13.5943L563.818 17.5943L564.818 17.8943V18.1943H562.018C560.925 18.1943 560.125 17.6277 559.618 16.4943L557.618 11.9943H556.318V17.5943L557.718 17.8943V18.1943H551.818V17.8943ZM557.118 11.4943C558.052 11.4943 558.785 11.201 559.318 10.6143C559.852 10.0277 560.118 9.18767 560.118 8.09434C560.118 7.001 559.852 6.161 559.318 5.57434C558.785 4.98767 558.052 4.69434 557.118 4.69434H556.318V11.4943H557.118ZM132.238 45.8943L133.438 45.5943V32.7943L132.238 32.4943V32.1943H137.338C139.725 32.1943 141.552 32.8077 142.818 34.0343C144.098 35.261 144.738 36.981 144.738 39.1943C144.738 41.4077 144.098 43.1277 142.818 44.3543C141.552 45.581 139.725 46.1943 137.338 46.1943H132.238V45.8943ZM137.338 45.6943C138.578 45.6943 139.538 45.1943 140.218 44.1943C140.898 43.181 141.238 41.5143 141.238 39.1943C141.238 36.8743 140.898 35.2143 140.218 34.2143C139.538 33.201 138.578 32.6943 137.338 32.6943H136.738V45.6943H137.338ZM146.535 45.8943L147.735 45.5943V32.7943L146.535 32.4943V32.1943H157.235V35.7943H156.635C156.382 35.5943 156.162 35.341 155.975 35.0343C155.548 34.3143 155.335 33.5343 155.335 32.6943H151.035V38.9943H153.335C153.428 38.4877 153.602 38.0143 153.855 37.5743C153.962 37.3743 154.088 37.181 154.235 36.9943H154.835V41.4943H154.235C154.088 41.3077 153.962 41.1143 153.855 40.9143C153.602 40.4743 153.428 40.001 153.335 39.4943H151.035V45.6943H155.735C155.735 44.8543 155.948 44.0743 156.375 43.3543C156.562 43.0477 156.782 42.7943 157.035 42.5943H157.635V46.1943H146.535V45.8943ZM165.93 46.4943C163.797 46.4943 162.13 45.861 160.93 44.5943C159.73 43.3277 159.13 41.5277 159.13 39.1943C159.13 37.661 159.39 36.3477 159.91 35.2543C160.444 34.1477 161.184 33.3143 162.13 32.7543C163.09 32.181 164.197 31.8943 165.45 31.8943C166.21 31.8943 166.977 32.1143 167.75 32.5543C168.044 32.7143 168.337 32.9277 168.63 33.1943C168.857 32.8477 169.09 32.5743 169.33 32.3743C169.57 32.201 169.704 32.1077 169.73 32.0943H170.23V35.8943H169.43C169.257 35.2543 168.997 34.6743 168.65 34.1543C168.33 33.6477 167.93 33.2277 167.45 32.8943C166.984 32.561 166.444 32.3943 165.83 32.3943C164.91 32.3943 164.144 32.9277 163.53 33.9943C162.93 35.061 162.63 36.7943 162.63 39.1943C162.63 41.6343 162.957 43.381 163.61 44.4343C164.277 45.4743 165.184 45.9943 166.33 45.9943C166.957 45.9943 167.55 45.821 168.11 45.4743C168.684 45.1143 169.144 44.641 169.49 44.0543C169.85 43.4677 170.03 42.8477 170.03 42.1943H170.53C170.53 42.9543 170.324 43.6677 169.91 44.3343C169.51 44.9877 168.957 45.5143 168.25 45.9143C167.557 46.301 166.784 46.4943 165.93 46.4943ZM178.248 46.4943C176.941 46.4943 175.794 46.2143 174.808 45.6543C173.834 45.081 173.081 44.2477 172.548 43.1543C172.014 42.061 171.748 40.741 171.748 39.1943C171.748 37.6477 172.014 36.3277 172.548 35.2343C173.081 34.141 173.834 33.3143 174.808 32.7543C175.794 32.181 176.941 31.8943 178.248 31.8943C179.554 31.8943 180.694 32.181 181.668 32.7543C182.654 33.3143 183.414 34.141 183.948 35.2343C184.481 36.3277 184.748 37.6477 184.748 39.1943C184.748 40.741 184.481 42.061 183.948 43.1543C183.414 44.2477 182.654 45.081 181.668 45.6543C180.694 46.2143 179.554 46.4943 178.248 46.4943ZM178.248 46.0943C178.768 46.0943 179.248 45.8743 179.688 45.4343C180.141 44.9943 180.514 44.261 180.808 43.2343C181.101 42.2077 181.248 40.861 181.248 39.1943C181.248 37.5277 181.101 36.181 180.808 35.1543C180.514 34.1277 180.141 33.3943 179.688 32.9543C179.248 32.5143 178.768 32.2943 178.248 32.2943C177.728 32.2943 177.241 32.5143 176.788 32.9543C176.348 33.3943 175.981 34.1277 175.688 35.1543C175.394 36.181 175.248 37.5277 175.248 39.1943C175.248 40.861 175.394 42.2077 175.688 43.2343C175.981 44.261 176.348 44.9943 176.788 45.4343C177.241 45.8743 177.728 46.0943 178.248 46.0943ZM186.652 45.8943L187.852 45.5943V32.7943L186.652 32.4943V32.1943H191.952C194.219 32.1943 195.852 32.541 196.852 33.2343C197.852 33.9143 198.352 34.8677 198.352 36.0943C198.352 36.921 198.132 37.5943 197.692 38.1143C197.252 38.621 196.686 39.001 195.992 39.2543C195.259 39.5343 194.479 39.681 193.652 39.6943V39.7943C194.146 39.821 194.579 39.8943 194.952 40.0143C195.886 40.3077 196.519 40.8343 196.852 41.5943L198.652 45.5943L199.652 45.8943V46.1943H196.852C195.759 46.1943 194.959 45.6277 194.452 44.4943L192.452 39.9943H191.152V45.5943L192.552 45.8943V46.1943H186.652V45.8943ZM191.952 39.4943C192.886 39.4943 193.619 39.201 194.152 38.6143C194.686 38.0277 194.952 37.1877 194.952 36.0943C194.952 35.001 194.686 34.161 194.152 33.5743C193.619 32.9877 192.886 32.6943 191.952 32.6943H191.152V39.4943H191.952ZM207.361 46.4943C205.388 46.4943 203.894 46.0343 202.881 45.1143C201.868 44.181 201.361 42.8743 201.361 41.1943V32.7943L200.161 32.4943V32.1943H205.861V32.4943L204.661 32.7943V41.1943C204.661 42.9143 204.928 44.1477 205.461 44.8943C205.994 45.6277 206.761 45.9943 207.761 45.9943C208.374 45.9943 208.954 45.801 209.501 45.4143C210.061 45.0143 210.508 44.4543 210.841 43.7343C211.188 43.001 211.361 42.1543 211.361 41.1943V33.0943L209.761 32.4943V32.1943H213.561V32.4943L211.961 33.0943V41.1943C211.961 42.2743 211.761 43.2143 211.361 44.0143C210.961 44.8143 210.414 45.4277 209.721 45.8543C209.028 46.281 208.241 46.4943 207.361 46.4943ZM216.46 34.6943V45.2943L218.06 45.8943V46.1943H214.26V45.8943L215.86 45.2943V32.7943L214.66 32.4943V32.1943H217.16C217.853 32.1943 218.4 32.341 218.8 32.6343C219.213 32.9143 219.567 33.3343 219.86 33.8943L224.22 42.2343L227.56 33.8943C227.787 33.3077 228.093 32.881 228.48 32.6143C228.867 32.3343 229.46 32.1943 230.26 32.1943H232.36V32.4943L231.16 32.7943V45.5943L232.36 45.8943V46.1943H226.66V45.8943L227.86 45.5943V34.6943L223.16 46.3943H222.56L216.46 34.6943ZM242.473 45.8943L243.673 45.5943V32.6943H241.373C241.373 33.5077 241.153 34.2877 240.713 35.0343C240.526 35.341 240.313 35.5943 240.073 35.7943H239.473V32.1943H251.173V35.7943H250.573C250.319 35.5943 250.099 35.341 249.913 35.0343C249.486 34.3143 249.273 33.5343 249.273 32.6943H246.973V45.5943L248.173 45.8943V46.1943H242.473V45.8943ZM252.668 45.8943L253.868 45.5943V32.7943L252.668 32.4943V32.1943H263.368V35.7943H262.768C262.515 35.5943 262.295 35.341 262.108 35.0343C261.681 34.3143 261.468 33.5343 261.468 32.6943H257.168V38.9943H259.468C259.561 38.4877 259.735 38.0143 259.988 37.5743C260.095 37.3743 260.221 37.181 260.368 36.9943H260.968V41.4943H260.368C260.221 41.3077 260.095 41.1143 259.988 40.9143C259.735 40.4743 259.561 40.001 259.468 39.4943H257.168V45.6943H261.868C261.868 44.8543 262.081 44.0743 262.508 43.3543C262.695 43.0477 262.915 42.7943 263.168 42.5943H263.768V46.1943H252.668V45.8943ZM265.559 45.8943L266.759 45.5943V32.7943L265.559 32.4943V32.1943H271.259V32.4943L270.059 32.7943V45.6943H274.359C274.359 44.8543 274.572 44.0743 274.999 43.3543C275.185 43.0477 275.405 42.7943 275.659 42.5943H276.259V46.1943H265.559V45.8943ZM287.071 44.2943V39.9943H283.071V39.0943H287.071V34.7943H287.971V39.0943H291.971V39.9943H287.971V44.2943H287.071ZM295.564 46.1943C295.564 44.8743 295.744 43.7077 296.104 42.6943C296.477 41.6677 296.924 40.7943 297.444 40.0743C297.964 39.341 298.644 38.5143 299.484 37.5943C300.217 36.7943 300.791 36.1143 301.204 35.5543C301.631 34.981 301.951 34.361 302.164 33.6943H295.064C294.971 34.4143 294.744 35.0143 294.384 35.4943C294.237 35.721 294.064 35.921 293.864 36.0943H293.264V32.1943H302.764V33.0943C302.764 33.841 302.644 34.5343 302.404 35.1743C302.177 35.8143 301.817 36.641 301.324 37.6543C300.844 38.601 300.451 39.441 300.144 40.1743C299.851 40.9077 299.597 41.7877 299.384 42.8143C299.171 43.8277 299.064 44.9543 299.064 46.1943H295.564ZM315.475 50.9943C313.835 49.9143 312.488 48.5077 311.435 46.7743C310.395 45.0543 309.875 43.0943 309.875 40.8943C309.875 38.6943 310.388 36.7477 311.415 35.0543C312.455 33.3477 313.808 31.9277 315.475 30.7943L315.675 31.0943C314.888 32.121 314.288 33.4877 313.875 35.1943C313.475 36.901 313.275 38.801 313.275 40.8943C313.275 42.9877 313.475 44.8877 313.875 46.5943C314.288 48.301 314.888 49.6677 315.675 50.6943L315.475 50.9943ZM321.484 46.4943C320.698 46.4943 320.004 46.3677 319.404 46.1143C318.818 45.8477 318.364 45.5143 318.044 45.1143C317.738 44.7143 317.584 44.3077 317.584 43.8943C317.584 43.441 317.718 43.081 317.984 42.8143C318.264 42.5343 318.631 42.3943 319.084 42.3943C319.191 42.3943 319.298 42.4077 319.404 42.4343C319.511 42.4477 319.584 42.4543 319.624 42.4543L319.884 42.4943V45.6943L320.264 45.8543C320.504 45.9477 320.778 45.9943 321.084 45.9943C321.738 45.9943 322.271 45.821 322.684 45.4743C323.098 45.1277 323.418 44.4877 323.644 43.5543C323.871 42.621 323.984 41.301 323.984 39.5943C323.864 39.7943 323.678 39.9943 323.424 40.1943C322.918 40.5943 322.338 40.7943 321.684 40.7943C320.711 40.7943 319.858 40.6143 319.124 40.2543C318.404 39.881 317.851 39.3677 317.464 38.7143C317.078 38.061 316.884 37.321 316.884 36.4943C316.884 35.0677 317.324 33.9477 318.204 33.1343C319.098 32.3077 320.358 31.8943 321.984 31.8943C323.664 31.8943 324.984 32.4943 325.944 33.6943C326.904 34.8943 327.384 36.7277 327.384 39.1943C327.384 41.5943 326.858 43.4143 325.804 44.6543C324.764 45.881 323.324 46.4943 321.484 46.4943ZM322.084 40.2943C322.631 40.2943 323.064 40.0277 323.384 39.4943C323.718 38.961 323.884 38.1277 323.884 36.9943C323.884 35.301 323.698 34.0943 323.324 33.3743C322.964 32.6543 322.518 32.2943 321.984 32.2943C321.718 32.2943 321.451 32.4277 321.184 32.6943C320.931 32.961 320.718 33.3943 320.544 33.9943C320.371 34.5943 320.284 35.361 320.284 36.2943C320.284 37.2277 320.371 37.9943 320.544 38.5943C320.731 39.1943 320.958 39.6277 321.224 39.8943C321.504 40.161 321.791 40.2943 322.084 40.2943ZM328.596 45.2943C328.596 44.5077 328.749 43.7943 329.056 43.1543C329.376 42.501 329.763 41.9343 330.216 41.4543C330.669 40.9743 331.263 40.4077 331.996 39.7543C332.676 39.1543 333.209 38.6543 333.596 38.2543C333.983 37.841 334.309 37.381 334.576 36.8743C334.843 36.3543 334.976 35.7943 334.976 35.1943C334.976 34.3143 334.763 33.6277 334.336 33.1343C333.909 32.641 333.356 32.3943 332.676 32.3943C332.289 32.3943 331.896 32.4477 331.496 32.5543L331.076 32.6943V35.8943L330.816 35.9543C330.603 35.981 330.423 35.9943 330.276 35.9943C329.823 35.9943 329.456 35.861 329.176 35.5943C328.909 35.3143 328.776 34.9477 328.776 34.4943C328.776 34.0677 328.936 33.6543 329.256 33.2543C329.589 32.8543 330.076 32.5277 330.716 32.2743C331.369 32.021 332.156 31.8943 333.076 31.8943C334.876 31.8943 336.209 32.2543 337.076 32.9743C337.943 33.6943 338.376 34.701 338.376 35.9943C338.376 36.8077 338.163 37.5077 337.736 38.0943C337.323 38.681 336.809 39.1677 336.196 39.5543C335.596 39.941 334.789 40.381 333.776 40.8743C332.923 41.2877 332.229 41.6543 331.696 41.9743C331.176 42.281 330.689 42.6543 330.236 43.0943C329.796 43.5343 329.483 44.0343 329.296 44.5943H336.696C336.789 43.8743 337.016 43.2743 337.376 42.7943C337.523 42.5677 337.696 42.3677 337.896 42.1943H338.496V46.1943H328.596V45.2943ZM345.4 46.4943C343.72 46.4943 342.447 46.161 341.58 45.4943C340.727 44.8277 340.3 43.961 340.3 42.8943C340.3 42.161 340.62 41.4543 341.26 40.7743C341.9 40.081 342.68 39.5877 343.6 39.2943C342.72 38.801 342.047 38.261 341.58 37.6743C341.127 37.0743 340.9 36.3477 340.9 35.4943C340.9 34.4277 341.327 33.561 342.18 32.8943C343.047 32.2277 344.32 31.8943 346 31.8943C346.84 31.8943 347.573 32.0477 348.2 32.3543C348.84 32.661 349.333 33.061 349.68 33.5543C350.027 34.0477 350.2 34.561 350.2 35.0943C350.2 35.721 349.927 36.3277 349.38 36.9143C348.847 37.501 348.22 37.8943 347.5 38.0943C348.713 38.6277 349.633 39.261 350.26 39.9943C350.887 40.7277 351.2 41.6277 351.2 42.6943C351.2 43.3877 350.987 44.021 350.56 44.5943C350.133 45.1677 349.487 45.6277 348.62 45.9743C347.753 46.321 346.68 46.4943 345.4 46.4943ZM346.9 37.6943C347.407 37.4677 347.813 37.141 348.12 36.7143C348.44 36.2877 348.6 35.7477 348.6 35.0943C348.6 34.6143 348.48 34.1677 348.24 33.7543C348.013 33.341 347.713 33.0143 347.34 32.7743C346.98 32.521 346.6 32.3943 346.2 32.3943C345.627 32.3943 345.147 32.621 344.76 33.0743C344.387 33.5143 344.2 34.121 344.2 34.8943C344.2 35.961 345.1 36.8943 346.9 37.6943ZM345.2 45.9943C346.053 45.9943 346.713 45.761 347.18 45.2943C347.66 44.8143 347.9 44.1477 347.9 43.2943C347.9 42.6543 347.58 42.0077 346.94 41.3543C346.3 40.701 345.453 40.1477 344.4 39.6943C343.653 39.961 343.067 40.361 342.64 40.8943C342.213 41.4143 342 42.081 342 42.8943C342 43.4543 342.14 43.9743 342.42 44.4543C342.713 44.921 343.1 45.2943 343.58 45.5743C344.073 45.8543 344.613 45.9943 345.2 45.9943ZM352.105 50.6943C352.891 49.6677 353.485 48.301 353.885 46.5943C354.298 44.8877 354.505 42.9877 354.505 40.8943C354.505 38.801 354.298 36.901 353.885 35.1943C353.485 33.4877 352.891 32.121 352.105 31.0943L352.305 30.7943C353.971 31.9277 355.318 33.3477 356.345 35.0543C357.385 36.7477 357.905 38.6943 357.905 40.8943C357.905 43.0943 357.378 45.0543 356.325 46.7743C355.285 48.5077 353.945 49.9143 352.305 50.9943L352.105 50.6943ZM367.42 46.1943C367.42 44.8743 367.6 43.7077 367.96 42.6943C368.333 41.6677 368.78 40.7943 369.3 40.0743C369.82 39.341 370.5 38.5143 371.34 37.5943C372.073 36.7943 372.646 36.1143 373.06 35.5543C373.486 34.981 373.806 34.361 374.02 33.6943H366.92C366.826 34.4143 366.6 35.0143 366.24 35.4943C366.093 35.721 365.92 35.921 365.72 36.0943H365.12V32.1943H374.62V33.0943C374.62 33.841 374.5 34.5343 374.26 35.1743C374.033 35.8143 373.673 36.641 373.18 37.6543C372.7 38.601 372.306 39.441 372 40.1743C371.706 40.9077 371.453 41.7877 371.24 42.8143C371.026 43.8277 370.92 44.9543 370.92 46.1943H367.42ZM381.134 46.4943C379.454 46.4943 378.134 45.8943 377.174 44.6943C376.214 43.4943 375.734 41.661 375.734 39.1943C375.734 36.7943 376.254 34.981 377.294 33.7543C378.348 32.5143 379.794 31.8943 381.634 31.8943C382.421 31.8943 383.108 32.0277 383.694 32.2943C384.294 32.5477 384.748 32.8743 385.054 33.2743C385.374 33.6743 385.534 34.081 385.534 34.4943C385.534 34.9477 385.394 35.3143 385.114 35.5943C384.848 35.861 384.488 35.9943 384.034 35.9943C383.848 35.9943 383.661 35.981 383.474 35.9543L383.234 35.8943V32.6943L382.854 32.5543C382.561 32.4477 382.288 32.3943 382.034 32.3943C381.381 32.3943 380.841 32.5677 380.414 32.9143C380.001 33.261 379.681 33.901 379.454 34.8343C379.241 35.7677 379.134 37.0877 379.134 38.7943C379.281 38.5677 379.461 38.3677 379.674 38.1943C380.181 37.7943 380.768 37.5943 381.434 37.5943C382.408 37.5943 383.254 37.781 383.974 38.1543C384.708 38.5143 385.268 39.021 385.654 39.6743C386.041 40.3277 386.234 41.0677 386.234 41.8943C386.234 43.321 385.788 44.4477 384.894 45.2743C384.014 46.0877 382.761 46.4943 381.134 46.4943ZM381.134 46.0943C381.401 46.0943 381.661 45.961 381.914 45.6943C382.181 45.4277 382.401 44.9943 382.574 44.3943C382.748 43.7943 382.834 43.0277 382.834 42.0943C382.834 41.161 382.741 40.3943 382.554 39.7943C382.381 39.1943 382.154 38.761 381.874 38.4943C381.608 38.2277 381.328 38.0943 381.034 38.0943C380.488 38.0943 380.048 38.361 379.714 38.8943C379.394 39.4277 379.234 40.261 379.234 41.3943C379.234 43.0877 379.414 44.2943 379.774 45.0143C380.148 45.7343 380.601 46.0943 381.134 46.0943ZM393.037 46.4943C391.357 46.4943 390.083 46.161 389.217 45.4943C388.363 44.8277 387.937 43.961 387.937 42.8943C387.937 42.161 388.257 41.4543 388.897 40.7743C389.537 40.081 390.317 39.5877 391.237 39.2943C390.357 38.801 389.683 38.261 389.217 37.6743C388.763 37.0743 388.537 36.3477 388.537 35.4943C388.537 34.4277 388.963 33.561 389.817 32.8943C390.683 32.2277 391.957 31.8943 393.637 31.8943C394.477 31.8943 395.21 32.0477 395.837 32.3543C396.477 32.661 396.97 33.061 397.317 33.5543C397.663 34.0477 397.837 34.561 397.837 35.0943C397.837 35.721 397.563 36.3277 397.017 36.9143C396.483 37.501 395.857 37.8943 395.137 38.0943C396.35 38.6277 397.27 39.261 397.897 39.9943C398.523 40.7277 398.837 41.6277 398.837 42.6943C398.837 43.3877 398.623 44.021 398.197 44.5943C397.77 45.1677 397.123 45.6277 396.257 45.9743C395.39 46.321 394.317 46.4943 393.037 46.4943ZM394.537 37.6943C395.043 37.4677 395.45 37.141 395.757 36.7143C396.077 36.2877 396.237 35.7477 396.237 35.0943C396.237 34.6143 396.117 34.1677 395.877 33.7543C395.65 33.341 395.35 33.0143 394.977 32.7743C394.617 32.521 394.237 32.3943 393.837 32.3943C393.263 32.3943 392.783 32.621 392.397 33.0743C392.023 33.5143 391.837 34.121 391.837 34.8943C391.837 35.961 392.737 36.8943 394.537 37.6943ZM392.837 45.9943C393.69 45.9943 394.35 45.761 394.817 45.2943C395.297 44.8143 395.537 44.1477 395.537 43.2943C395.537 42.6543 395.217 42.0077 394.577 41.3543C393.937 40.701 393.09 40.1477 392.037 39.6943C391.29 39.961 390.703 40.361 390.277 40.8943C389.85 41.4143 389.637 42.081 389.637 42.8943C389.637 43.4543 389.777 43.9743 390.057 44.4543C390.35 44.921 390.737 45.2943 391.217 45.5743C391.71 45.8543 392.25 45.9943 392.837 45.9943ZM409.847 46.4943C408.927 46.4943 408.14 46.3677 407.487 46.1143C406.847 45.861 406.36 45.5343 406.027 45.1343C405.707 44.7343 405.547 44.321 405.547 43.8943C405.547 43.441 405.68 43.081 405.947 42.8143C406.227 42.5343 406.594 42.3943 407.047 42.3943C407.154 42.3943 407.26 42.4077 407.367 42.4343C407.474 42.4477 407.547 42.4543 407.587 42.4543L407.847 42.4943V45.6943C407.86 45.6943 408 45.7477 408.267 45.8543C408.614 45.9477 409.007 45.9943 409.447 45.9943C410.38 45.9943 411.094 45.7143 411.587 45.1543C412.094 44.581 412.347 43.7277 412.347 42.5943C412.347 41.4343 412.1 40.561 411.607 39.9743C411.127 39.3877 410.474 39.0943 409.647 39.0943H408.647V38.5943H409.647C410.247 38.5943 410.747 38.3277 411.147 37.7943C411.547 37.261 411.747 36.4943 411.747 35.4943C411.747 34.4943 411.54 33.7277 411.127 33.1943C410.714 32.661 410.187 32.3943 409.547 32.3943C409.2 32.3943 408.867 32.4477 408.547 32.5543C408.507 32.5677 408.374 32.6143 408.147 32.6943V35.8943L407.887 35.9543C407.674 35.981 407.494 35.9943 407.347 35.9943C406.894 35.9943 406.527 35.861 406.247 35.5943C405.98 35.3143 405.847 34.9477 405.847 34.4943C405.847 34.081 406.007 33.6743 406.327 33.2743C406.647 32.8743 407.114 32.5477 407.727 32.2943C408.354 32.0277 409.094 31.8943 409.947 31.8943C411.067 31.8943 412.014 32.061 412.787 32.3943C413.574 32.7143 414.16 33.1477 414.547 33.6943C414.947 34.241 415.147 34.841 415.147 35.4943C415.147 36.2543 414.954 36.861 414.567 37.3143C414.18 37.7543 413.674 38.1077 413.047 38.3743C412.434 38.6143 411.734 38.7543 410.947 38.7943V38.8943C411.827 38.9343 412.627 39.0877 413.347 39.3543C414.947 39.9943 415.747 41.0743 415.747 42.5943C415.747 43.7677 415.26 44.7143 414.287 45.4343C413.327 46.141 411.847 46.4943 409.847 46.4943ZM417.346 45.2943C417.346 44.5077 417.499 43.7943 417.806 43.1543C418.126 42.501 418.513 41.9343 418.966 41.4543C419.419 40.9743 420.013 40.4077 420.746 39.7543C421.426 39.1543 421.959 38.6543 422.346 38.2543C422.733 37.841 423.059 37.381 423.326 36.8743C423.593 36.3543 423.726 35.7943 423.726 35.1943C423.726 34.3143 423.513 33.6277 423.086 33.1343C422.659 32.641 422.106 32.3943 421.426 32.3943C421.039 32.3943 420.646 32.4477 420.246 32.5543L419.826 32.6943V35.8943L419.566 35.9543C419.353 35.981 419.173 35.9943 419.026 35.9943C418.573 35.9943 418.206 35.861 417.926 35.5943C417.659 35.3143 417.526 34.9477 417.526 34.4943C417.526 34.0677 417.686 33.6543 418.006 33.2543C418.339 32.8543 418.826 32.5277 419.466 32.2743C420.119 32.021 420.906 31.8943 421.826 31.8943C423.626 31.8943 424.959 32.2543 425.826 32.9743C426.693 33.6943 427.126 34.701 427.126 35.9943C427.126 36.8077 426.913 37.5077 426.486 38.0943C426.073 38.681 425.559 39.1677 424.946 39.5543C424.346 39.941 423.539 40.381 422.526 40.8743C421.673 41.2877 420.979 41.6543 420.446 41.9743C419.926 42.281 419.439 42.6543 418.986 43.0943C418.546 43.5343 418.233 44.0343 418.046 44.5943H425.446C425.539 43.8743 425.766 43.2743 426.126 42.7943C426.273 42.5677 426.446 42.3677 426.646 42.1943H427.246V46.1943H417.346V45.2943ZM434.455 45.2943C434.455 44.5077 434.609 43.7943 434.915 43.1543C435.235 42.501 435.622 41.9343 436.075 41.4543C436.529 40.9743 437.122 40.4077 437.855 39.7543C438.535 39.1543 439.069 38.6543 439.455 38.2543C439.842 37.841 440.169 37.381 440.435 36.8743C440.702 36.3543 440.835 35.7943 440.835 35.1943C440.835 34.3143 440.622 33.6277 440.195 33.1343C439.769 32.641 439.215 32.3943 438.535 32.3943C438.149 32.3943 437.755 32.4477 437.355 32.5543L436.935 32.6943V35.8943L436.675 35.9543C436.462 35.981 436.282 35.9943 436.135 35.9943C435.682 35.9943 435.315 35.861 435.035 35.5943C434.769 35.3143 434.635 34.9477 434.635 34.4943C434.635 34.0677 434.795 33.6543 435.115 33.2543C435.449 32.8543 435.935 32.5277 436.575 32.2743C437.229 32.021 438.015 31.8943 438.935 31.8943C440.735 31.8943 442.069 32.2543 442.935 32.9743C443.802 33.6943 444.235 34.701 444.235 35.9943C444.235 36.8077 444.022 37.5077 443.595 38.0943C443.182 38.681 442.669 39.1677 442.055 39.5543C441.455 39.941 440.649 40.381 439.635 40.8743C438.782 41.2877 438.089 41.6543 437.555 41.9743C437.035 42.281 436.549 42.6543 436.095 43.0943C435.655 43.5343 435.342 44.0343 435.155 44.5943H442.555C442.649 43.8743 442.875 43.2743 443.235 42.7943C443.382 42.5677 443.555 42.3677 443.755 42.1943H444.355V46.1943H434.455V45.2943ZM450.859 46.4943C450.073 46.4943 449.379 46.3677 448.779 46.1143C448.193 45.8477 447.739 45.5143 447.419 45.1143C447.113 44.7143 446.959 44.3077 446.959 43.8943C446.959 43.441 447.093 43.081 447.359 42.8143C447.639 42.5343 448.006 42.3943 448.459 42.3943C448.566 42.3943 448.673 42.4077 448.779 42.4343C448.886 42.4477 448.959 42.4543 448.999 42.4543L449.259 42.4943V45.6943L449.639 45.8543C449.879 45.9477 450.153 45.9943 450.459 45.9943C451.113 45.9943 451.646 45.821 452.059 45.4743C452.473 45.1277 452.793 44.4877 453.019 43.5543C453.246 42.621 453.359 41.301 453.359 39.5943C453.239 39.7943 453.053 39.9943 452.799 40.1943C452.293 40.5943 451.713 40.7943 451.059 40.7943C450.086 40.7943 449.233 40.6143 448.499 40.2543C447.779 39.881 447.226 39.3677 446.839 38.7143C446.453 38.061 446.259 37.321 446.259 36.4943C446.259 35.0677 446.699 33.9477 447.579 33.1343C448.473 32.3077 449.733 31.8943 451.359 31.8943C453.039 31.8943 454.359 32.4943 455.319 33.6943C456.279 34.8943 456.759 36.7277 456.759 39.1943C456.759 41.5943 456.233 43.4143 455.179 44.6543C454.139 45.881 452.699 46.4943 450.859 46.4943ZM451.459 40.2943C452.006 40.2943 452.439 40.0277 452.759 39.4943C453.093 38.961 453.259 38.1277 453.259 36.9943C453.259 35.301 453.073 34.0943 452.699 33.3743C452.339 32.6543 451.893 32.2943 451.359 32.2943C451.093 32.2943 450.826 32.4277 450.559 32.6943C450.306 32.961 450.093 33.3943 449.919 33.9943C449.746 34.5943 449.659 35.361 449.659 36.2943C449.659 37.2277 449.746 37.9943 449.919 38.5943C450.106 39.1943 450.333 39.6277 450.599 39.8943C450.879 40.161 451.166 40.2943 451.459 40.2943Z" fill="#E3B873"/>
<circle cx="271" cy="91.1943" r="14" fill="#E3B873"/>
<path d="M265.4 85.9941H276.6C277.37 85.9941 278 86.6241 278 87.3941V95.7941C278 96.5641 277.37 97.1941 276.6 97.1941H265.4C264.63 97.1941 264 96.5641 264 95.7941V87.3941C264 86.6241 264.63 85.9941 265.4 85.9941Z" stroke="white" stroke-width="1.5" stroke-linecap="round" stroke-linejoin="round"/>
<path d="M278 87.3945L271 92.2945L264 87.3945" stroke="white" stroke-width="1.5" stroke-linecap="round" stroke-linejoin="round"/>
<circle cx="314" cy="91.1943" r="14" fill="#E3B873"/>
<path d="M317 85.5938H311C309.343 85.5938 308 86.9369 308 88.5938V94.5938C308 96.2506 309.343 97.5938 311 97.5938H317C318.657 97.5938 320 96.2506 320 94.5938V88.5938C320 86.9369 318.657 85.5938 317 85.5938Z" stroke="white" stroke-width="1.5"/>
<path d="M316.4 91.2159C316.474 91.7153 316.389 92.2253 316.156 92.6733C315.924 93.1214 315.556 93.4848 315.105 93.7117C314.654 93.9387 314.143 94.0177 313.645 93.9375C313.146 93.8573 312.686 93.622 312.329 93.265C311.972 92.9081 311.737 92.4477 311.656 91.9493C311.576 91.4509 311.655 90.9399 311.882 90.489C312.109 90.038 312.473 89.6702 312.921 89.4377C313.369 89.2052 313.879 89.1199 314.378 89.1939C314.887 89.2695 315.359 89.5068 315.723 89.8709C316.087 90.235 316.325 90.7066 316.4 91.2159Z" stroke="white" stroke-width="1.5" stroke-linecap="round" stroke-linejoin="round"/>
</svg>
