<svg width="257" height="67" viewBox="0 0 257 67" fill="none" xmlns="http://www.w3.org/2000/svg">
<path d="M43.709 17.7L44.909 17.4V4.5H42.609C42.609 5.31333 42.389 6.09333 41.949 6.84C41.7623 7.14667 41.549 7.4 41.309 7.6H40.709V4H52.409V7.6H51.809C51.5557 7.4 51.3357 7.14667 51.149 6.84C50.7223 6.12 50.509 5.34 50.509 4.5H48.209V17.4L49.409 17.7V18H43.709V17.7ZM56.8043 17.7L58.0043 17.4V12.8L53.9043 4.6L52.9043 4.3V4H55.4043C56.0976 4 56.651 4.14667 57.0643 4.44C57.491 4.73333 57.8376 5.15333 58.1043 5.7L61.0643 11.6L64.1043 4.9L62.6043 4.3V4H66.4043V4.3L64.8043 4.9L61.3043 12.6V17.4L62.5043 17.7V18H56.8043V17.7ZM67.2051 17.7L68.4051 17.4V4.6L67.2051 4.3V4H72.8051C75.0184 4 76.6051 4.36667 77.5651 5.1C78.5251 5.82 79.0051 6.88667 79.0051 8.3C79.0051 9.71333 78.5251 10.7867 77.5651 11.52C76.6051 12.24 75.0184 12.6 72.8051 12.6H71.7051V17.4L72.9051 17.7V18H67.2051V17.7ZM72.8051 12.1C73.6451 12.1 74.3184 11.78 74.8251 11.14C75.3451 10.5 75.6051 9.55333 75.6051 8.3C75.6051 7.06 75.3451 6.12 74.8251 5.48C74.3184 4.82667 73.6451 4.5 72.8051 4.5H71.7051V12.1H72.8051ZM80.7012 17.7L81.9012 17.4V4.6L80.7012 4.3V4H91.4012V7.6H90.8012C90.5478 7.4 90.3278 7.14667 90.1412 6.84C89.7145 6.12 89.5012 5.34 89.5012 4.5H85.2012V10.8H87.5012C87.5945 10.2933 87.7678 9.82 88.0212 9.38C88.1278 9.18 88.2545 8.98667 88.4012 8.8H89.0012V13.3H88.4012C88.2545 13.1133 88.1278 12.92 88.0212 12.72C87.7678 12.28 87.5945 11.8067 87.5012 11.3H85.2012V17.5H89.9012C89.9012 16.66 90.1145 15.88 90.5412 15.16C90.7278 14.8533 90.9478 14.6 91.2012 14.4H91.8012V18H80.7012V17.7ZM98.4918 18.3C97.5451 18.3 96.6585 18.0867 95.8318 17.66C95.4585 17.4733 95.1451 17.2533 94.8918 17C94.7051 17.3067 94.4718 17.58 94.1918 17.82C93.9518 17.9933 93.8185 18.0867 93.7918 18.1H93.2918V14.3H94.0918C94.2918 14.9533 94.5718 15.54 94.9318 16.06C95.7451 17.22 96.7985 17.8 98.0918 17.8C98.8518 17.8 99.4585 17.5733 99.9118 17.12C100.365 16.6667 100.592 16.06 100.592 15.3C100.592 14.86 100.458 14.4667 100.192 14.12C99.9385 13.7733 99.6185 13.4667 99.2318 13.2C98.8451 12.9333 98.3051 12.6 97.6118 12.2C96.7318 11.7067 96.0185 11.26 95.4718 10.86C94.9251 10.46 94.4585 9.96 94.0718 9.36C93.6851 8.74667 93.4918 8.02667 93.4918 7.2C93.4918 6.54667 93.6718 5.96 94.0318 5.44C94.4051 4.90667 94.9585 4.48667 95.6918 4.18C96.4251 3.86 97.3251 3.7 98.3918 3.7C99.1651 3.7 99.9385 3.92 100.712 4.36C101.005 4.52 101.298 4.73333 101.592 5C101.818 4.65333 102.052 4.38 102.292 4.18C102.532 4.00667 102.665 3.91333 102.692 3.9H103.192V7.7H102.392C102.218 7.06 101.958 6.48 101.612 5.96C101.292 5.45333 100.892 5.03333 100.412 4.7C99.9451 4.36667 99.4051 4.2 98.7918 4.2C98.2718 4.2 97.8251 4.40667 97.4518 4.82C97.0785 5.23333 96.8918 5.76 96.8918 6.4C96.8918 6.89333 97.0318 7.34 97.3118 7.74C97.6051 8.12667 97.9585 8.46667 98.3718 8.76C98.7985 9.05333 99.3718 9.40667 100.092 9.82C100.932 10.3 101.612 10.7267 102.132 11.1C102.652 11.4733 103.092 11.94 103.452 12.5C103.812 13.0467 103.992 13.68 103.992 14.4C103.992 15.12 103.785 15.78 103.372 16.38C102.958 16.9667 102.338 17.4333 101.512 17.78C100.685 18.1267 99.6785 18.3 98.4918 18.3ZM117.492 18.3C116.185 18.3 115.038 18.02 114.052 17.46C113.078 16.8867 112.325 16.0533 111.792 14.96C111.258 13.8667 110.992 12.5467 110.992 11C110.992 9.45333 111.258 8.13333 111.792 7.04C112.325 5.94667 113.078 5.12 114.052 4.56C115.038 3.98667 116.185 3.7 117.492 3.7C118.798 3.7 119.938 3.98667 120.912 4.56C121.898 5.12 122.658 5.94667 123.192 7.04C123.725 8.13333 123.992 9.45333 123.992 11C123.992 12.5467 123.725 13.8667 123.192 14.96C122.658 16.0533 121.898 16.8867 120.912 17.46C119.938 18.02 118.798 18.3 117.492 18.3ZM117.492 17.9C118.012 17.9 118.492 17.68 118.932 17.24C119.385 16.8 119.758 16.0667 120.052 15.04C120.345 14.0133 120.492 12.6667 120.492 11C120.492 9.33333 120.345 7.98667 120.052 6.96C119.758 5.93333 119.385 5.2 118.932 4.76C118.492 4.32 118.012 4.1 117.492 4.1C116.972 4.1 116.485 4.32 116.032 4.76C115.592 5.2 115.225 5.93333 114.932 6.96C114.638 7.98667 114.492 9.33333 114.492 11C114.492 12.6667 114.638 14.0133 114.932 15.04C115.225 16.0667 115.592 16.8 116.032 17.24C116.485 17.68 116.972 17.9 117.492 17.9ZM125.896 17.7L127.096 17.4V4.6L125.896 4.3V4H136.596V7.6H135.996C135.743 7.4 135.523 7.14667 135.336 6.84C134.91 6.12 134.696 5.34 134.696 4.5H130.396V10.8H132.696C132.79 10.2933 132.963 9.82 133.216 9.38C133.323 9.18 133.45 8.98667 133.596 8.8H134.196V13.3H133.596C133.45 13.1133 133.323 12.92 133.216 12.72C132.963 12.28 132.79 11.8067 132.696 11.3H130.396V17.4L131.596 17.7V18H125.896V17.7ZM143.709 17.7L144.909 17.4V4.6L143.709 4.3V4H149.009C151.276 4 152.909 4.34667 153.909 5.04C154.909 5.72 155.409 6.67333 155.409 7.9C155.409 8.72667 155.189 9.4 154.749 9.92C154.309 10.4267 153.742 10.8067 153.049 11.06C152.316 11.34 151.536 11.4867 150.709 11.5V11.6C151.202 11.6267 151.636 11.7 152.009 11.82C152.942 12.1133 153.576 12.64 153.909 13.4L155.709 17.4L156.709 17.7V18H153.909C152.816 18 152.016 17.4333 151.509 16.3L149.509 11.8H148.209V17.4L149.609 17.7V18H143.709V17.7ZM149.009 11.3C149.942 11.3 150.676 11.0067 151.209 10.42C151.742 9.83333 152.009 8.99333 152.009 7.9C152.009 6.80667 151.742 5.96667 151.209 5.38C150.676 4.79333 149.942 4.5 149.009 4.5H148.209V11.3H149.009ZM157.713 17.7L158.913 17.4V4.6L157.713 4.3V4H168.413V7.6H167.813C167.56 7.4 167.34 7.14667 167.153 6.84C166.726 6.12 166.513 5.34 166.513 4.5H162.213V10.8H164.513C164.606 10.2933 164.78 9.82 165.033 9.38C165.14 9.18 165.266 8.98667 165.413 8.8H166.013V13.3H165.413C165.266 13.1133 165.14 12.92 165.033 12.72C164.78 12.28 164.606 11.8067 164.513 11.3H162.213V17.5H166.913C166.913 16.66 167.126 15.88 167.553 15.16C167.74 14.8533 167.96 14.6 168.213 14.4H168.813V18H157.713V17.7ZM170.604 17.7L171.804 17.4V4.6L170.604 4.3V4H176.204C178.417 4 180.004 4.36667 180.964 5.1C181.924 5.82 182.404 6.88667 182.404 8.3C182.404 9.71333 181.924 10.7867 180.964 11.52C180.004 12.24 178.417 12.6 176.204 12.6H175.104V17.4L176.304 17.7V18H170.604V17.7ZM176.204 12.1C177.044 12.1 177.717 11.78 178.224 11.14C178.744 10.5 179.004 9.55333 179.004 8.3C179.004 7.06 178.744 6.12 178.224 5.48C177.717 4.82667 177.044 4.5 176.204 4.5H175.104V12.1H176.204ZM181.293 17.7L182.893 17.1L188.393 3.8H188.993L194.693 17.4L195.693 17.7V18H193.293C192.6 18 192.033 17.8467 191.593 17.54C191.153 17.22 190.827 16.8067 190.613 16.3L189.593 13.9H184.813L183.493 17.1L184.993 17.7V18H181.293V17.7ZM185.013 13.4H189.393L187.193 8.14L185.013 13.4ZM196.287 18V17.7L197.487 17.4V4.6L196.287 4.3V4H201.987V4.3L200.787 4.6V17.4L201.987 17.7V18H196.287ZM203.787 17.7L204.987 17.4V4.6L203.787 4.3V4H209.087C211.354 4 212.987 4.34667 213.987 5.04C214.987 5.72 215.487 6.67333 215.487 7.9C215.487 8.72667 215.267 9.4 214.827 9.92C214.387 10.4267 213.82 10.8067 213.127 11.06C212.394 11.34 211.614 11.4867 210.787 11.5V11.6C211.28 11.6267 211.714 11.7 212.087 11.82C213.02 12.1133 213.654 12.64 213.987 13.4L215.787 17.4L216.787 17.7V18H213.987C212.894 18 212.094 17.4333 211.587 16.3L209.587 11.8H208.287V17.4L209.687 17.7V18H203.787V17.7ZM209.087 11.3C210.02 11.3 210.754 11.0067 211.287 10.42C211.82 9.83333 212.087 8.99333 212.087 7.9C212.087 6.80667 211.82 5.96667 211.287 5.38C210.754 4.79333 210.02 4.5 209.087 4.5H208.287V11.3H209.087Z" fill="#181818"/>
<rect x="73.0006" y="52" width="32" height="1.54334" rx="0.771672" fill="#E3B873"/>
<rect x="155.001" y="52" width="32" height="1.54334" rx="0.771672" fill="#E3B873"/>
<path d="M140.406 60.1437C139.824 59.7344 139.153 59.5146 138.475 59.4787C135.92 57.8056 134.246 56.5498 133.269 55.5726L130.268 52.571L132.089 50.532C132.434 50.7269 132.805 50.8553 133.176 50.9083C133.456 50.9549 133.642 50.9549 133.829 50.9549C134.202 50.9549 134.295 50.9549 134.668 51.2814C134.482 51.4213 134.389 51.6545 134.389 51.8877C134.389 52.1209 134.482 52.4008 134.668 52.5874L136.301 54.2199C136.534 54.4998 136.907 54.6397 137.281 54.6397C137.654 54.6397 138.027 54.4998 138.26 54.1733L141.572 50.8616C141.852 50.6283 141.991 50.2552 141.991 49.8821C141.991 49.5089 141.852 49.1824 141.572 48.9026L139.939 47.27C139.753 47.0835 139.519 46.9902 139.286 46.9902C139.053 46.9902 138.82 47.1301 138.633 47.27C138.26 46.9435 138.26 46.8502 138.26 46.4771C138.26 46.2905 138.26 46.0573 138.167 45.7774C138.073 45.1244 137.747 44.4714 137.234 43.9583L135.555 42.2792C134.575 41.2997 134.109 40.8333 132.849 40.2735C130.144 39.0142 127.392 39.2474 123.381 41.0665C123.147 41.1598 123.054 41.3464 123.101 41.5796C123.147 41.8128 123.334 41.9528 123.567 41.9528H124.174C126.226 41.9528 127.299 41.9528 129.164 43.8185C129.981 44.6354 130.005 45.8881 129.273 46.8097C129.174 46.8246 129.099 46.8688 129.025 46.9436L126.953 49.2561L125.386 47.6899C123.665 45.9684 122.454 44.3397 121.522 42.5261C121.473 41.6085 121.105 40.7499 120.442 40.087C119.649 39.2941 118.53 38.921 117.41 39.0143C117.271 39.0609 117.131 39.1542 117.084 39.2475C116.991 39.3875 116.991 39.574 117.084 39.7139L118.39 42.0461C118.11 42.6525 117.457 43.0256 116.804 42.979L115.451 40.7401C115.405 40.6001 115.218 40.5068 115.078 40.5068C114.938 40.4602 114.798 40.5535 114.705 40.6934C113.586 42.3725 114.005 44.6114 115.685 45.7775C116.263 46.1907 116.915 46.4205 117.575 46.4676C117.582 46.4707 117.589 46.4746 117.597 46.4771C119.416 47.41 121.049 48.6227 122.774 50.3485L124.48 52.0156L114.565 63.0822C114.192 63.4554 114.005 63.9684 114.005 64.4815C114.005 64.9946 114.192 65.461 114.565 65.8342L115.218 66.4872C115.591 66.8137 116.058 67.0003 116.524 67.0003C116.991 67.0003 117.504 66.8137 117.877 66.4406L127.781 55.3548L130.657 58.2313C131.636 59.2099 132.894 60.9335 134.57 63.4483C134.631 64.346 134.998 65.1842 135.648 65.8342C136.348 66.5338 137.281 66.907 138.26 66.907C138.4 66.907 138.54 66.907 138.633 66.907C138.773 66.907 138.913 66.8137 139.006 66.6738C139.1 66.5338 139.1 66.3473 139.006 66.2073L137.654 63.9218C137.98 63.3155 138.587 62.9423 139.286 62.989L140.592 65.2278C140.639 65.3678 140.825 65.4611 140.965 65.4611C141.152 65.4144 141.292 65.3678 141.385 65.2278C142.505 63.5486 142.038 61.3097 140.406 60.1437ZM129.771 43.0723C128.278 41.6263 127.159 41.1599 125.9 41.0199C128.558 40.1804 130.517 40.227 132.476 41.1132C133.596 41.5796 133.969 41.9528 134.948 42.9323L136.627 44.6115C137.001 44.9846 137.234 45.4511 137.281 45.9175C137.327 46.1507 137.327 46.3373 137.327 46.4772C137.327 46.9903 137.374 47.3634 137.933 47.9231C138.12 48.1097 138.4 48.203 138.633 48.203C138.913 48.203 139.146 48.1097 139.286 47.9231L140.919 49.5556C141.012 49.6489 141.059 49.7422 141.059 49.8821C141.059 50.0221 141.012 50.1154 140.919 50.2086L137.607 53.5203C137.42 53.7069 137.141 53.7069 136.954 53.5203L135.321 51.8878C135.508 51.7478 135.601 51.5146 135.555 51.2347C135.555 51.0015 135.461 50.7217 135.275 50.5351C134.715 49.9754 134.342 49.9288 133.829 49.9288C133.689 49.9288 133.502 49.9288 133.269 49.8821C132.756 49.8355 132.336 49.6023 131.963 49.2291L129.958 47.2235C130.984 45.9642 130.89 44.1917 129.771 43.0723ZM115.125 41.9528L116.104 43.632C116.198 43.7719 116.338 43.8652 116.478 43.8652H116.711C117.784 43.9118 118.763 43.3521 119.23 42.4193L119.323 42.186C119.416 42.0461 119.416 41.9062 119.323 41.7663L118.297 39.9938C118.856 40.0871 119.37 40.367 119.789 40.7868C120.27 41.3077 120.578 41.9666 120.596 42.6743C120.587 42.7102 120.582 42.7489 120.582 42.7924C120.582 43.0085 120.556 43.2192 120.508 43.4223C120.332 44.0977 119.91 44.6865 119.323 45.078C118.39 45.6843 117.131 45.6843 116.198 45.0314C115.218 44.3316 114.798 43.0723 115.125 41.9528ZM123.427 49.6956C122.028 48.2497 120.629 47.1302 119.136 46.244C119.369 46.1507 119.649 46.0107 119.882 45.8708C120.582 45.4044 121.049 44.798 121.328 44.0517C122.215 45.5443 123.334 46.9436 124.733 48.3429L126.335 49.945L125.079 51.3473L123.427 49.6956ZM117.224 65.7409C116.851 66.114 116.244 66.1607 115.871 65.7875L115.218 65.1812C115.032 64.9946 114.938 64.7614 114.938 64.5281C114.938 64.2483 115.032 64.015 115.265 63.7819L115.529 63.4863L116.198 64.155C116.291 64.2483 116.384 64.2949 116.524 64.2949C116.664 64.2949 116.757 64.2483 116.851 64.155C117.037 63.9685 117.037 63.6886 116.851 63.502L116.145 62.7967L116.762 62.107L117.504 62.849C117.597 62.9423 117.69 62.9889 117.83 62.9889C117.97 62.9889 118.063 62.9423 118.157 62.849C118.343 62.6624 118.343 62.3826 118.157 62.1959L117.378 61.4174L129.376 47.9944L131.335 49.9534L129.41 52.107C129.355 52.1302 129.306 52.1658 129.258 52.2143L127.392 54.3133C127.339 54.3665 127.301 54.4276 127.278 54.4917L117.224 65.7409ZM128.419 54.6403L129.695 53.2115L132.709 56.2256C133.549 57.1119 134.995 58.2313 137.094 59.6306C136.814 59.7239 136.534 59.8638 136.254 60.0504C135.676 60.4121 135.266 60.9142 134.98 61.4694C134.976 61.4773 134.972 61.4854 134.968 61.4933C134.951 61.5267 134.934 61.5603 134.918 61.5941C134.895 61.6419 134.873 61.6903 134.853 61.7392C134.838 61.7722 134.824 61.8053 134.81 61.8386C134.809 61.8434 134.807 61.8482 134.805 61.853C134.79 61.8895 134.775 61.926 134.762 61.9628C134.497 61.5742 134.242 61.2075 133.997 60.862L134.622 60.237C134.808 60.0504 134.808 59.7706 134.622 59.584C134.435 59.3974 134.155 59.3974 133.969 59.584L133.449 60.1039C133.255 59.8409 133.068 59.5928 132.887 59.3596L133.316 58.9309C133.502 58.7444 133.502 58.4645 133.316 58.2779C133.129 58.0914 132.849 58.0914 132.663 58.2779L132.307 58.634C131.964 58.2208 131.648 57.8692 131.357 57.5783L128.419 54.6403ZM140.919 63.9684L139.939 62.2893C139.846 62.1493 139.706 62.056 139.566 62.056H139.333C138.26 61.9627 137.28 62.5691 136.814 63.5019L136.721 63.7352C136.627 63.8751 136.627 64.015 136.721 64.155L137.747 65.9274C137.187 65.8341 136.674 65.5543 136.254 65.1345C135.782 64.6233 135.477 63.9795 135.449 63.2871C135.457 63.253 135.461 63.2164 135.461 63.1755C135.461 62.5846 135.649 62.0314 135.976 61.5628C136.177 61.2832 136.428 61.0385 136.721 60.8433C137.187 60.5168 137.7 60.3769 138.26 60.3769C138.82 60.3769 139.379 60.5635 139.846 60.89C140.825 61.5896 141.245 62.849 140.919 63.9684Z" fill="#E3B873"/>
</svg>
