<svg width="206" height="14" viewBox="0 0 206 14" fill="none" xmlns="http://www.w3.org/2000/svg">
<path fill-rule="evenodd" clip-rule="evenodd" d="M199.045 -0.000183105L205.683 6.63786L199.045 13.2759L198.098 12.3283L203.788 6.63786L198.098 0.947384L199.045 -0.000183105Z" fill="white"/>
<path fill-rule="evenodd" clip-rule="evenodd" d="M204.736 7.30776L164.228 7.30776L164.228 5.9677L204.736 5.9677L204.736 7.30776Z" fill="white"/>
<path fill-rule="evenodd" clip-rule="evenodd" d="M6.63807 13.276L2.29917e-05 6.638L6.63807 -3.82298e-05L7.58563 0.94753L1.89516 6.638L7.58563 12.3285L6.63807 13.276Z" fill="white"/>
<path fill-rule="evenodd" clip-rule="evenodd" d="M0.947579 5.9681L41.4556 5.9681L41.4556 7.30817L0.947578 7.30816L0.947579 5.9681Z" fill="white"/>
<rect x="125.164" y="1.45636" width="9.56667" height="9.56667" rx="4.78333" fill="white" fill-opacity="0.3"/>
<rect x="98.0583" y="1.45636" width="9.56667" height="9.56667" rx="4.78333" fill="white" fill-opacity="0.3"/>
<rect x="70.9528" y="1.45621" width="9.56667" height="9.56667" rx="4.78333" fill="white"/>
</svg>
